<svg width="32" height="33" viewBox="0 0 32 33" version="1.1" xmlns="http://www.w3.org/2000/svg" xmlns:xlink="http://www.w3.org/1999/xlink" xmlns:figma="http://www.figma.com/figma/ns">
<title>Group</title>
<desc>Created using Figma</desc>
<g id="Canvas" transform="translate(585 -1940)" figma:type="canvas">
<g id="Group" figma:type="frame">
<g id="Vector" figma:type="vector">
<use xlink:href="#path0_stroke" transform="matrix(0.707032 -0.707181 0.707032 0.707181 -584.73 1955.63)" fill="#F1F2F2"/>
</g>
<g id="Vector" figma:type="vector">
<use xlink:href="#path1_stroke" transform="matrix(0.707032 0.707181 -0.707032 0.707181 -568.288 1953.68)" fill="#F1F2F2"/>
</g>
</g>
</g>
<defs>
<path id="path0_stroke" d="M 1.15072 0.500002L 19.8448 0.500002L 19.8448 -0.499998L 1.15072 -0.499998L 1.15072 0.500002ZM 19.8448 0.500002C 20.2042 0.500002 20.4955 0.791343 20.4955 1.15073L 21.4955 1.15073C 21.4955 0.239075 20.7565 -0.499998 19.8448 -0.499998L 19.8448 0.500002ZM 20.4955 1.15073L 20.4955 9.1115L 21.4955 9.1115L 21.4955 1.15073L 20.4955 1.15073ZM 20.4955 9.1115C 20.4955 9.47089 20.2042 9.76223 19.8448 9.76223L 19.8448 10.7622C 20.7565 10.7622 21.4955 10.0232 21.4955 9.1115L 20.4955 9.1115ZM 19.8448 9.76223L 1.15072 9.76223L 1.15072 10.7622L 19.8448 10.7622L 19.8448 9.76223ZM 1.15072 9.76223C 0.791343 9.76223 0.5 9.47089 0.5 9.1115L -0.5 9.1115C -0.5 10.0232 0.239043 10.7622 1.15072 10.7622L 1.15072 9.76223ZM 0.5 9.1115L 0.5 1.15073L -0.5 1.15073L -0.5 9.1115L 0.5 9.1115ZM 0.5 1.15073C 0.5 0.791344 0.791343 0.500002 1.15072 0.500002L 1.15072 -0.499998C 0.239043 -0.499998 -0.5 0.239075 -0.5 1.15073L 0.5 1.15073Z"/>
<path id="path1_stroke" d="M 6.16088e-07 1.97148e-05L 6.16088e-07 -0.49998L -0.499999 -0.49998L -0.499999 1.97148e-05L 6.16088e-07 1.97148e-05ZM 20.4504 1.97148e-05L 20.4504 -0.49998L 20.4504 1.97148e-05ZM 21.0426 0.592163L 21.5426 0.592163L 21.0426 0.592163ZM 21.0426 4.77783L 21.5426 4.77783L 21.0426 4.77783ZM 20.8004 5.02007L 20.8004 5.52007L 20.8004 5.02007ZM 6.16088e-07 5.02007L -0.499999 5.02007L -0.499999 5.52007L 6.16088e-07 5.52007L 6.16088e-07 5.02007ZM 6.16088e-07 0.50002L 20.4504 0.50002L 20.4504 -0.49998L 6.16088e-07 -0.49998L 6.16088e-07 0.50002ZM 20.4504 0.50002C 20.475 0.50002 20.4984 0.509751 20.5156 0.526981L 21.2227 -0.180125C 21.0178 -0.385006 20.74 -0.49998 20.4504 -0.49998L 20.4504 0.50002ZM 20.5156 0.526981C 20.5329 0.544271 20.5426 0.567718 20.5426 0.592163L 21.5426 0.592163C 21.5426 0.302496 21.4275 0.0246964 21.2227 -0.180125L 20.5156 0.526981ZM 20.5426 0.592163L 20.5426 4.77783L 21.5426 4.77783L 21.5426 0.592163L 20.5426 0.592163ZM 20.5426 4.77783C 20.5426 4.70949 20.5697 4.64394 20.6181 4.59559L 21.3252 5.30269C 21.4644 5.16347 21.5426 4.97466 21.5426 4.77783L 20.5426 4.77783ZM 20.6181 4.59559C 20.6665 4.54716 20.7321 4.52007 20.8004 4.52007L 20.8004 5.52007C 20.9971 5.52007 21.1859 5.44198 21.3252 5.30269L 20.6181 4.59559ZM 20.8004 4.52007L 6.16088e-07 4.52007L 6.16088e-07 5.52007L 20.8004 5.52007L 20.8004 4.52007ZM 0.500001 5.02007L 0.500001 1.97148e-05L -0.499999 1.97148e-05L -0.499999 5.02007L 0.500001 5.02007Z"/>
</defs>
</svg>
