<svg id="Layer_1" data-name="Layer 1" xmlns="http://www.w3.org/2000/svg" viewBox="0 0 288.53 175.44"><defs><style>.cls-1{fill:#fff;}</style></defs><title>grid</title><path class="cls-1" d="M-634,2650.07a0.41,0.41,0,0,0-.07-0.11,0.57,0.57,0,0,0-.14-0.09l-144-68.36-0.13,0-0.15,0-0.14,0-0.13,0-143.53,68.36a0.59,0.59,0,0,0-.14.09,0.3,0.3,0,0,0-.07.11,0.15,0.15,0,0,0,0,.11,0.22,0.22,0,0,0,.07.09l144.51,106.52a0.63,0.63,0,0,0,.21.1,0.86,0.86,0,0,0,.22,0,0.91,0.91,0,0,0,.23,0,0.75,0.75,0,0,0,.21-0.1l143-106.52a0.16,0.16,0,0,0,.07-0.09A0.12,0.12,0,0,0-634,2650.07Zm-74.18-13.39,19.33-12.14,25.54,12.15-19.12,13-25.76-13-0.73-.36-24-12.13,19.49-11.34h0l23.87,11.35-19.34,12.11Zm-70.59,13.39-24.08,14-22.51-14,24-13Zm-21.87-13.4,22.4-12.14,22.53,12.15-22.39,13Zm22.55,13.79,24.24,14-24.07,15.07-24.25-15.06Zm0.68-.39,22.38-13,24.16,13-22.32,14Zm23-13.39,20.87-12.14,24,12.15-20.75,13Zm-0.68-.36-22.53-12.13,20.93-11.35,22.48,11.35Zm-23.17-12.47-21.07-11.34,20.94-10.62,21.06,10.64Zm-0.63.34-22.4,12.12-21-12.13,22.37-11.35ZM-802,2636.67l-24,13-20.93-13,23.94-12.15Zm-24.76,13.4-25.85,14-20.76-14,25.68-13Zm0.63,0.39,22.51,14-26,15.08-22.38-15.07Zm23.18,14.43,24.25,15.1-26,16.3L-828.87,2680Zm25,15.56,26.2,16.31-26,17.69L-804,2696.79Zm0.72-.46,24.07-15.1L-727,2680l-24,16.29,0.39,0.25-0.4-.25Zm24.75-15.53,22.31-14,26,14-22.17,15.06Zm22.94-14.39,20.75-13,25.77,13-20.56,14Zm-7.61-48.48-19.6,10.61,0.63,0.32,19.6-10.62,22.38,10.64-19.51,11.33-22.47-11.33-0.63-.33-21.06-10.62,19.65-10Zm-41.36-19.67,19.76,9.4-19.66,10-19.77-10Zm-20.26,9.66,19.77,10-20.94,10.61-19.74-10.62Zm-21.54,10.28,19.74,10.64-22.37,11.33-19.66-11.35Zm-23,11,19.67,11.36-23.94,12.13L-867,2624.16Zm-24.52,11.7,19.52,12.16-25.68,13-19.32-13Zm-53.58,25.56,27.33-13,19.32,13-27.62,14Zm19.6,14.41,27.63-14,20.76,14-27.88,15.09ZM-880.6,2680l27.88-15.11,22.38,15.1-28.09,16.31Zm22.84,16.79,28.1-16.34,24.19,16.32-28.25,17.69ZM-833,2715l28.25-17.73,26.22,17.7-28.33,19.25Zm55.5,40.8-28.56-21,28.33-19.3,28.53,19.26Zm29.1-21.61L-776.92,2715l26-17.73,28.41,17.7Zm26.62-19.78-28.41-17.65h0l24-16.33,28.23,16.31Zm24.45-18.16L-725.55,2680l22.16-15.1,28,15.09Zm22.54-16.73-28-15.06,20.55-14,27.7,14ZM-654,2664l-27.69-14,19.11-13,27.38,13Z" transform="translate(922.51 -2581.46)"/></svg>