<svg id="Layer_1" data-name="Layer 1" xmlns="http://www.w3.org/2000/svg" viewBox="0 0 177.39 148.69"><defs><style>.cls-1{fill:#fff;}.cls-2{fill:none;stroke:#fff;stroke-miterlimit:10;stroke-width:2px;}</style></defs><title>Kassi1</title><path class="cls-1" d="M-1124.71,1623.1l-40,16a1,1,0,0,0-.62.94v54a1,1,0,0,0,.63.91l40,16a1,1,0,0,0,.75,0l40-16a1,1,0,0,0,.63-0.91v-54a1,1,0,0,0-.62-0.94l-40-16a1.31,1.31,0,0,0-.75,0h0Zm0.38,2L-1087,1640l-37.31,14.94-37.31-14.94Zm-39,16.41,38,15.19v51.84l-38-15.19v-51.84Zm78,0v51.84l-38,15.19V1656.7Z" transform="translate(1165.34 -1562.32)"/><path class="cls-2" d="M-988.34,1572.95c-18.45-7.7-38.78-10-58.77-9.58-8.72.18-17.67,0.92-25.53,4.7a35.77,35.77,0,0,0-18.48,21.57" transform="translate(1165.34 -1562.32)"/><path class="cls-2" d="M-1104.34,1580.91a20.49,20.49,0,0,1,10.86,18c3.84-2.75,7.41-4.7,12.13-4.47" transform="translate(1165.34 -1562.32)"/></svg>