<svg id="Layer_1" data-name="Layer 1" xmlns="http://www.w3.org/2000/svg" viewBox="0 0 17.48 31.87"><defs><style>.cls-1{fill:#f3f3f3;}</style></defs><title>mus1</title><g id="Vector"><path id="path0_fill" data-name="path0 fill" class="cls-1" d="M-1183.52,2414.69c-4.73.12-8.48,4.33-8.36,9.38l0.32,13.53c0.12,5.05,4.07,9.07,8.8,9s8.48-4.33,8.36-9.38l-0.32-13.53C-1174.84,2418.58-1178.79,2414.57-1183.52,2414.69Zm7.57,9,0.05,2.22a22.41,22.41,0,0,1-6.71,1.36l-0.26-11.23A7.66,7.66,0,0,1-1175.95,2423.67Zm-8.15-7.62,0.26,11.23a22.35,22.35,0,0,1-6.77-1l-0.05-2.22A7.69,7.69,0,0,1-1184.1,2416Zm1.3,29.19a7.61,7.61,0,0,1-7.54-7.67l-0.23-9.94a23.9,23.9,0,0,0,7.38.95,23.92,23.92,0,0,0,7.33-1.32l0.23,9.94A7.64,7.64,0,0,1-1182.8,2445.24Z" transform="translate(1191.88 -2414.68)"/></g><g id="Rectangle_6" data-name="Rectangle 6"><path id="path1_fill" data-name="path1 fill" class="cls-1" d="M-1191,2421c0-1,7.15-9.19,7.26-4.47l0.26,11.21-7.45-.4S-1191,2422-1191,2421Z" transform="translate(1191.88 -2414.68)"/></g></svg>