<svg id="Layer_1" data-name="Layer 1" xmlns="http://www.w3.org/2000/svg" viewBox="0 0 95.24 31.87"><defs><style>.cls-1{fill:#f2f2f2;}.cls-2{fill:#f3f3f3;}</style></defs><title>mus2</title><g id="Canvas"><g id="CTRL-key"><g id="Ctrl"><path id="path0_fill" data-name="path0 fill" class="cls-1" d="M-1181.57,2527.27a0.33,0.33,0,0,1,.24.11l0.63,0.71a5.06,5.06,0,0,1-1.76,1.35,5.81,5.81,0,0,1-2.49.48,5.76,5.76,0,0,1-2.32-.45,5.15,5.15,0,0,1-1.77-1.28,5.85,5.85,0,0,1-1.14-2,7.56,7.56,0,0,1-.4-2.53,7.17,7.17,0,0,1,.43-2.53,5.85,5.85,0,0,1,1.22-2,5.39,5.39,0,0,1,1.87-1.28,6.19,6.19,0,0,1,2.42-.46,5.5,5.5,0,0,1,2.24.42,5.65,5.65,0,0,1,1.68,1.13l-0.52.76a0.66,0.66,0,0,1-.13.14,0.38,0.38,0,0,1-.21.05,0.44,0.44,0,0,1-.23-0.08l-0.28-.2-0.39-.26a3.35,3.35,0,0,0-.53-0.26,4,4,0,0,0-.71-0.2,4.56,4.56,0,0,0-.93-0.09,4.36,4.36,0,0,0-1.74.34,3.85,3.85,0,0,0-1.35,1,4.43,4.43,0,0,0-.89,1.51,6,6,0,0,0-.31,2,6.12,6.12,0,0,0,.31,2,4.66,4.66,0,0,0,.87,1.51,3.71,3.71,0,0,0,1.3.94,4,4,0,0,0,1.62.32,6.82,6.82,0,0,0,.95-0.06,3.9,3.9,0,0,0,.77-0.2,3.24,3.24,0,0,0,.67-0.34,5.39,5.39,0,0,0,.63-0.5A0.41,0.41,0,0,1-1181.57,2527.27Zm5.26,2.65a2,2,0,0,1-1.52-.57,2.33,2.33,0,0,1-.53-1.64v-5.27h-1a0.33,0.33,0,0,1-.22-0.08,0.33,0.33,0,0,1-.09-0.26v-0.6l1.37-.18,0.34-2.66a0.31,0.31,0,0,1,.11-0.2,0.32,0.32,0,0,1,.23-0.09h0.74v3h2.39v1.1h-2.39v5.17a1.12,1.12,0,0,0,.26.81,0.88,0.88,0,0,0,.66.26,1.17,1.17,0,0,0,.4-0.06,1.86,1.86,0,0,0,.3-0.14l0.21-.14a0.28,0.28,0,0,1,.16-0.07,0.25,0.25,0,0,1,.21.14l0.43,0.72a2.77,2.77,0,0,1-.91.58A3.08,3.08,0,0,1-1176.31,2529.92Zm3.62-.14v-8.61h0.84a0.45,0.45,0,0,1,.33.09,0.58,0.58,0,0,1,.12.32l0.1,1.34a3.91,3.91,0,0,1,1.06-1.4,2.3,2.3,0,0,1,1.48-.51,2.15,2.15,0,0,1,.63.09,2,2,0,0,1,.52.22l-0.19,1.13a0.25,0.25,0,0,1-.26.21,1.31,1.31,0,0,1-.35-0.08,2.07,2.07,0,0,0-.67-0.09,1.87,1.87,0,0,0-1.29.46,3.48,3.48,0,0,0-.86,1.33v5.48h-1.47Zm8.28-12.52v12.52h-1.47v-12.52h1.47Z" transform="translate(1196.4 -2507.97)"/></g><g id="Group"><g id="Group-2" data-name="Group"><g id="Vector"><path id="path1_fill" data-name="path1 fill" class="cls-2" d="M-1150,2512.36c1.42,0,2.62,1.54,2.62,3.37v16.34c0,1.83-1.2,3.37-2.62,3.37h-42.06c-1.42,0-2.62-1.54-2.62-3.37v-16.34c0-1.83,1.2-3.37,2.62-3.37H-1150Zm0-2.2h-42.06c-2.39,0-4.33,2.49-4.33,5.57v16.34c0,3.08,1.94,5.57,4.33,5.57H-1150c2.39,0,4.33-2.49,4.33-5.57v-16.34C-1145.68,2512.66-1147.62,2510.17-1150,2510.17Z" transform="translate(1196.4 -2507.97)"/></g><g id="Group-3" data-name="Group"><g id="Vector-2" data-name="Vector"><path id="path1_fill-2" data-name="path1 fill" class="cls-2" d="M-1150,2512.36c1.42,0,2.62,1.54,2.62,3.37v16.34c0,1.83-1.2,3.37-2.62,3.37h-42.06c-1.42,0-2.62-1.54-2.62-3.37v-16.34c0-1.83,1.2-3.37,2.62-3.37H-1150Zm0-2.2h-42.06c-2.39,0-4.33,2.49-4.33,5.57v16.34c0,3.08,1.94,5.57,4.33,5.57H-1150c2.39,0,4.33-2.49,4.33-5.57v-16.34C-1145.68,2512.66-1147.62,2510.17-1150,2510.17Z" transform="translate(1196.4 -2507.97)"/></g></g></g></g></g></g><g id="Vector-3" data-name="Vector"><path id="path0_fill-2" data-name="path0 fill" class="cls-2" d="M-1110.28,2508c-4.73.12-8.48,4.33-8.36,9.38l0.32,13.53c0.12,5.05,4.07,9.07,8.8,9s8.48-4.33,8.36-9.38l-0.32-13.53C-1101.6,2511.87-1105.55,2507.85-1110.28,2508Zm7.57,9,0.05,2.22a22.41,22.41,0,0,1-6.71,1.36l-0.26-11.23A7.66,7.66,0,0,1-1102.71,2517Zm-8.15-7.62,0.26,11.23a22.35,22.35,0,0,1-6.77-1l-0.05-2.22A7.69,7.69,0,0,1-1110.86,2509.33Zm1.3,29.19a7.61,7.61,0,0,1-7.54-7.67l-0.23-9.94a23.9,23.9,0,0,0,7.38.95,23.92,23.92,0,0,0,7.33-1.32l0.23,9.94A7.64,7.64,0,0,1-1109.56,2538.52Z" transform="translate(1196.4 -2507.97)"/></g><g id="Rectangle_6" data-name="Rectangle 6"><path id="path1_fill-3" data-name="path1 fill" class="cls-2" d="M-1117.71,2514.25c0-1,7.15-9.19,7.26-4.47l0.26,11.21-7.45-.4S-1117.74,2515.29-1117.71,2514.25Z" transform="translate(1196.4 -2507.97)"/></g><g id="Canvas-2" data-name="Canvas"><g id="Group-4" data-name="Group"><g id="Rectangle_7" data-name="Rectangle 7"><path id="path0_fill-3" data-name="path0 fill" class="cls-2" d="M-1132.53,2520.59a0.49,0.49,0,0,1,.48-0.5,0.49,0.49,0,0,1,.48.5v6.63a0.49,0.49,0,0,1-.48.5,0.49,0.49,0,0,1-.48-0.5v-6.63Z" transform="translate(1196.4 -2507.97)"/></g><g id="Rectangle_7-2" data-name="Rectangle 7"><path id="path1_fill-4" data-name="path1 fill" class="cls-2" d="M-1128.94,2523.53a0.49,0.49,0,0,1,.48.5,0.49,0.49,0,0,1-.48.49l-6.43,0a0.49,0.49,0,0,1-.48-0.5,0.49,0.49,0,0,1,.48-0.49Z" transform="translate(1196.4 -2507.97)"/></g></g></g></svg>