<svg id="Layer_1" data-name="Layer 1" xmlns="http://www.w3.org/2000/svg" viewBox="0 0 140.6 46.9"><defs><style>.cls-1{fill:#f3f3f3;}.cls-2{fill:none;stroke:#fff;stroke-miterlimit:10;}</style></defs><title>mus3</title><g id="Vector"><path id="path0_fill" data-name="path0 fill" class="cls-1" d="M-1089.72,2601.64c-4.71,1.47-7.33,6.75-5.86,11.78l3.95,13.46a9.05,9.05,0,0,0,11.21,6.45c4.71-1.47,7.33-6.75,5.86-11.78l-3.95-13.46A9.05,9.05,0,0,0-1089.72,2601.64Zm10,6.83,0.65,2.2a23.64,23.64,0,0,1-6.36,3.27l-3.27-11.17A7.8,7.8,0,0,1-1079.73,2608.47Zm-10.21-5.31,3.27,11.17a23.21,23.21,0,0,1-7.05.91l-0.65-2.2A8.14,8.14,0,0,1-1089.94,2603.16Zm9.13,28.86a7.76,7.76,0,0,1-9.61-5.53l-2.9-9.88a24.84,24.84,0,0,0,7.65-1.15,25.21,25.21,0,0,0,7-3.41l2.9,9.88A8.09,8.09,0,0,1-1080.81,2632Z" transform="translate(1198.55 -2601.25)"/></g><g id="Rectangle_6" data-name="Rectangle 6"><path id="path1_fill" data-name="path1 fill" class="cls-1" d="M-1095,2609.74c-0.25-1,4.25-10.93,5.62-6.24l3.27,11.15-7.57,1.72S-1094.78,2610.78-1095,2609.74Z" transform="translate(1198.55 -2601.25)"/></g><path class="cls-2" d="M-1058.6,2634.6a52.71,52.71,0,0,1-7.17,8.84,12.42,12.42,0,0,1-5.14,3.46,13.7,13.7,0,0,1-5.7-.05l-1.94-.29" transform="translate(1198.55 -2601.25)"/><path class="cls-2" d="M-1058.38,2634.5a3.56,3.56,0,0,1-2.92,1.6c-1.14.1-2.3-.08-3.44,0" transform="translate(1198.55 -2601.25)"/><path class="cls-2" d="M-1100.92,2635.73a52.5,52.5,0,0,0,7.54,8.5,12.37,12.37,0,0,0,5.28,3.22,13.71,13.71,0,0,0,5.69-.31l1.93-.38" transform="translate(1198.55 -2601.25)"/><path class="cls-2" d="M-1102,2633.73a3.54,3.54,0,0,0,3,1.47c1.15,0,2.29-.19,3.44-0.11" transform="translate(1198.55 -2601.25)"/><path class="cls-2" d="M-1101.57,2634.64a8.16,8.16,0,0,1,1.09,6.59,1,1,0,0,1-.38.65" transform="translate(1198.55 -2601.25)"/><path class="cls-2" d="M-1058.58,2635.15c-0.2,1.15,0,2.35-.15,3.51a9.38,9.38,0,0,1-.64,2" transform="translate(1198.55 -2601.25)"/><g id="Canvas"><g id="Shift_key" data-name="Shift key"><g id="Vector-2" data-name="Vector"><path id="path0_fill-2" data-name="path0 fill" class="cls-1" d="M-1136.44,2611.58a3.68,3.68,0,0,1,3.51,3.76v18.22a3.68,3.68,0,0,1-3.51,3.76h-56.31a3.68,3.68,0,0,1-3.51-3.76v-18.22a3.68,3.68,0,0,1,3.51-3.76h56.31Zm0-2.45h-56.31a6,6,0,0,0-5.8,6.21v18.22a6,6,0,0,0,5.8,6.21h56.31a6,6,0,0,0,5.8-6.21v-18.22A6,6,0,0,0-1136.44,2609.13Z" transform="translate(1198.55 -2601.25)"/></g><g id="Vector-3" data-name="Vector"><path id="path1_fill-2" data-name="path1 fill" class="cls-1" d="M-1138.73,2627.52a1.11,1.11,0,0,0,.76-1.89l-4.72-4.85a1.38,1.38,0,0,0-2,0l-4.64,4.77a1.16,1.16,0,0,0,.79,2,1.13,1.13,0,0,1,1.12,1.15v3.93a1.44,1.44,0,0,0,1.41,1.46h4.8a1.44,1.44,0,0,0,1.41-1.46v-4A1.09,1.09,0,0,1-1138.73,2627.52Z" transform="translate(1198.55 -2601.25)"/></g></g></g><g id="Canvas-2" data-name="Canvas"><g id="Group"><g id="Rectangle_7" data-name="Rectangle 7"><path id="path0_fill-3" data-name="path0 fill" class="cls-1" d="M-1116.68,2621.14a0.49,0.49,0,0,1,.48-0.5,0.49,0.49,0,0,1,.48.5v6.63a0.49,0.49,0,0,1-.48.5,0.49,0.49,0,0,1-.48-0.5v-6.63Z" transform="translate(1198.55 -2601.25)"/></g><g id="Rectangle_7-2" data-name="Rectangle 7"><path id="path1_fill-3" data-name="path1 fill" class="cls-1" d="M-1113.1,2624.08a0.49,0.49,0,0,1,.48.5,0.49,0.49,0,0,1-.48.49l-6.43,0a0.49,0.49,0,0,1-.48-0.5,0.49,0.49,0,0,1,.48-0.49Z" transform="translate(1198.55 -2601.25)"/></g></g></g></svg>