<svg id="Layer_1" data-name="Layer 1" xmlns="http://www.w3.org/2000/svg" viewBox="0 0 112.08 32.57"><defs><style>.cls-1{fill:#f3f3f3;}</style></defs><title>mus4</title><g id="Canvas"><g id="Shift_key" data-name="Shift key"><g id="Vector"><path id="path0_fill" data-name="path0 fill" class="cls-1" d="M-1133.16,2712.48a3.68,3.68,0,0,1,3.51,3.76v18.22a3.68,3.68,0,0,1-3.51,3.76h-56.31a3.68,3.68,0,0,1-3.51-3.76v-18.22a3.68,3.68,0,0,1,3.51-3.76h56.31Zm0-2.45h-56.31a6,6,0,0,0-5.8,6.21v18.22a6,6,0,0,0,5.8,6.21h56.31a6,6,0,0,0,5.8-6.21v-18.22A6,6,0,0,0-1133.16,2710Z" transform="translate(1195.26 -2709.07)"/></g><g id="Vector-2" data-name="Vector"><path id="path1_fill" data-name="path1 fill" class="cls-1" d="M-1135.44,2728.42a1.11,1.11,0,0,0,.76-1.89l-4.72-4.85a1.38,1.38,0,0,0-2,0l-4.64,4.77a1.16,1.16,0,0,0,.79,2,1.13,1.13,0,0,1,1.12,1.15v3.93a1.44,1.44,0,0,0,1.41,1.46h4.8a1.44,1.44,0,0,0,1.41-1.46v-4A1.09,1.09,0,0,1-1135.44,2728.42Z" transform="translate(1195.26 -2709.07)"/></g></g></g><g id="Canvas-2" data-name="Canvas"><g id="scrollmouse"><g id="Group"><g id="Vector-3" data-name="Vector"><path id="path0_fill-2" data-name="path0 fill" class="cls-1" d="M-1092.17,2709.07c-4.84,0-8.73,4.29-8.69,9.45l0.12,13.83c0,5.17,4,9.33,8.85,9.29s8.73-4.29,8.69-9.45l-0.12-13.83C-1083.36,2713.19-1087.33,2709-1092.17,2709.07Zm7.6,9.3,0,2.27a22.89,22.89,0,0,1-6.88,1.28l-0.1-11.48A7.84,7.84,0,0,1-1084.57,2718.37Zm-8.22-7.92,0.1,11.48a22.85,22.85,0,0,1-6.9-1.15l0-2.27A7.85,7.85,0,0,1-1092.78,2710.45Zm0.89,29.85a7.79,7.79,0,0,1-7.59-8l-0.09-10.16a24.43,24.43,0,0,0,7.53,1.09,24.43,24.43,0,0,0,7.51-1.23l0.09,10.16A7.8,7.8,0,0,1-1091.89,2740.3Z" transform="translate(1195.26 -2709.07)"/></g></g><g id="Rectangle_9" data-name="Rectangle 9"><path id="path1_fill-2" data-name="path1 fill" class="cls-1" d="M-1093.92,2714.41a1.78,1.78,0,0,1,1.75-1.81,1.78,1.78,0,0,1,1.75,1.81v4.83a1.78,1.78,0,0,1-1.75,1.81,1.78,1.78,0,0,1-1.75-1.81v-4.83Z" transform="translate(1195.26 -2709.07)"/></g></g></g><g id="Canvas-3" data-name="Canvas"><g id="Group-2" data-name="Group"><g id="Rectangle_7" data-name="Rectangle 7"><path id="path0_fill-3" data-name="path0 fill" class="cls-1" d="M-1114.47,2722a0.49,0.49,0,0,1,.48-0.5,0.49,0.49,0,0,1,.48.5v6.63a0.49,0.49,0,0,1-.48.5,0.49,0.49,0,0,1-.48-0.5V2722Z" transform="translate(1195.26 -2709.07)"/></g><g id="Rectangle_7-2" data-name="Rectangle 7"><path id="path1_fill-3" data-name="path1 fill" class="cls-1" d="M-1110.89,2725a0.49,0.49,0,0,1,.48.5,0.49,0.49,0,0,1-.48.49l-6.43,0a0.49,0.49,0,0,1-.48-0.5,0.49,0.49,0,0,1,.48-0.49Z" transform="translate(1195.26 -2709.07)"/></g></g></g></svg>