<svg id="Layer_1" data-name="Layer 1" xmlns="http://www.w3.org/2000/svg" viewBox="0 0 162.43 180.79"><defs><style>.cls-1{fill:#fff;}.cls-2{fill:none;stroke:#fff;stroke-miterlimit:10;stroke-width:2px;}</style></defs><title>object1</title><path class="cls-1" d="M-669.89,2075.13v-10.55h-8.32v-22.7l-10-11.42-10,11.42v22.7h-14.32v-22.7l-10-11.42-10,11.42v22.7h-14.32v-22.7l-10-11.42-10,11.42v22.7h-8.32v10.55h8.32v20.93h-8.32v10.56h8.32v20.61h20v-20.61h14.32v20.61h20v-20.61h14.32v20.61h20v-20.61h8.32v-10.56h-8.32v-20.93h8.32Zm-8.32-8.27h6v6h-6v-6Zm-88.58,37.46h-6v-6h6v6Zm0-31.48h-6v-6h6v6Zm17.7,52.09h-15.41v-82.2l7.7-8.8,7.7,8.8v82.2Zm16.6-20.61h-14.32v-6h14.32v6h0Zm0-8.27h-14.32v-20.93h14.32v20.93h0Zm0-23.21h-14.32v-6h14.32v6h0Zm17.7,52.09h-15.41v-82.2l7.7-8.8,7.7,8.8v82.2Zm16.61-20.61h-14.32v-6h14.32v6h0Zm0-8.27h-14.32v-20.93h14.32v20.93h0Zm0-23.21h-14.32v-6h14.32v6h0Zm17.69,52.09h-15.41v-82.2l7.7-8.8,7.7,8.8v82.2Zm8.32-26.59v6h-6v-6h6Z" transform="translate(832.33 -1946.43)"/><path class="cls-2" d="M-832.07,1951.36c19.31-5.16,39.77-4.72,59.52-1.65,8.62,1.34,17.39,3.27,24.68,8.06a35.77,35.77,0,0,1,15.44,23.84" transform="translate(832.33 -1946.43)"/><path class="cls-2" d="M-718.17,1974.73a20.49,20.49,0,0,0-13.16,16.36c-3.44-3.24-6.72-5.65-11.43-6" transform="translate(832.33 -1946.43)"/></svg>