<svg width="127" height="58" viewBox="0 0 127 58" version="1.1" xmlns="http://www.w3.org/2000/svg" xmlns:xlink="http://www.w3.org/1999/xlink" xmlns:figma="http://www.figma.com/figma/ns">
<title>Group</title>
<desc>Created using Figma</desc>
<g id="Canvas" transform="translate(-2352 956)" figma:type="canvas">
<g id="Group" figma:type="frame">
<g id="Vector" figma:type="vector">
<use xlink:href="#path0_fill" transform="translate(2352 -932.092)" fill="#F2F2F2"/>
</g>
<g id="Group" figma:type="frame">
<g id="Rectangle 7" figma:type="rounded-rectangle">
<use xlink:href="#path1_fill" transform="translate(2421.5 -927.092)" fill="#F2F2F2"/>
</g>
<g id="Rectangle 7" figma:type="rounded-rectangle">
<use xlink:href="#path2_fill" transform="matrix(-0.004279 0.999991 -0.999991 -0.004279 2427.01 -922.571)" fill="#F2F2F2"/>
</g>
</g>
<g id="Group" figma:type="frame">
<g id="Vector" figma:type="vector">
<use xlink:href="#path3_fill" transform="matrix(0.999704 -0.0243135 0.0243135 0.999704 2445 -955.23)" fill="#F2F2F2"/>
</g>
<g id="Rectangle 6" figma:type="vector">
<use xlink:href="#path4_fill" transform="matrix(0.999704 -0.0243135 0.0243135 0.999704 2446.72 -954.707)" fill="#F2F2F2"/>
</g>
</g>
</g>
</g>
<defs>
<path id="path0_fill" d="M 43.9011 1.68C 45.2494 1.68 46.382 2.856 46.382 4.256L 46.382 16.744C 46.382 18.144 45.2494 19.32 43.9011 19.32L 4.09888 19.32C 2.75056 19.32 1.61798 18.144 1.61798 16.744L 1.61798 4.256C 1.61798 2.856 2.75056 1.68 4.09888 1.68L 43.9011 1.68ZM 43.9011 0L 4.09888 0C 1.83371 0 0 1.904 0 4.256L 0 16.744C 0 19.096 1.83371 21 4.09888 21L 43.9011 21C 46.1663 21 48 19.096 48 16.744L 48 4.256C 48 1.904 46.1663 0 43.9011 0Z"/>
<path id="path1_fill" d="M 0 0.65C 0 0.291015 0.291015 0 0.65 0L 0.65 0C 1.00898 0 1.3 0.291015 1.3 0.65L 1.3 9.35C 1.3 9.70899 1.00898 10 0.65 10L 0.65 10C 0.291015 10 0 9.70899 0 9.35L 0 0.65Z"/>
<path id="path2_fill" d="M 0 0.65C 0 0.291015 0.291015 0 0.65 0L 0.65 0C 1.00898 0 1.3 0.291015 1.3 0.65L 1.3 9.35C 1.3 9.70899 1.00898 10 0.65 10L 0.65 10C 0.291015 10 0 9.70899 0 9.35L 0 0.65Z"/>
<path id="path3_fill" d="M 15.8353 -7.69544e-08C 7.10328 -7.69544e-08 -4.79421e-07 7.35734 -4.79421e-07 16.3995L -4.79421e-07 40.6072C -4.79421e-07 49.6494 7.10391 57.0061 15.8353 57.0061C 24.5668 57.0061 31.67 49.6487 31.67 40.6072L 31.67 16.3995C 31.67 7.35734 24.5668 -7.69544e-08 15.8353 -7.69544e-08ZM 29.4085 16.3995L 29.4085 20.3651C 25.5879 21.6549 21.3268 22.3837 16.9664 22.4911L 16.9664 2.40256C 23.922 3.00124 29.4085 9.04473 29.4085 16.3995ZM 14.7036 2.40256L 14.7036 22.4911C 10.3439 22.3837 6.08215 21.6562 2.26156 20.3651L 2.26156 16.3995C 2.26156 9.04473 7.74863 3.00124 14.7036 2.40256ZM 15.8353 54.6627C 8.35125 54.6627 2.26156 48.3576 2.26156 40.6066L 2.26156 22.8275C 6.45792 24.1551 11.1149 24.8566 15.8353 24.8566C 20.5558 24.8566 25.2121 24.1557 29.4085 22.8275L 29.4085 40.6072C 29.4085 48.3576 23.3188 54.6627 15.8353 54.6627Z"/>
<path id="path4_fill" d="M 0.144093 10.326C 0.23379 8.46747 13.7237 -5.7933 13.7237 2.652C 13.7237 11.0973 13.7237 22.7093 13.7237 22.7093L 0 21.6536C 0 21.6536 0.0543953 12.1845 0.144093 10.326Z"/>
</defs>
</svg>
