<svg width="42" height="61" viewBox="0 0 42 61" version="1.1" xmlns="http://www.w3.org/2000/svg" xmlns:xlink="http://www.w3.org/1999/xlink" xmlns:figma="http://www.figma.com/figma/ns">
<title>Vector</title>
<desc>Created using Figma</desc>
<g id="Canvas" transform="translate(-1866 149)" figma:type="canvas">
<g id="Vector" figma:type="vector">
<use xlink:href="#path0_stroke" transform="translate(1867 -148)" fill="#F1F2F2"/>
</g>
</g>
<defs>
<path id="path0_stroke" d="M 21.126 -3.90008e-05L 21.1523 -0.499348L 21.1392 -0.500039L 21.126 -0.500039L 21.126 -3.90008e-05ZM 18.9757 -3.90008e-05L 18.9757 -0.500039L 18.9637 -0.500039L 18.9517 -0.499465L 18.9757 -3.90008e-05ZM 5.49968 5.69067L 5.15242 5.33093L 5.49968 5.69067ZM -1.03239e-14 18.3177L -0.5 18.3176L -0.5 18.3177L -1.03239e-14 18.3177ZM 7.39557 32.5486L 7.04811 32.9081L 7.062 32.9215L 7.07688 32.9338L 7.39557 32.5486ZM 9.64766 35.3441L 10.1167 35.1709L 10.1067 35.1437L 10.0935 35.1178L 9.64766 35.3441ZM 10.2434 39.3378L 9.74426 39.308L 9.74337 39.3229L 9.74337 39.3378L 10.2434 39.3378ZM 10.2434 44.6627L 9.74337 44.6627L 9.74337 45.1627L 10.2434 45.1627L 10.2434 44.6627ZM 29.7566 44.6627L 29.7566 45.1627L 30.2566 45.1627L 30.2566 44.6627L 29.7566 44.6627ZM 29.7566 39.3378L 30.2566 39.3378L 30.2566 39.3229L 30.2557 39.308L 29.7566 39.3378ZM 30.3523 35.3441L 29.9063 35.1183L 29.8933 35.1439L 29.8833 35.1709L 30.3523 35.3441ZM 32.6044 32.5486L 32.9228 32.9341L 32.9378 32.9217L 32.9519 32.9081L 32.6044 32.5486ZM 40 18.3177L 39.5 18.3176L 39.5 18.3177L 40 18.3177ZM 34.5372 5.72138L 34.189 6.08018L 34.5372 5.72138ZM 10.287 52.338L 29.7712 52.338L 29.7712 51.338L 10.287 51.338L 10.287 52.338ZM 10.287 59.5001L 29.7712 59.5001L 29.7712 58.5001L 10.287 58.5001L 10.287 59.5001ZM 21.126 -0.500039L 20.0218 -0.500039L 20.0218 0.499961L 21.126 0.499961L 21.126 -0.500039ZM 20.0218 -0.500039L 18.9757 -0.500039L 18.9757 0.499961L 20.0218 0.499961L 20.0218 -0.500039ZM 18.9517 -0.499465C 13.743 -0.242055 8.75483 1.86518 5.15242 5.33093L 5.84694 6.0504C 9.30591 2.69963 13.9649 0.733021 18.9996 0.499387L 18.9517 -0.499465ZM 5.15242 5.33093C 1.52898 8.82873 -0.499549 13.4764 -0.5 18.3176L 0.5 18.3177C 0.500425 13.7609 2.409 9.36913 5.84694 6.0504L 5.15242 5.33093ZM -0.5 18.3177C -0.5 23.8471 3.0338 29.0288 7.04811 32.9081L 7.74303 32.189C 3.79511 28.3739 0.5 23.4381 0.5 18.3177L -0.5 18.3177ZM 7.07688 32.9338C 7.98753 33.6838 8.68936 34.5547 9.20179 35.5704L 10.0935 35.1178C 9.52915 34.0118 8.69919 32.9813 7.71426 32.1633L 7.07688 32.9338ZM 9.17861 35.5173C 9.63754 36.7526 9.82457 38.0061 9.74426 39.308L 10.7425 39.3676C 10.8236 37.9618 10.6062 36.5043 10.1167 35.1709L 9.17861 35.5173ZM 9.74337 39.3378L 9.74337 44.6627L 10.7434 44.6627L 10.7434 39.3378L 9.74337 39.3378ZM 10.2434 45.1627L 29.7566 45.1627L 29.7566 44.1627L 10.2434 44.1627L 10.2434 45.1627ZM 30.2566 44.6627L 30.2566 39.3378L 29.2566 39.3378L 29.2566 44.6627L 30.2566 44.6627ZM 30.2557 39.308C 30.1754 38.0061 30.3625 36.7526 30.8214 35.5173L 29.8833 35.1709C 29.3938 36.5043 29.1764 37.9618 29.2575 39.3676L 30.2557 39.308ZM 30.7984 35.57C 31.3097 34.554 32.0114 33.6833 32.9228 32.9341L 32.2861 32.163C 31.3001 32.9804 30.4697 34.0115 29.9063 35.1183L 30.7984 35.57ZM 32.9519 32.9081C 36.9662 29.0288 40.5 23.8471 40.5 18.3177L 39.5 18.3177C 39.5 23.4381 36.2049 28.3739 32.257 32.189L 32.9519 32.9081ZM 40.5 18.3178C 40.501 13.4922 38.487 8.85796 34.8855 5.36258L 34.189 6.08018C 37.606 9.39649 39.501 13.7756 39.5 18.3176L 40.5 18.3178ZM 34.8855 5.36258C 31.3048 1.89918 26.3427 -0.218592 21.1523 -0.499348L 21.0998 0.49927C 26.1167 0.75555 30.7511 2.73188 34.189 6.08018L 34.8855 5.36258Z"/>
</defs>
</svg>
