<svg width="44" height="76" viewBox="0 0 44 76" version="1.1" xmlns="http://www.w3.org/2000/svg" xmlns:xlink="http://www.w3.org/1999/xlink" xmlns:figma="http://www.figma.com/figma/ns">
<title>Group</title>
<desc>Created using Figma</desc>
<g id="Canvas" transform="translate(-2349 1065)" figma:type="canvas">
<g id="Group" figma:type="frame">
<g id="Group" figma:type="frame">
<g id="Vector" figma:type="vector">
<use xlink:href="#path0_fill" transform="matrix(0.999704 -0.0243135 0.0243135 0.999704 2349 -1063.98)" fill="#F2F2F2"/>
</g>
<g id="Rectangle 6" figma:type="vector">
<use xlink:href="#path1_fill" transform="matrix(0.999704 -0.0243135 0.0243135 0.999704 2351.27 -1063.29)" fill="#F2F2F2"/>
</g>
</g>
</g>
</g>
<defs>
<path id="path0_fill" d="M 20.9039 -1.01586e-07C 9.37691 -1.01586e-07 -6.32874e-07 9.71229 -6.32874e-07 21.6486L -6.32874e-07 53.6049C -6.32874e-07 65.5412 9.37774 75.2527 20.9039 75.2527C 32.4301 75.2527 41.807 65.5404 41.807 53.6049L 41.807 21.6486C 41.807 9.71229 32.4301 -1.01586e-07 20.9039 -1.01586e-07ZM 38.8216 21.6486L 38.8216 26.8836C 33.7781 28.5862 28.1531 29.5484 22.3971 29.6901L 22.3971 3.17157C 31.579 3.96189 38.8216 11.9398 38.8216 21.6486ZM 19.41 3.17157L 19.41 29.6901C 13.6547 29.5484 8.02894 28.588 2.98545 26.8836L 2.98545 21.6486C 2.98545 11.9398 10.2288 3.96189 19.41 3.17157ZM 20.9039 72.1593C 11.0243 72.1593 2.98545 63.836 2.98545 53.604L 2.98545 30.1342C 8.52499 31.8867 14.6726 32.8127 20.9039 32.8127C 27.1353 32.8127 33.282 31.8875 38.8216 30.1342L 38.8216 53.6049C 38.8216 63.836 30.7827 72.1593 20.9039 72.1593Z"/>
<path id="path1_fill" d="M 0.190214 13.6311C 0.308622 11.1778 18.1164 -7.64763 18.1164 3.50086C 18.1164 14.6493 18.1164 29.9781 18.1164 29.9781L 0 28.5845C 0 28.5845 0.0718063 16.0845 0.190214 13.6311Z"/>
</defs>
</svg>
