<svg id="Layer_1" data-name="Layer 1" xmlns="http://www.w3.org/2000/svg" viewBox="0 0 30.36 30.36"><defs><style>.cls-1{fill:#f1f2f2;}</style></defs><title>object</title><path class="cls-1" d="M-304.56,682.46a1.54,1.54,0,0,1-1.1-.45L-319,668.64l4.21-4.21,13.37,13.37a1.55,1.55,0,0,1,0,2.19l-2,2A1.54,1.54,0,0,1-304.56,682.46Zm-0.32-1.23a0.45,0.45,0,0,0,.64,0l2-2a0.45,0.45,0,0,0,0-.64L-314.81,666l-2.66,2.66,12.59,12.59h0Z" transform="translate(331.35 -652.1)"/><path class="cls-1" d="M-323.95,674.5A1.54,1.54,0,0,1-325,674l-5.85-5.85a1.55,1.55,0,0,1,0-2.19l13.44-13.44a1.55,1.55,0,0,1,2.19,0l5.85,5.85a1.55,1.55,0,0,1,0,2.19L-322.85,674A1.54,1.54,0,0,1-323.95,674.5Zm7.59-21.3a0.45,0.45,0,0,0-.32.13l-13.44,13.44a0.45,0.45,0,0,0,0,.64l5.85,5.85a0.46,0.46,0,0,0,.64,0h0l13.44-13.44a0.45,0.45,0,0,0,0-.64l-5.85-5.85A0.45,0.45,0,0,0-316.36,653.2Z" transform="translate(331.35 -652.1)"/></svg>