<svg width="60" height="60" viewBox="0 0 60 60" version="1.1" xmlns="http://www.w3.org/2000/svg" xmlns:xlink="http://www.w3.org/1999/xlink" xmlns:figma="http://www.figma.com/figma/ns">
<title>Group</title>
<desc>Created using Figma</desc>
<g id="Canvas" transform="translate(-1859 293)" figma:type="canvas">
<g id="Group" figma:type="frame">
<g id="Vector" figma:type="vector">
<use xlink:href="#path0_stroke" transform="matrix(0.707145 -0.707069 0.707145 0.707069 1859 -265.039)" fill="#F1F2F2"/>
</g>
<g id="Vector" figma:type="vector">
<use xlink:href="#path1_stroke" transform="matrix(0.707145 0.707069 -0.707145 0.707069 1889.97 -268.709)" fill="#F1F2F2"/>
</g>
</g>
</g>
<defs>
<path id="path0_stroke" d="M 2.16735 0.500003L 37.3773 0.500003L 37.3773 -0.499997L 2.16735 -0.499997L 2.16735 0.500003ZM 37.3773 0.500003C 38.2981 0.500003 39.0446 1.24652 39.0446 2.16738L 40.0446 2.16738C 40.0446 0.694252 38.8504 -0.499997 37.3773 -0.499997L 37.3773 0.500003ZM 39.0446 2.16738L 39.0446 17.1613L 40.0446 17.1613L 40.0446 2.16738L 39.0446 2.16738ZM 39.0446 17.1613C 39.0446 18.0822 38.2981 18.8287 37.3773 18.8287L 37.3773 19.8287C 38.8504 19.8287 40.0446 18.6344 40.0446 17.1613L 39.0446 17.1613ZM 37.3773 18.8287L 2.16735 18.8287L 2.16735 19.8287L 37.3773 19.8287L 37.3773 18.8287ZM 2.16735 18.8287C 1.24651 18.8287 0.499999 18.0822 0.499999 17.1613L -0.500001 17.1613C -0.500001 18.6345 0.694205 19.8287 2.16735 19.8287L 2.16735 18.8287ZM 0.499999 17.1613L 0.499999 2.16738L -0.500001 2.16738L -0.500001 17.1613L 0.499999 17.1613ZM 0.499999 2.16738C 0.499999 1.24652 1.24651 0.500003 2.16735 0.500003L 2.16735 -0.499997C 0.694205 -0.499997 -0.500001 0.694252 -0.500001 2.16738L 0.499999 2.16738Z"/>
<path id="path1_stroke" d="M 1.16039e-06 3.71325e-05L 1.16039e-06 -0.499963L -0.499999 -0.499963L -0.499999 3.71325e-05L 1.16039e-06 3.71325e-05ZM 38.518 3.71325e-05L 38.518 -0.499963L 38.518 3.71325e-05ZM 39.6333 1.11533L 40.1333 1.11533L 39.6333 1.11533ZM 39.6333 8.99894L 40.1333 8.99894L 39.6333 8.99894ZM 39.177 9.45521L 39.177 9.95521L 39.177 9.45521ZM 1.16039e-06 9.45521L -0.499999 9.45521L -0.499999 9.95521L 1.16039e-06 9.95521L 1.16039e-06 9.45521ZM 1.16039e-06 0.500037L 38.518 0.500037L 38.518 -0.499963L 1.16039e-06 -0.499963L 1.16039e-06 0.500037ZM 38.518 0.500037C 38.6813 0.500037 38.8377 0.564856 38.9531 0.680202L 39.6602 -0.0269051C 39.3572 -0.329901 38.9463 -0.499963 38.518 -0.499963L 38.518 0.500037ZM 38.9531 0.680202C 39.0685 0.795606 39.1333 0.952126 39.1333 1.11533L 40.1333 1.11533C 40.1333 0.686904 39.9631 0.276032 39.6602 -0.0269051L 38.9531 0.680202ZM 39.1333 1.11533L 39.1333 8.99894L 40.1333 8.99894L 40.1333 1.11533L 39.1333 1.11533ZM 39.1333 8.99894C 39.1333 8.98737 39.1379 8.97627 39.1461 8.96805L 39.8532 9.67516C 40.0326 9.4958 40.1333 9.25254 40.1333 8.99894L 39.1333 8.99894ZM 39.1461 8.96805C 39.1544 8.95977 39.1656 8.95521 39.177 8.95521L 39.177 9.95521C 39.4305 9.95521 39.6738 9.85458 39.8532 9.67516L 39.1461 8.96805ZM 39.177 8.95521L 1.16039e-06 8.95521L 1.16039e-06 9.95521L 39.177 9.95521L 39.177 8.95521ZM 0.500001 9.45521L 0.500001 3.71325e-05L -0.499999 3.71325e-05L -0.499999 9.45521L 0.500001 9.45521Z"/>
</defs>
</svg>
