<svg id="Layer_1" data-name="Layer 1" xmlns="http://www.w3.org/2000/svg" viewBox="0 0 43.59 43.59"><defs><style>.cls-1{fill:#f1f2f2;}</style></defs><title>settings</title><path class="cls-1" d="M-1044.54,939.32a1,1,0,0,0-.94.74l-1.21,5.22c-0.31.12-.61,0.24-0.91,0.38l-4.54-2.85a1,1,0,0,0-1.2.14l-5.48,5.48a1,1,0,0,0-.14,1.21l2.83,4.54c-0.13.3-.26,0.6-0.38,0.91l-5.21,1.2a1,1,0,0,0-.76,1V965a1,1,0,0,0,.76.94l5.21,1.2c0.12,0.31.26,0.62,0.39,0.92l-2.85,4.54a1,1,0,0,0,.14,1.2l5.48,5.48a1,1,0,0,0,1.2.14l4.54-2.85c0.3,0.13.6,0.26,0.91,0.38l1.21,5.22a1,1,0,0,0,.94.76h7.75a1,1,0,0,0,.94-0.76l1.21-5.22c0.31-.12.61-0.24,0.91-0.38l4.54,2.85a1,1,0,0,0,1.2-.14l5.48-5.48a1,1,0,0,0,.14-1.2l-2.85-4.54c0.14-.3.28-0.61,0.39-0.92l5.21-1.2a1,1,0,0,0,.76-0.94v-7.75a1,1,0,0,0-.76-1l-5.21-1.2c-0.12-.31-0.25-0.61-0.38-0.91l2.83-4.54a1,1,0,0,0-.14-1.21l-5.48-5.48a1,1,0,0,0-1.2-.14l-4.54,2.85c-0.3-.13-0.6-0.26-0.91-0.38l-1.21-5.22a1,1,0,0,0-.94-0.74h-7.75Zm0.76,1.94h6.24l1.14,4.95a1,1,0,0,0,.62.7,15.06,15.06,0,0,1,1.73.71,1,1,0,0,0,.94,0l4.31-2.69,4.39,4.39-2.69,4.31a1,1,0,0,0,0,.94,14.75,14.75,0,0,1,.7,1.71,1,1,0,0,0,.71.64l4.95,1.14v6.22l-4.95,1.14a1,1,0,0,0-.71.64,14.75,14.75,0,0,1-.7,1.71,1,1,0,0,0,0,1l2.69,4.3-4.39,4.39-4.31-2.69a1,1,0,0,0-.94,0,15,15,0,0,1-1.73.71,1,1,0,0,0-.62.7l-1.15,5h-6.21l-1.15-5a1,1,0,0,0-.62-0.7,15.05,15.05,0,0,1-1.73-.71,1,1,0,0,0-.94,0l-4.31,2.69-4.39-4.39,2.69-4.3a1,1,0,0,0,0-1,14.75,14.75,0,0,1-.7-1.71,1,1,0,0,0-.71-0.64l-4.95-1.14V958l4.95-1.14a1,1,0,0,0,.71-0.64,14.75,14.75,0,0,1,.7-1.71,1,1,0,0,0,0-.94l-2.69-4.31,4.39-4.39,4.31,2.69a1,1,0,0,0,.94,0,15.06,15.06,0,0,1,1.73-.71,1,1,0,0,0,.62-0.7l1.14-4.95h0Zm3.12,9.2a10.67,10.67,0,0,0-10.66,10.66,10.67,10.67,0,0,0,10.66,10.66A10.67,10.67,0,0,0-1030,961.11a10.67,10.67,0,0,0-10.66-10.66h0Zm0,1.94a8.7,8.7,0,0,1,8.72,8.72,8.7,8.7,0,0,1-8.72,8.72,8.7,8.7,0,0,1-8.72-8.72A8.7,8.7,0,0,1-1040.67,952.39Z" transform="translate(1062.46 -939.32)"/></svg>