<svg width="59" height="59" viewBox="0 0 59 59" version="1.1" xmlns="http://www.w3.org/2000/svg" xmlns:xlink="http://www.w3.org/1999/xlink" xmlns:figma="http://www.figma.com/figma/ns">
<title>Vector</title>
<desc>Created using Figma</desc>
<g id="Canvas" transform="translate(-1854 4)" figma:type="canvas">
<g id="Vector" figma:type="vector">
<use xlink:href="#path0_fill" transform="translate(1854 -4)" fill="#F1F2F2"/>
</g>
</g>
<defs>
<path id="path0_fill" d="M 24.0918 8.61595e-05C 23.9457 0.00448679 23.8048 0.0548583 23.6893 0.144207C 23.5738 0.233557 23.4896 0.357182 23.4489 0.497265L 21.7774 8.05267C 21.1346 8.27725 20.5078 8.56599 19.881 8.85473L 13.2754 4.7322C 13.1432 4.65624 12.9896 4.62612 12.8384 4.64643C 12.6872 4.66674 12.547 4.73626 12.4397 4.8444L 4.83765 12.4321C 4.73436 12.5431 4.67053 12.6847 4.65601 12.8355C 4.64149 12.9863 4.67708 13.1375 4.75729 13.2661L 8.8717 19.8432C 8.58241 20.4688 8.32526 21.0783 8.10025 21.736L 0.53038 23.4686C 0.378818 23.5047 0.243952 23.5908 0.147674 23.7131C 0.0513964 23.8354 -0.000641002 23.9866 7.20947e-06 24.1422L 7.20947e-06 34.8579C 0.00640965 35.0078 0.0616633 35.1515 0.157383 35.2673C 0.253102 35.3831 0.38406 35.4648 0.53038 35.4996L 8.10025 37.2319C 8.34133 37.8736 8.58241 38.5152 8.8717 39.1408L 4.75729 45.7179C 4.68096 45.8448 4.64756 45.9927 4.66204 46.1401C 4.67651 46.2874 4.73808 46.4261 4.83765 46.5358L 12.4397 54.1235C 12.547 54.2317 12.6872 54.3012 12.8384 54.3215C 12.9896 54.3418 13.1432 54.3117 13.2754 54.2357L 19.881 50.1132C 20.4917 50.4019 21.1346 50.6746 21.7774 50.9152L 23.5132 58.4706C 23.5481 58.6167 23.6297 58.7474 23.7457 58.8429C 23.8617 58.9384 24.0058 58.9935 24.1561 58.9999L 34.8921 58.9999C 35.0424 58.9935 35.1865 58.9384 35.3025 58.8429C 35.4185 58.7474 35.5002 58.6167 35.535 58.4706L 37.2708 50.9152C 37.9136 50.6907 38.5404 50.4019 39.1673 50.1132L 45.7246 54.2518C 45.8568 54.3277 46.0104 54.3578 46.1616 54.3375C 46.3128 54.3172 46.453 54.2477 46.5603 54.1396L 54.1624 46.5519C 54.2619 46.4421 54.3235 46.3034 54.338 46.1561C 54.3524 46.0088 54.319 45.8606 54.2427 45.7337L 50.1283 39.1568C 50.4176 38.5312 50.6747 37.8897 50.8997 37.248L 58.4696 35.5154C 58.6159 35.4806 58.7469 35.3992 58.8426 35.2834C 58.9383 35.1676 58.9936 35.0239 59 34.8739L 59 24.1582C 59.0006 24.0027 58.9486 23.8515 58.8523 23.7292C 58.756 23.6069 58.6212 23.5206 58.4696 23.4844L 50.8997 21.752C 50.6587 21.1104 50.4176 20.4849 50.1283 19.8593L 54.2427 13.2822C 54.3229 13.1536 54.3585 13.0023 54.344 12.8516C 54.3295 12.7008 54.2656 12.5589 54.1624 12.448L 46.5603 4.86046C 46.453 4.75231 46.3128 4.6828 46.1616 4.66249C 46.0104 4.64218 45.8568 4.67229 45.7246 4.74826L 39.119 8.87079C 38.5083 8.58205 37.8654 8.30935 37.2226 8.06873L 35.4868 0.513322C 35.4461 0.373239 35.3619 0.249614 35.2464 0.160264C 35.1309 0.0709153 34.99 0.020348 34.8439 0.0159473L 24.0918 0.0159473L 24.0918 8.61595e-05ZM 24.6222 1.3475L 34.2653 1.3475L 35.9689 8.72647C 35.9963 8.83601 36.0502 8.93708 36.1258 9.02098C 36.2015 9.10489 36.2966 9.16914 36.4029 9.20779C 37.2429 9.49312 38.0642 9.83066 38.8619 10.2184C 38.961 10.2704 39.0713 10.2975 39.1833 10.2975C 39.2953 10.2975 39.4056 10.2704 39.5048 10.2184L 45.9335 6.19201L 52.7962 13.0417L 48.7622 19.4582C 48.7101 19.5572 48.6829 19.6672 48.6829 19.779C 48.6829 19.8907 48.7101 20.0008 48.7622 20.0997C 49.1559 20.8957 49.4994 21.7154 49.7908 22.5541C 49.8295 22.6602 49.8937 22.7551 49.9778 22.8306C 50.0619 22.9061 50.1632 22.9599 50.2729 22.9872L 57.666 24.6875L 57.666 34.3123L 50.2729 36.0128C 50.1632 36.0401 50.0619 36.0939 49.9778 36.1694C 49.8937 36.245 49.8295 36.3399 49.7908 36.4459C 49.4993 37.2898 49.1558 38.1147 48.7622 38.9162C 48.7101 39.0151 48.6829 39.1253 48.6829 39.2371C 48.6829 39.3489 48.7101 39.4589 48.7622 39.5579L 52.7641 45.9744L 45.9175 52.808L 39.4887 48.7816C 39.3896 48.7296 39.2792 48.7025 39.1673 48.7025C 39.0553 48.7025 38.945 48.7296 38.8458 48.7816C 38.0481 49.1694 37.2268 49.5069 36.3868 49.7922C 36.2806 49.8309 36.1854 49.8949 36.1098 49.9788C 36.0341 50.0628 35.9802 50.164 35.9529 50.2736L 34.2492 57.6686L 24.6061 57.6686L 22.9025 50.2736C 22.8751 50.164 22.8213 50.0628 22.7456 49.9788C 22.6699 49.8949 22.5748 49.8309 22.4685 49.7922C 21.6285 49.5069 20.8073 49.1694 20.0095 48.7816C 19.9104 48.7296 19.8001 48.7025 19.6881 48.7025C 19.5761 48.7025 19.4658 48.7296 19.3667 48.7816L 12.9379 52.808L 6.09126 45.9744L 10.0932 39.5579C 10.1453 39.4589 10.1725 39.3489 10.1725 39.2371C 10.1725 39.1253 10.1453 39.0151 10.0932 38.9162C 9.69958 38.1147 9.35606 37.2898 9.06456 36.4459C 9.02584 36.3399 8.96163 36.245 8.87756 36.1694C 8.7935 36.0939 8.69215 36.0401 8.58241 36.0128L 1.18933 34.3123L 1.18933 24.6875L 8.58241 22.9872C 8.69215 22.9599 8.7935 22.9061 8.87756 22.8306C 8.96163 22.7551 9.02584 22.6602 9.06456 22.5541C 9.3559 21.7154 9.69944 20.8957 10.0932 20.0997C 10.1453 20.0008 10.1725 19.8907 10.1725 19.779C 10.1725 19.6672 10.1453 19.5572 10.0932 19.4582L 6.05912 13.0417L 12.9218 6.19201L 19.3506 10.2184C 19.4497 10.2704 19.56 10.2975 19.672 10.2975C 19.784 10.2975 19.8943 10.2704 19.9935 10.2184C 20.7912 9.83066 21.6125 9.49312 22.4525 9.20779C 22.5587 9.16914 22.6539 9.10489 22.7295 9.02098C 22.8052 8.93708 22.8591 8.83601 22.8864 8.72647L 24.59 1.3475L 24.6222 1.3475ZM 29.4437 15.4158C 26.656 15.4158 23.9309 16.2409 21.6129 17.7867C 19.295 19.3326 17.4884 21.5296 16.4216 24.1003C 15.3548 26.6709 15.0757 29.4997 15.6195 32.2286C 16.1634 34.9576 17.5058 37.4643 19.477 39.4318C 21.4483 41.3992 23.9598 42.7391 26.6939 43.2819C 29.4281 43.8247 32.2622 43.5462 34.8377 42.4814C 37.4132 41.4166 39.6146 39.6134 41.1634 37.2999C 42.7122 34.9864 43.5388 32.2665 43.5388 29.4841C 43.5346 25.757 42.0504 22.1835 39.4115 19.5465C 36.7725 16.9096 33.194 15.4243 29.4598 15.4158L 29.4437 15.4158ZM 29.4437 16.7632C 31.9677 16.7632 34.4349 17.5102 36.5334 18.9097C 38.632 20.3093 40.2676 22.2985 41.2335 24.6258C 42.1993 26.9532 42.452 29.5141 41.9596 31.9848C 41.4673 34.4555 40.2519 36.725 38.4672 38.5063C 36.6825 40.2876 34.4087 41.5006 31.9333 41.9921C 29.4579 42.4835 26.8921 42.2314 24.5603 41.2673C 22.2285 40.3033 20.2355 38.6707 18.8333 36.5762C 17.4311 34.4816 16.6827 32.019 16.6827 29.4999C 16.6784 27.824 17.006 26.1638 17.6466 24.6147C 18.2872 23.0655 19.2282 21.658 20.4155 20.4729C 21.6029 19.2879 23.0131 18.3486 24.5652 17.7092C 26.1173 17.0698 27.7807 16.7429 29.4598 16.7471L 29.4437 16.7632Z"/>
</defs>
</svg>
