<svg width="59" height="59" viewBox="0 0 59 59" version="1.1" xmlns="http://www.w3.org/2000/svg" xmlns:xlink="http://www.w3.org/1999/xlink" xmlns:figma="http://www.figma.com/figma/ns">
<title>Group</title>
<desc>Created using Figma</desc>
<g id="Canvas" transform="translate(-1859 -147)" figma:type="canvas">
<g id="Group" figma:type="frame">
<g id="Rectangle 4" figma:type="rounded-rectangle">
<mask id="mask0_outline_ins">
<use xlink:href="#path0_fill" fill="white" transform="translate(1859 147)"/>
</mask>
<g mask="url(#mask0_outline_ins)">
<use xlink:href="#path1_stroke_2x" transform="translate(1859 147)" fill="#F2F2F2"/>
</g>
</g>
<g id="Rectangle 4" figma:type="rounded-rectangle">
<mask id="mask1_outline_ins">
<use xlink:href="#path2_fill" fill="white" transform="translate(1908.4 162.452)"/>
</mask>
<g mask="url(#mask1_outline_ins)">
<use xlink:href="#path3_stroke_2x" transform="translate(1908.4 162.452)" fill="#F2F2F2"/>
</g>
</g>
<g id="Rectangle 4" figma:type="rounded-rectangle">
<mask id="mask2_outline_ins">
<use xlink:href="#path2_fill" fill="white" transform="translate(1875.46 162.452)"/>
</mask>
<g mask="url(#mask2_outline_ins)">
<use xlink:href="#path3_stroke_2x" transform="translate(1875.46 162.452)" fill="#F2F2F2"/>
</g>
</g>
<g id="Rectangle 4" figma:type="rounded-rectangle">
<mask id="mask3_outline_ins">
<use xlink:href="#path4_fill" fill="white" transform="translate(1891.93 179.31)"/>
</mask>
<g mask="url(#mask3_outline_ins)">
<use xlink:href="#path5_stroke_2x" transform="translate(1891.93 179.31)" fill="#F2F2F2"/>
</g>
</g>
</g>
</g>
<defs>
<path id="path0_fill" d="M 0 3C 0 1.34315 1.34315 0 3 0L 6.60465 0C 8.26151 0 9.60465 1.34315 9.60465 3L 9.60465 56C 9.60465 57.6568 8.26151 59 6.60465 59L 3 59C 1.34315 59 0 57.6568 0 56L 0 3Z"/>
<path id="path1_stroke_2x" d="M 3 1L 6.60465 1L 6.60465 -1L 3 -1L 3 1ZM 8.60465 3L 8.60465 56L 10.6047 56L 10.6047 3L 8.60465 3ZM 6.60465 58L 3 58L 3 60L 6.60465 60L 6.60465 58ZM 1 56L 1 3L -1 3L -1 56L 1 56ZM 3 -1C 0.790861 -1 -1 0.790861 -1 3L 1 3C 1 1.89543 1.89543 1 3 1L 3 -1ZM 6.60465 1C 7.70922 1 8.60465 1.89543 8.60465 3L 10.6047 3C 10.6047 0.790861 8.81379 -1 6.60465 -1L 6.60465 1ZM 8.60465 56C 8.60465 57.1046 7.70922 58 6.60465 58L 6.60465 60C 8.81379 60 10.6047 58.2091 10.6047 56L 8.60465 56ZM 3 58C 1.89543 58 1 57.1046 1 56L -1 56C -1 58.2091 0.790861 60 3 60L 3 58Z"/>
<path id="path2_fill" d="M 0 3C 0 1.34315 1.34315 0 3 0L 6.60465 0C 8.26151 0 9.60465 1.34315 9.60465 3L 9.60465 40.5476C 9.60465 42.2045 8.26151 43.5476 6.60465 43.5476L 3 43.5476C 1.34315 43.5476 0 42.2045 0 40.5476L 0 3Z"/>
<path id="path3_stroke_2x" d="M 3 1L 6.60465 1L 6.60465 -1L 3 -1L 3 1ZM 8.60465 3L 8.60465 40.5476L 10.6047 40.5476L 10.6047 3L 8.60465 3ZM 6.60465 42.5476L 3 42.5476L 3 44.5476L 6.60465 44.5476L 6.60465 42.5476ZM 1 40.5476L 1 3L -1 3L -1 40.5476L 1 40.5476ZM 3 -1C 0.790861 -1 -1 0.790861 -1 3L 1 3C 1 1.89543 1.89543 1 3 1L 3 -1ZM 6.60465 1C 7.70922 1 8.60465 1.89543 8.60465 3L 10.6047 3C 10.6047 0.790861 8.81379 -1 6.60465 -1L 6.60465 1ZM 8.60465 40.5476C 8.60465 41.6522 7.70922 42.5476 6.60465 42.5476L 6.60465 44.5476C 8.81379 44.5476 10.6047 42.7568 10.6047 40.5476L 8.60465 40.5476ZM 3 42.5476C 1.89543 42.5476 1 41.6522 1 40.5476L -1 40.5476C -1 42.7568 0.790861 44.5476 3 44.5476L 3 42.5476Z"/>
<path id="path4_fill" d="M 0 3C 0 1.34315 1.34315 0 3 0L 6.60465 0C 8.26151 0 9.60465 1.34315 9.60465 3L 9.60465 23.6905C 9.60465 25.3473 8.26151 26.6905 6.60465 26.6905L 3 26.6905C 1.34315 26.6905 0 25.3473 0 23.6905L 0 3Z"/>
<path id="path5_stroke_2x" d="M 3 1L 6.60465 1L 6.60465 -1L 3 -1L 3 1ZM 8.60465 3L 8.60465 23.6905L 10.6047 23.6905L 10.6047 3L 8.60465 3ZM 6.60465 25.6905L 3 25.6905L 3 27.6905L 6.60465 27.6905L 6.60465 25.6905ZM 1 23.6905L 1 3L -1 3L -1 23.6905L 1 23.6905ZM 3 -1C 0.790861 -1 -1 0.790861 -1 3L 1 3C 1 1.89543 1.89543 1 3 1L 3 -1ZM 6.60465 1C 7.70922 1 8.60465 1.89543 8.60465 3L 10.6047 3C 10.6047 0.790861 8.81379 -1 6.60465 -1L 6.60465 1ZM 8.60465 23.6905C 8.60465 24.795 7.70922 25.6905 6.60465 25.6905L 6.60465 27.6905C 8.81379 27.6905 10.6047 25.8996 10.6047 23.6905L 8.60465 23.6905ZM 3 25.6905C 1.89543 25.6905 1 24.795 1 23.6905L -1 23.6905C -1 25.8996 0.790861 27.6905 3 27.6905L 3 25.6905Z"/>
</defs>
</svg>
