<svg id="Layer_1" data-name="Layer 1" xmlns="http://www.w3.org/2000/svg" viewBox="0 0 60 60"><defs><style>.cls-1{fill:#fff;}</style></defs><title>stopwatch</title><path class="cls-1" d="M-214,274a1,1,0,0,0-1,1v13.29a1,1,0,0,0,1,1,1,1,0,0,0,1-1V276a28,28,0,0,1,27,28,28,28,0,0,1-28,28,28,28,0,0,1-28-28,27.82,27.82,0,0,1,8.17-19.76,1,1,0,0,0,0-1.41,1,1,0,0,0-1.41,0A29.81,29.81,0,0,0-244,304a30,30,0,0,0,30,30,30,30,0,0,0,30-30A30,30,0,0,0-214,274Z" transform="translate(244 -274)"/><path class="cls-1" d="M-215.44,307.53a3.56,3.56,0,0,0,2.6,1.46h0.28a3.56,3.56,0,0,0,2.52-1,3.56,3.56,0,0,0,1-2.8,3.56,3.56,0,0,0-1.46-2.61l-12.94-9.36a1,1,0,0,0-1.29.1,1,1,0,0,0-.1,1.29Zm3.8-3.36a1.56,1.56,0,0,1,.64,1.14,1.56,1.56,0,0,1-.45,1.23,1.58,1.58,0,0,1-1.23.45,1.56,1.56,0,0,1-1.14-.64l-5.71-7.9Z" transform="translate(244 -274)"/></svg>
