<svg id="Layer_1" data-name="Layer 1" xmlns="http://www.w3.org/2000/svg" viewBox="0 0 25.6 25.68"><defs><style>.cls-1{fill:#f1f2f2;}</style></defs><title>texture</title><path class="cls-1" d="M-690.4,586.39h-9.35a1.5,1.5,0,0,1-1.5-1.5v-9.35a1.5,1.5,0,0,1,1.5-1.5h9.35a1.5,1.5,0,0,1,1.5,1.5v9.35A1.5,1.5,0,0,1-690.4,586.39ZM-699.75,575a0.5,0.5,0,0,0-.5.5v9.35a0.5,0.5,0,0,0,.5.5h9.35a0.5,0.5,0,0,0,.5-0.5v-9.35a0.5,0.5,0,0,0-.5-0.5h-9.35Z" transform="translate(701.25 -560.71)"/><path class="cls-1" d="M-677.15,586.39h-9.35a1.5,1.5,0,0,1-1.5-1.5v-9.35a1.5,1.5,0,0,1,1.5-1.5h9.35a1.5,1.5,0,0,1,1.5,1.5v9.35A1.5,1.5,0,0,1-677.15,586.39ZM-686.5,575a0.5,0.5,0,0,0-.5.5v9.35a0.5,0.5,0,0,0,.5.5h9.35a0.5,0.5,0,0,0,.5-0.5v-9.35a0.5,0.5,0,0,0-.5-0.5h-9.35Z" transform="translate(701.25 -560.71)"/><path class="cls-1" d="M-677.15,573.06h-9.35a1.5,1.5,0,0,1-1.5-1.5v-9.35a1.5,1.5,0,0,1,1.5-1.5h9.35a1.5,1.5,0,0,1,1.5,1.5v9.35A1.5,1.5,0,0,1-677.15,573.06Zm-9.35-11.35a0.5,0.5,0,0,0-.5.5v9.35a0.5,0.5,0,0,0,.5.5h9.35a0.5,0.5,0,0,0,.5-0.5v-9.35a0.5,0.5,0,0,0-.5-0.5h-9.35Z" transform="translate(701.25 -560.71)"/></svg>