<svg width="61" height="61" viewBox="0 0 61 61" version="1.1" xmlns="http://www.w3.org/2000/svg" xmlns:xlink="http://www.w3.org/1999/xlink" xmlns:figma="http://www.figma.com/figma/ns">
<title>Group</title>
<desc>Created using Figma</desc>
<g id="Canvas" transform="translate(-1858 445)" figma:type="canvas">
<g id="Group" figma:type="frame">
<g id="Vector" figma:type="vector">
<use xlink:href="#path0_stroke" transform="translate(1890.34 -444)" fill="#FFFFFF"/>
</g>
<g id="Vector" figma:type="vector">
<use xlink:href="#path1_stroke" transform="translate(1890.34 -413.213)" fill="#FFFFFF"/>
</g>
<g id="Vector" figma:type="vector">
<use xlink:href="#path2_stroke" transform="translate(1859 -413.213)" fill="#FFFFFF"/>
</g>
</g>
</g>
<defs>
<style>
    #all:hover ~ #all path{
        margin-left: 10px;
    }
</style>
<g id="all">
    <path id="path0_stroke" d="M 2.69899 0.5L 24.9657 0.5L 24.9657 -0.5L 2.69899 -0.5L 2.69899 0.5ZM 24.9657 0.5C 26.1832 0.5 27.1647 1.47984 27.1647 2.68182L 28.1647 2.68182C 28.1647 0.921543 26.7294 -0.5 24.9657 -0.5L 24.9657 0.5ZM 27.1647 2.68182L 27.1647 24.9007L 28.1647 24.9007L 28.1647 2.68182L 27.1647 2.68182ZM 27.1647 24.9007C 27.1647 26.1026 26.1832 27.0825 24.9657 27.0825L 24.9657 28.0825C 26.7294 28.0825 28.1647 26.6609 28.1647 24.9007L 27.1647 24.9007ZM 24.9657 27.0825L 2.69899 27.0825L 2.69899 28.0825L 24.9657 28.0825L 24.9657 27.0825ZM 2.69899 27.0825C 1.48151 27.0825 0.500001 26.1026 0.500001 24.9007L -0.499999 24.9007C -0.499999 26.6609 0.935252 28.0825 2.69899 28.0825L 2.69899 27.0825ZM 0.500001 24.9007L 0.500001 2.68182L -0.499999 2.68182L -0.499999 24.9007L 0.500001 24.9007ZM 0.500001 2.68182C 0.500001 1.47984 1.48151 0.5 2.69899 0.5L 2.69899 -0.5C 0.935252 -0.5 -0.499999 0.921543 -0.499999 2.68182L 0.500001 2.68182Z"/>
    <path id="path1_stroke" d="M 2.69899 0.499999L 24.9657 0.499999L 24.9657 -0.500001L 2.69899 -0.500001L 2.69899 0.499999ZM 24.9657 0.499999C 26.1832 0.499999 27.1647 1.47984 27.1647 2.68182L 28.1647 2.68182C 28.1647 0.921542 26.7294 -0.500001 24.9657 -0.500001L 24.9657 0.499999ZM 27.1647 2.68182L 27.1647 25.5309L 28.1647 25.5309L 28.1647 2.68182L 27.1647 2.68182ZM 27.1647 25.5309C 27.1647 26.7329 26.1832 27.7127 24.9657 27.7127L 24.9657 28.7127C 26.7294 28.7127 28.1647 27.2912 28.1647 25.5309L 27.1647 25.5309ZM 24.9657 27.7127L 2.69899 27.7127L 2.69899 28.7127L 24.9657 28.7127L 24.9657 27.7127ZM 2.69899 27.7127C 1.48151 27.7127 0.500001 26.7329 0.500001 25.5309L -0.499999 25.5309C -0.499999 27.2912 0.935252 28.7127 2.69899 28.7127L 2.69899 27.7127ZM 0.500001 25.5309L 0.500001 2.68182L -0.499999 2.68182L -0.499999 25.5309L 0.500001 25.5309ZM 0.500001 2.68182C 0.500001 1.47984 1.48151 0.499999 2.69899 0.499999L 2.69899 -0.500001C 0.935252 -0.500001 -0.499999 0.921542 -0.499999 2.68182L 0.500001 2.68182Z"/>
    <path id="path2_stroke" d="M 2.69899 0.499999L 24.9657 0.499999L 24.9657 -0.500001L 2.69899 -0.500001L 2.69899 0.499999ZM 24.9657 0.499999C 26.1832 0.499999 27.1647 1.47984 27.1647 2.68182L 28.1647 2.68182C 28.1647 0.921542 26.7294 -0.500001 24.9657 -0.500001L 24.9657 0.499999ZM 27.1647 2.68182L 27.1647 25.5309L 28.1647 25.5309L 28.1647 2.68182L 27.1647 2.68182ZM 27.1647 25.5309C 27.1647 26.7329 26.1832 27.7127 24.9657 27.7127L 24.9657 28.7127C 26.7294 28.7127 28.1647 27.2912 28.1647 25.5309L 27.1647 25.5309ZM 24.9657 27.7127L 2.69899 27.7127L 2.69899 28.7127L 24.9657 28.7127L 24.9657 27.7127ZM 2.69899 27.7127C 1.48151 27.7127 0.5 26.7329 0.5 25.5309L -0.5 25.5309C -0.5 27.2912 0.935251 28.7127 2.69899 28.7127L 2.69899 27.7127ZM 0.5 25.5309L 0.5 2.68182L -0.5 2.68182L -0.5 25.5309L 0.5 25.5309ZM 0.5 2.68182C 0.5 1.47984 1.48151 0.499999 2.69899 0.499999L 2.69899 -0.500001C 0.935251 -0.500001 -0.5 0.921542 -0.5 2.68182L 0.5 2.68182Z"/>
</g>
</defs>
</svg>
