<svg id="Layer_1" data-name="Layer 1" xmlns="http://www.w3.org/2000/svg" viewBox="0 0 56.18 55.19"><defs><style>.cls-1{fill:none;stroke:#66bb6a;stroke-miterlimit:10;stroke-width:2px;}</style></defs><title>timer</title><path class="cls-1" d="M-504.92,796.08c-2.72,0-5.43,0-8.15,0-0.72,0-.89-0.19-0.83-0.9,0.2-2.33.29-4.67,0.49-7,0.06-.75-0.13-0.95-0.88-0.94-5.62,0-11.24,0-16.87,0s-11.24,0-16.87,0c-0.76,0-1,.15-1,1q0.14,3.51.48,7c0.07,0.75-.13.88-0.82,0.87-2.65,0-5.31,0-8,0-0.74,0-1.07.13-1,1,0.11,1.4.07,2.81,0.19,4.21a25.77,25.77,0,0,0,4.22,12.7c3.32,4.8,8,7.57,13.54,9a4.26,4.26,0,0,1,2,1.06,10.28,10.28,0,0,0,4,2.38c1.5,0.5,1.46.5,1.5,2.1a5.08,5.08,0,0,1-1.09,3.93,10.43,10.43,0,0,1-1.92,1.63,19.1,19.1,0,0,1-8.7,3.12,1.62,1.62,0,0,0-1.65,1.47,1.63,1.63,0,0,0,1.15,1.72,5.58,5.58,0,0,0,1.21.08h14.43c3.84,0,7.68,0,11.52,0a1.64,1.64,0,0,0,1.73-1.59,1.67,1.67,0,0,0-1.67-1.66,19.43,19.43,0,0,1-8.39-2.9c-2.29-1.37-3.72-3.2-3.32-6.05a2.85,2.85,0,0,0,0-.75,0.68,0.68,0,0,1,.68-0.86,9.51,9.51,0,0,0,4.64-2.48,5.12,5.12,0,0,1,2.34-1.22c6.69-1.82,12-5.49,15-11.88,2.2-4.54,2.75-9.41,2.72-14.38C-504.13,796-504.52,796.08-504.92,796.08Zm-46.47,15.65a22.41,22.41,0,0,1-3.35-10.66c-0.14-1.72-.1-1.72,1.64-1.72,1.47,0,2.93,0,4.4,0a0.61,0.61,0,0,1,.75.65A61.52,61.52,0,0,0-544,815.12c0.5,1.19,1.08,2.36,1.69,3.67A18.61,18.61,0,0,1-551.39,811.73Zm43.86-11.84c-0.38,5.13-1.54,10-5.1,13.94a20,20,0,0,1-7.51,5,53.49,53.49,0,0,0,5.23-16c0.17-1,.34-2,0.46-3a0.5,0.5,0,0,1,.59-0.53q2.9,0,5.81,0A0.43,0.43,0,0,1-507.53,799.89Z" transform="translate(559.3 -786.25)"/></svg>