<svg id="Layer_1" data-name="Layer 1" xmlns="http://www.w3.org/2000/svg" viewBox="0 0 23.05 23.89"><defs><style>.cls-1{fill:#f2f2f2;}</style></defs><title>timer</title><path id="path0_fill" data-name="path0 fill" class="cls-1" d="M-79.39,307.56a1.13,1.13,0,0,0-1.11-.83,1.22,1.22,0,0,0-1.18,1.18,1.22,1.22,0,0,0,1.18,1.18,1.3,1.3,0,0,0,1.11-.76,10.84,10.84,0,0,1,9.72,10.76A10.85,10.85,0,0,1-80.5,329.92a10.85,10.85,0,0,1-10.83-10.83,0.33,0.33,0,0,0-.35-0.35,0.33,0.33,0,0,0-.35.35A11.54,11.54,0,0,0-80.5,330.61,11.5,11.5,0,0,0-69,319.08,11.6,11.6,0,0,0-79.39,307.56Zm-1.11.83A0.47,0.47,0,0,1-81,307.9a0.47,0.47,0,0,1,.49-0.49,0.47,0.47,0,0,1,.49.49A0.47,0.47,0,0,1-80.5,308.39Z" transform="translate(92.03 -306.72)"/><path id="path1_fill" data-name="path1 fill" class="cls-1" d="M-80.5,317.83A1.22,1.22,0,0,0-81.68,319a1.22,1.22,0,0,0,1.18,1.18A1.22,1.22,0,0,0-79.32,319,1.22,1.22,0,0,0-80.5,317.83Zm0,1.67A0.47,0.47,0,0,1-81,319a0.47,0.47,0,0,1,.49-0.49A0.47,0.47,0,0,1-80,319,0.47,0.47,0,0,1-80.5,319.5Z" transform="translate(92.03 -306.72)"/><path id="path2_fill" data-name="path2 fill" class="cls-1" d="M-78.9,317.91l4.79-4.79a0.34,0.34,0,0,0,0-.49,0.34,0.34,0,0,0-.49,0l-4.79,4.79a0.34,0.34,0,0,0,0,.49,0.34,0.34,0,0,0,.28.07A0.2,0.2,0,0,0-78.9,317.91Z" transform="translate(92.03 -306.72)"/></svg>