<svg width="59" height="59" viewBox="0 0 59 59" version="1.1" xmlns="http://www.w3.org/2000/svg" xmlns:xlink="http://www.w3.org/1999/xlink" xmlns:figma="http://www.figma.com/figma/ns">
<title>noun_690495_cc</title>
<desc>Created using Figma</desc>
<g id="Canvas" transform="translate(-1704 -146)" figma:type="canvas">
<g id="noun_690495_cc" figma:type="frame">
<g id="Vector" figma:type="vector">
<use xlink:href="#path0_fill" transform="translate(1704 146)" fill="#F2F2F2"/>
</g>
<g id="Vector" figma:type="vector">
<use xlink:href="#path1_fill" transform="translate(1730.48 173.442)" fill="#F2F2F2"/>
</g>
<g id="Vector" figma:type="vector">
<use xlink:href="#path2_fill" transform="translate(1736.08 160.321)" fill="#F2F2F2"/>
</g>
</g>
</g>
<defs>
<path id="path0_fill" d="M 32.3434 2.05814C 31.988 0.857558 30.9217 3.27132e-07 29.5 3.27132e-07C 27.9006 3.27132e-07 26.4789 1.37209 26.4789 2.9157C 26.4789 4.4593 27.9006 5.83139 29.5 5.83139C 30.744 5.83139 31.8102 4.97384 32.3434 3.94477C 46.3825 5.31686 57.2229 16.8081 57.2229 30.5291C 57.2229 45.2791 44.7831 57.2849 29.5 57.2849C 14.2169 57.2849 1.77711 45.2791 1.77711 30.5291C 1.77711 30.0145 1.42169 29.6715 0.888554 29.6715C 0.355421 29.6715 -6.77913e-07 30.0145 -6.77913e-07 30.5291C -6.77913e-07 46.1366 13.1506 59 29.5 59C 45.8494 59 59 46.3081 59 30.5291C 59 15.7791 47.2711 3.43023 32.3434 2.05814ZM 29.5 4.11628C 28.7892 4.11628 28.256 3.60174 28.256 2.9157C 28.256 2.22965 28.7892 1.71512 29.5 1.71512C 30.2108 1.71512 30.744 2.22965 30.744 2.9157C 30.744 3.60174 30.2108 4.11628 29.5 4.11628Z"/>
<path id="path1_fill" d="M 3.02108 -1.30853e-06C 1.42169 -1.30853e-06 -1.35583e-06 1.37209 -1.35583e-06 2.9157C -1.35583e-06 4.4593 1.42169 5.8314 3.02108 5.8314C 4.62048 5.8314 6.04217 4.4593 6.04217 2.9157C 6.04217 1.37209 4.62048 -1.30853e-06 3.02108 -1.30853e-06ZM 3.02108 4.11628C 2.31024 4.11628 1.77711 3.60174 1.77711 2.9157C 1.77711 2.22965 2.31024 1.71511 3.02108 1.71511C 3.73193 1.71511 4.26506 2.22965 4.26506 2.9157C 4.26506 3.60174 3.73193 4.11628 3.02108 4.11628Z"/>
<path id="path2_fill" d="M 1.51054 13.2921L 13.7726 1.45785C 14.128 1.11483 14.128 0.600289 13.7726 0.257266C 13.4172 -0.0857571 12.884 -0.0857571 12.5286 0.257266L 0.266567 12.0916C -0.0888548 12.4346 -0.0888548 12.9491 0.266567 13.2921C 0.444278 13.4637 0.621988 13.4637 0.97741 13.4637C 1.33283 13.4637 1.33283 13.4637 1.51054 13.2921Z"/>
</defs>
</svg>
