<svg width="167" height="49" viewBox="0 0 167 49" version="1.1" xmlns="http://www.w3.org/2000/svg" xmlns:xlink="http://www.w3.org/1999/xlink" xmlns:figma="http://www.figma.com/figma/ns">
<title>Group</title>
<desc>Created using Figma</desc>
<g id="Canvas" transform="translate(-2314 737)" figma:type="canvas">
<g id="Group" figma:type="frame">
<g id="Group" figma:type="frame">
<g id="Rectangle 7" figma:type="rounded-rectangle">
<use xlink:href="#path0_fill" transform="translate(2418.78 -719.82)" fill="#F2F2F2"/>
</g>
<g id="Rectangle 7" figma:type="rounded-rectangle">
<use xlink:href="#path1_fill" transform="matrix(-0.00427892 0.999991 -0.999991 -0.00427908 2428.63 -711.722)" fill="#F2F2F2"/>
</g>
</g>
<g id="Group" figma:type="frame">
<g id="Ctrl" figma:type="text">
<use xlink:href="#path2_fill" transform="translate(2321.16 -726.983)" fill="#F1F2F2"/>
</g>
<g id="Group" figma:type="frame">
<g id="Group" figma:type="frame">
<g id="Vector" figma:type="vector">
<use xlink:href="#path3_fill" transform="translate(2314 -730.565)" fill="#F2F2F2"/>
</g>
<g id="Group" figma:type="frame">
<g id="Vector" figma:type="vector">
<use xlink:href="#path3_fill" transform="translate(2314 -730.565)" fill="#F2F2F2"/>
</g>
</g>
</g>
</g>
</g>
<g id="Group" figma:type="frame">
<g id="Group" figma:type="frame">
<g id="Vector" figma:type="vector">
<use xlink:href="#path4_fill" transform="matrix(0.999958 -0.00916755 0.00916721 0.999958 2453.69 -736.754)" fill="#F2F2F2"/>
</g>
</g>
<g id="Rectangle 9" figma:type="rounded-rectangle">
<use xlink:href="#path5_fill" transform="translate(2464.44 -731.627)" fill="#F2F2F2"/>
</g>
</g>
</g>
</g>
<defs>
<path id="path0_fill" d="M 0 1C 0 0.447715 0.447715 0 1 0L 1.32823 0C 1.88051 0 2.32823 0.447715 2.32823 1L 2.32823 16.9098C 2.32823 17.4621 1.88051 17.9098 1.32823 17.9098L 1 17.9098C 0.447715 17.9098 0 17.4621 0 16.9098L 0 1Z"/>
<path id="path1_fill" d="M 0 1C 0 0.447715 0.447715 0 1 0L 1.32827 0C 1.88056 0 2.32827 0.447715 2.32827 1L 2.32827 16.9094C 2.32827 17.4617 1.88056 17.9094 1.32827 17.9094L 1 17.9094C 0.447715 17.9094 0 17.4617 0 16.9094L 0 1Z"/>
<path id="path2_fill" d="M 7.696 11.076C 7.76533 11.076 7.82817 11.1042 7.8845 11.1605L 8.3785 11.7C 7.99717 12.142 7.5335 12.4865 6.9875 12.7335C 6.44583 12.9805 5.7915 13.104 5.0245 13.104C 4.35283 13.104 3.744 12.9892 3.198 12.7595C 2.652 12.5255 2.18617 12.2005 1.8005 11.7845C 1.41483 11.3642 1.11583 10.8615 0.9035 10.2765C 0.691167 9.6915 0.585 9.048 0.585 8.346C 0.585 7.644 0.697667 7.0005 0.923 6.4155C 1.15267 5.8305 1.47333 5.32783 1.885 4.9075C 2.29667 4.48717 2.7885 4.16217 3.3605 3.9325C 3.93683 3.6985 4.57167 3.5815 5.265 3.5815C 5.94967 3.5815 6.539 3.68767 7.033 3.9C 7.53133 4.11233 7.97333 4.4005 8.359 4.7645L 7.9495 5.343C 7.91917 5.38633 7.8845 5.42317 7.8455 5.4535C 7.8065 5.4795 7.75017 5.4925 7.6765 5.4925C 7.62017 5.4925 7.5595 5.473 7.4945 5.434C 7.43383 5.39067 7.36017 5.33867 7.2735 5.278C 7.18683 5.21733 7.085 5.15233 6.968 5.083C 6.851 5.01367 6.71233 4.94867 6.552 4.888C 6.39167 4.82733 6.20533 4.7775 5.993 4.7385C 5.78067 4.69517 5.53583 4.6735 5.2585 4.6735C 4.76017 4.6735 4.303 4.76017 3.887 4.9335C 3.47533 5.1025 3.12 5.34517 2.821 5.6615C 2.522 5.97783 2.288 6.3635 2.119 6.8185C 1.95433 7.2735 1.872 7.78267 1.872 8.346C 1.872 8.92667 1.95433 9.4445 2.119 9.8995C 2.288 10.3545 2.5155 10.7402 2.8015 11.0565C 3.09183 11.3685 3.43417 11.6068 3.8285 11.7715C 4.22283 11.9362 4.6475 12.0185 5.1025 12.0185C 5.37983 12.0185 5.629 12.0033 5.85 11.973C 6.071 11.9383 6.27467 11.8863 6.461 11.817C 6.65167 11.7477 6.82717 11.661 6.9875 11.557C 7.15217 11.4487 7.31683 11.3208 7.4815 11.1735C 7.55517 11.1085 7.62667 11.076 7.696 11.076ZM 11.8439 13.104C 11.3239 13.104 10.9231 12.9588 10.6414 12.6685C 10.3641 12.3782 10.2254 11.96 10.2254 11.414L 10.2254 7.384L 9.43241 7.384C 9.36308 7.384 9.30458 7.3645 9.25691 7.3255C 9.20925 7.28217 9.18541 7.21717 9.18541 7.1305L 9.18541 6.669L 10.2644 6.5325L 10.5309 4.498C 10.5396 4.433 10.5677 4.381 10.6154 4.342C 10.6631 4.29867 10.7237 4.277 10.7974 4.277L 11.3824 4.277L 11.3824 6.5455L 13.2674 6.5455L 13.2674 7.384L 11.3824 7.384L 11.3824 11.336C 11.3824 11.6133 11.4496 11.8192 11.5839 11.9535C 11.7182 12.0878 11.8916 12.155 12.1039 12.155C 12.2252 12.155 12.3292 12.1398 12.4159 12.1095C 12.5069 12.0748 12.5849 12.038 12.6499 11.999C 12.7149 11.96 12.7691 11.9253 12.8124 11.895C 12.8601 11.8603 12.9012 11.843 12.9359 11.843C 12.9966 11.843 13.0507 11.8798 13.0984 11.9535L 13.4364 12.506C 13.2371 12.6923 12.9966 12.8397 12.7149 12.948C 12.4332 13.052 12.1429 13.104 11.8439 13.104ZM 14.698 13L 14.698 6.4155L 15.361 6.4155C 15.4867 6.4155 15.5734 6.43933 15.621 6.487C 15.6687 6.53467 15.7012 6.617 15.7185 6.734L 15.7965 7.761C 16.0219 7.30167 16.2992 6.94417 16.6285 6.6885C 16.9622 6.4285 17.3522 6.2985 17.7985 6.2985C 17.9805 6.2985 18.1452 6.32017 18.2925 6.3635C 18.4399 6.4025 18.5764 6.45883 18.702 6.5325L 18.5525 7.397C 18.5222 7.50533 18.455 7.5595 18.351 7.5595C 18.2904 7.5595 18.1972 7.54 18.0715 7.501C 17.9459 7.45767 17.7704 7.436 17.545 7.436C 17.142 7.436 16.804 7.553 16.531 7.787C 16.2624 8.021 16.037 8.36117 15.855 8.8075L 15.855 13L 14.698 13ZM 21.2282 3.4255L 21.2282 13L 20.0712 13L 20.0712 3.4255L 21.2282 3.4255Z"/>
<path id="path3_fill" d="M 65.5204 3.00884C 67.5327 3.00884 69.223 5.11503 69.223 7.6224L 69.223 29.9881C 69.223 32.4955 67.5327 34.6017 65.5204 34.6017L 6.11738 34.6017C 4.10509 34.6017 2.41476 32.4955 2.41476 29.9881L 2.41476 7.6224C 2.41476 5.11503 4.10509 3.00884 6.11738 3.00884L 65.5204 3.00884ZM 65.5204 0L 6.11738 0C 2.73672 0 0 3.41002 0 7.6224L 0 29.9881C 0 34.2005 2.73672 37.6105 6.11738 37.6105L 65.5204 37.6105C 68.9011 37.6105 71.6378 34.2005 71.6378 29.9881L 71.6378 7.6224C 71.6378 3.41002 68.9011 0 65.5204 0Z"/>
<path id="path4_fill" d="M 13.4324 -6.5278e-08C 6.02537 -6.5278e-08 -4.06669e-07 6.241 -4.06669e-07 13.9111L -4.06669e-07 34.4458C -4.06669e-07 42.116 6.0259 48.3564 13.4324 48.3564C 20.8388 48.3564 26.8642 42.1154 26.8642 34.4458L 26.8642 13.9111C 26.8642 6.241 20.8388 -6.5278e-08 13.4324 -6.5278e-08ZM 24.9458 13.9111L 24.9458 17.2751C 21.705 18.3692 18.0905 18.9874 14.3918 19.0785L 14.3918 2.03801C 20.2919 2.54586 24.9458 7.67235 24.9458 13.9111ZM 12.4724 2.03801L 12.4724 19.0785C 8.7742 18.9874 5.1592 18.3703 1.91837 17.2751L 1.91837 13.9111C 1.91837 7.67235 6.57279 2.54586 12.4724 2.03801ZM 13.4324 46.3686C 7.08397 46.3686 1.91837 41.0202 1.91837 34.4453L 1.91837 19.3639C 5.47795 20.49 9.42823 21.085 13.4324 21.085C 17.4365 21.085 21.3862 20.4905 24.9458 19.3639L 24.9458 34.4458C 24.9458 41.0202 19.7802 46.3686 13.4324 46.3686Z"/>
<path id="path5_fill" d="M 0 2C 0 0.895431 0.895431 0 2 0L 3.37283 0C 4.4774 0 5.37283 0.895431 5.37283 2L 5.37283 10.5368C 5.37283 11.6414 4.4774 12.5368 3.37283 12.5368L 2 12.5368C 0.895431 12.5368 0 11.6414 0 10.5368L 0 2Z"/>
</defs>
</svg>
