<?xml version="1.0" encoding="UTF-8"?>
<svg width="18px" height="20px" viewBox="0 0 18 20" version="1.1" xmlns="http://www.w3.org/2000/svg" xmlns:xlink="http://www.w3.org/1999/xlink">
    <!-- Generator: Sketch 43.2 (39069) - http://www.bohemiancoding.com/sketch -->
    <title>noun_878618_cc (1)</title>
    <desc>Created with Sketch.</desc>
    <defs></defs>
    <g id="Page-1" stroke="none" stroke-width="1" fill="none" fill-rule="evenodd">
        <g id="noun_878618_cc-(1)" fill-rule="nonzero" fill="#FFFFFF">
            <path d="M8,19.379 C7.332,19.379 6.704,19.119 6.232,18.647 L0.812,13.227 C0.281,12.695 0,12.018 0,11.267 C0,10.527 0.289,9.83 0.812,9.308 L6.909,3.211 L5.421,1.702 C5.033,1.309 5.037,0.676 5.431,0.288 C5.824,-0.099 6.456,-0.096 6.845,0.298 L15.668,9.24 C16.628,10.212 16.623,11.79 15.657,12.758 L9.767,18.647 C9.296,19.119 8.668,19.379 8,19.379 Z M8.314,4.634 L2.226,10.722 C2.039,10.909 2,11.121 2,11.267 C2,11.488 2.07,11.656 2.226,11.812 L7.646,17.232 C7.773,17.36 7.922,17.378 8,17.378 C8.077,17.378 8.226,17.359 8.353,17.232 L14.242,11.344 C14.433,11.152 14.435,10.838 14.244,10.644 L8.314,4.634 L8.314,4.634 Z M14,17.867 C14,16.324 15.716,15.121 16,13.6 C16.287,15.122 18,16.333 18,17.867 C18,19.045 17.105,20 16,20 C14.895,20 14,19.045 14,17.867 Z M16.4,11 L8.333,19.067 L1.519,12.253 C1.173,11.906 1,11 1,11 L16.4,11 Z" id="Shape"></path>
        </g>
    </g>
</svg>