<svg id="Layer_1" data-name="Layer 1" xmlns="http://www.w3.org/2000/svg" viewBox="0 0 228.22 402.32"><defs><style>.cls-1{fill:#5e9eba;}.cls-2{fill:#76c4ed;}.cls-3{fill:#518da3;}.cls-4{fill:#e0b394;}.cls-5{fill:#6cbfe5;}.cls-6{fill:#cdcccc;}.cls-7{fill:#f6cba4;}.cls-8{fill:#e8ba97;}.cls-9{fill:#ea8249;}.cls-10{fill:#d36f3d;}.cls-11{fill:#f3f3f3;}.cls-12{fill:#4e4e4e;}</style></defs><title>carpenter2</title><g id="Group-2"><path id="Shape" class="cls-1" d="M-99.78,1152.23V1234H-296.14v-81.74a55.41,55.41,0,0,1,11.44-33.81,55.62,55.62,0,0,1,44.27-21.88h84.95A55.7,55.7,0,0,1-99.78,1152.23Z" transform="translate(312.07 -831.65)"/><rect id="Rectangle-path" class="cls-2" x="70.54" y="253.99" width="87.15" height="81.68"/><path id="Shape-2" data-name="Shape" class="cls-3" d="M-241.53,1096.56v12.68a55.61,55.61,0,0,0-20.28,43V1234h-34.33v-81.74A55.68,55.68,0,0,1-241.53,1096.56Z" transform="translate(312.07 -831.65)"/><path id="Shape-3" data-name="Shape" class="cls-4" d="M-158.76,1047.88v50a39.19,39.19,0,0,1-39.2,39.18,39.19,39.19,0,0,1-39.2-39.18v-50h78.39Z" transform="translate(312.07 -831.65)"/><path id="Shape-4" data-name="Shape" class="cls-1" d="M-198,1141.58a43.74,43.74,0,0,1-43.7-43.68v-50a4.5,4.5,0,0,1,4.5-4.5h78.39a4.5,4.5,0,0,1,4.5,4.5v50A43.74,43.74,0,0,1-198,1141.58Zm-34.69-89.2v45.52A34.72,34.72,0,0,0-198,1132.58a34.73,34.73,0,0,0,34.69-34.68v-45.52h-69.39Z" transform="translate(312.07 -831.65)"/><path id="Shape-5" data-name="Shape" class="cls-5" d="M-258,1164.58V1234h-38.14v-81.73a55.41,55.41,0,0,1,11.44-33.81C-268,1128.86-258,1146.1-258,1164.58Z" transform="translate(312.07 -831.65)"/><path id="Shape-6" data-name="Shape" class="cls-2" d="M-137.91,1164.58V1234h38.14v-81.73a55.41,55.41,0,0,0-11.44-33.81C-127.89,1128.86-137.91,1146.1-137.91,1164.58Z" transform="translate(312.07 -831.65)"/><rect id="Rectangle-path-2" data-name="Rectangle-path" class="cls-6" x="78.98" y="374.84" width="70.26" height="27.48"/><g id="Group"><path id="Shape-7" data-name="Shape" class="cls-4" d="M-292,1020.44a21,21,0,0,1-20.06-21,21,21,0,0,1,21-21,20.6,20.6,0,0,1,3.08.22Z" transform="translate(312.07 -831.65)"/><path id="Shape-8" data-name="Shape" class="cls-4" d="M-103.92,1020.44a21,21,0,0,0,20.07-21,21,21,0,0,0-21-21,21.71,21.71,0,0,0-3.08.22Z" transform="translate(312.07 -831.65)"/></g><path id="Shape-9" data-name="Shape" class="cls-7" d="M-228.36,1111.24l-37-26.85a68.13,68.13,0,0,1-27.79-61.68l6.41-66.34A89.15,89.15,0,0,1-198,875.81h0a89.15,89.15,0,0,1,88.75,80.55l6.41,66.34a68.13,68.13,0,0,1-27.79,61.68l-37,26.85A51.74,51.74,0,0,1-228.36,1111.24Z" transform="translate(312.07 -831.65)"/><path id="Shape-10" data-name="Shape" class="cls-8" d="M-270.11,1035.78a41.13,41.13,0,0,0,9.57,28.9l38.64,47.47a30.78,30.78,0,0,0,6.78,6,51.41,51.41,0,0,1-13.25-6.94l-37-26.85a68.13,68.13,0,0,1-27.78-61.68l6.4-66.34a89.13,89.13,0,0,1,87.42-80.53c-27.92.67-59.54,27-61.19,55Z" transform="translate(312.07 -831.65)"/><path id="Shape-11" data-name="Shape" class="cls-9" d="M-106.27,932.49h-3a88.38,88.38,0,0,0-26-62.71,88.53,88.53,0,0,0-44.27-24h0v-8.05a6,6,0,0,0-6-6H-210.4a6,6,0,0,0-6,6v8.05a88.72,88.72,0,0,0-70.26,86.76h-3a6,6,0,0,0-5.91,4.84l-3,15a6,6,0,0,0,5.91,7.21h53.77l7.77,22.51h66.33L-157,959.5h53.77a6,6,0,0,0,5.91-7.21l-3-15A6,6,0,0,0-106.27,932.49Z" transform="translate(312.07 -831.65)"/><path id="Shape-12" data-name="Shape" class="cls-10" d="M-257.71,932.49c0-42.65,20.28-78.27,47.31-86.76V831.65h0a6,6,0,0,0-6,6v8.05a88.72,88.72,0,0,0-70.26,86.76h-3a6,6,0,0,0-5.91,4.84l-3,15a6,6,0,0,0,5.91,7.21h47l3.65-27h-15.67Z" transform="translate(312.07 -831.65)"/><path id="Shape-13" data-name="Shape" class="cls-11" d="M-162.7,1053.18s-0.51,1.26-1.59,3.25c-0.26.51-.57,1.05-0.91,1.64s-0.87,1.16-1.38,1.82-1.08,1.32-1.69,2.06a7,7,0,0,1-.7.76l-0.29.27-1.08,1c-0.74.69-1.54,1.38-2.38,2.1s-1.83,1.26-2.8,1.93c-0.49.33-1,.66-1.5,1s-1.06.56-1.62,0.84c-1.1.56-2.24,1.1-3.42,1.64a44.1,44.1,0,0,1-7.67,2.21,46.13,46.13,0,0,1-8.22.86,46.12,46.12,0,0,1-8.22-.85,44.19,44.19,0,0,1-7.67-2.21q-1.77-.8-3.43-1.63c-0.55-.28-1.1-0.53-1.62-0.84s-1-.65-1.5-1c-1-.67-1.93-1.29-2.81-1.93s-1.63-1.41-2.38-2.1l-1.07-1-0.38-.35a6,6,0,0,1-.6-0.67c-0.59-.71-1.15-1.37-1.65-2s-1-1.23-1.36-1.81-0.69-1.17-1-1.68a29.75,29.75,0,0,1-1.59-3.28s1.33,0.41,3.39,1.23c0.52,0.2,1.06.44,1.67,0.68s1.3,0.43,2,.67,1.42,0.52,2.18.79,1.59,0.48,2.43.73,1.68,0.54,2.55.8,1.82,0.43,2.76.66c0.47,0.11.93,0.24,1.4,0.37s1,0.17,1.46.27q1.47,0.26,2.95.59c2,0.19,4.06.64,6.17,0.72,2.08,0.27,4.21.2,6.31,0.32,2.12-.13,4.24,0,6.32-0.32,2.11-.07,4.13-0.53,6.17-0.72,1-.22,2-0.41,2.95-0.59,0.49-.1,1-0.16,1.46-0.27s0.94-.26,1.4-0.37c0.94-.22,1.85-0.47,2.76-0.66s1.72-.56,2.56-0.8,1.69-.45,2.41-0.73,1.43-.53,2.14-0.75,1.34-.47,2-0.66,1.19-.53,1.72-0.74A35.86,35.86,0,0,1-162.7,1053.18Z" transform="translate(312.07 -831.65)"/><g id="Group-2-2" data-name="Group"><path id="Shape-14" data-name="Shape" class="cls-12" d="M-169,1062.7l-0.29.27-1.08,1c-0.74.69-1.54,1.38-2.38,2.1s-1.83,1.26-2.8,1.93c-0.49.33-1,.66-1.5,1s-1.06.56-1.62,0.84c-1.1.56-2.24,1.1-3.42,1.64a44.1,44.1,0,0,1-7.67,2.21,46.13,46.13,0,0,1-8.22.86,46.12,46.12,0,0,1-8.22-.85,44.19,44.19,0,0,1-7.67-2.21q-1.77-.8-3.43-1.63c-0.55-.28-1.1-0.53-1.62-0.84s-1-.65-1.5-1c-1-.67-1.93-1.29-2.81-1.93s-1.63-1.41-2.38-2.1l-1.07-1-0.38-.35,0.87,0.3c0.71,0.23,1.42.51,2.18,0.78s1.59,0.49,2.43.74,1.68,0.53,2.55.8,1.82,0.43,2.76.66c0.47,0.11.93,0.23,1.4,0.36s1,0.17,1.46.27c1,0.17,2,.38,2.95.59,2,0.2,4.06.65,6.17,0.72,2.08,0.28,4.21.2,6.31,0.33,2.12-.13,4.24,0,6.32-0.32,2.11-.07,4.13-0.52,6.17-0.71,1-.22,2-0.42,2.95-0.59,0.49-.1,1-0.16,1.46-0.27s0.94-.25,1.4-0.36c0.94-.22,1.85-0.47,2.76-0.66s1.72-.57,2.56-0.8,1.69-.46,2.41-0.73,1.43-.53,2.14-0.76Z" transform="translate(312.07 -831.65)"/></g><g id="Augu"><path id="Shape-15" data-name="Shape" class="cls-12" d="M-238.06,1023a6.75,6.75,0,0,1-6.76-6.75v-10.8a6.75,6.75,0,0,1,6.76-6.75,6.75,6.75,0,0,1,6.76,6.75v10.8A6.76,6.76,0,0,1-238.06,1023Z" transform="translate(312.07 -831.65)"/><path id="Shape-16" data-name="Shape" class="cls-12" d="M-157.87,1023a6.75,6.75,0,0,1-6.76-6.75v-10.8a6.75,6.75,0,0,1,6.76-6.75,6.75,6.75,0,0,1,6.76,6.75v10.8A6.75,6.75,0,0,1-157.87,1023Z" transform="translate(312.07 -831.65)"/></g><g id="Group-3" data-name="Group"><path id="Shape-17" data-name="Shape" class="cls-4" d="M-187.61,995.56v32A10.36,10.36,0,0,1-198,1037.88h0a10.36,10.36,0,0,1-10.36-10.35v-32" transform="translate(312.07 -831.65)"/><circle id="Oval" class="cls-4" cx="114.11" cy="253.17" r="4.95"/></g></g></svg>