<svg id="Layer_1" data-name="Layer 1" xmlns="http://www.w3.org/2000/svg" viewBox="0 0 84.95 76.92"><defs><style>.cls-1{fill:none;stroke:#66bb6a;stroke-miterlimit:10;stroke-width:2px;}.cls-2{fill:#fff;}</style></defs><title>challenge</title><path class="cls-1" d="M320.55-21.66h-6.92c-0.61,0-.75-0.16-0.7-0.76,0.17-2,.25-4,0.42-5.94,0-.64-0.11-0.8-0.75-0.8H284c-0.64,0-.85.12-0.82,0.82q0.12,3,.41,5.94c0.06,0.64-.11.75-0.7,0.74h-6.76c-0.63,0-.91.11-0.85,0.81,0.09,1.19.06,2.39,0.16,3.57A21.87,21.87,0,0,0,279-6.5a19.25,19.25,0,0,0,11.49,7.66,3.62,3.62,0,0,1,1.71.9,8.72,8.72,0,0,0,3.38,2c1.27,0.42,1.24.43,1.27,1.78a4.31,4.31,0,0,1-.93,3.34,8.86,8.86,0,0,1-1.63,1.38,16.21,16.21,0,0,1-7.39,2.65,1.38,1.38,0,0,0-.4,2.71,4.74,4.74,0,0,0,1,.06h22.05A1.39,1.39,0,0,0,311,14.67v0a1.42,1.42,0,0,0-1.41-1.41,16.49,16.49,0,0,1-7.12-2.47c-1.94-1.17-3.16-2.72-2.82-5.14a2.42,2.42,0,0,0,0-.64,0.57,0.57,0,0,1,.57-0.73,8.07,8.07,0,0,0,3.94-2.1,4.34,4.34,0,0,1,2-1C311.86-.41,316.33-3.52,319-8.94a27,27,0,0,0,2.31-12.2C321.22-21.79,320.88-21.66,320.55-21.66ZM281.11-8.37a19,19,0,0,1-2.85-9c-0.12-1.46-.09-1.46,1.39-1.46h3.73a0.52,0.52,0,0,1,.63.38,0.52,0.52,0,0,1,0,.17,52.22,52.22,0,0,0,3.33,12.83c0.42,1,.92,2,1.43,3.12a15.8,15.8,0,0,1-7.67-6.08v0Zm37.22-10C318-14.07,317-10,314-6.59a16.94,16.94,0,0,1-6.37,4.25,45.4,45.4,0,0,0,4.44-13.58c0.15-.83.29-1.67,0.39-2.51a0.42,0.42,0,0,1,.38-0.46h5a0.36,0.36,0,0,1,.44.26,0.36,0.36,0,0,1,0,.16v0Z" transform="translate(-256.99 30.16)"/><path class="cls-2" d="M267,40.17a0.5,0.5,0,0,1,.36.16l1,1.07a5.44,5.44,0,0,1-2,1.56,7,7,0,0,1-2.88.54,6.8,6.8,0,0,1-2.7-.51,6,6,0,0,1-2-1.43,6.25,6.25,0,0,1-1.3-2.18,8.18,8.18,0,0,1-.45-2.77,7.7,7.7,0,0,1,.49-2.78,6.39,6.39,0,0,1,1.29-2.19,6.17,6.17,0,0,1,2.1-1.42,7,7,0,0,1,2.71-.51,6.64,6.64,0,0,1,2.62.49,6.26,6.26,0,0,1,2,1.27l-0.84,1.17a0.75,0.75,0,0,1-.19.2,0.54,0.54,0,0,1-.32.08,0.62,0.62,0,0,1-.29-0.08l-0.33-.2-0.41-.3a3.36,3.36,0,0,0-.54-0.26,4.39,4.39,0,0,0-.71-0.2,5,5,0,0,0-.94-0.08,4.15,4.15,0,0,0-1.66.32,3.59,3.59,0,0,0-1.29.93,4.31,4.31,0,0,0-.84,1.49,6.26,6.26,0,0,0-.3,2,5.92,5.92,0,0,0,.32,2,4.46,4.46,0,0,0,.87,1.49A3.74,3.74,0,0,0,262,41a4,4,0,0,0,1.6.32,7,7,0,0,0,.93-0.06,3.87,3.87,0,0,0,.76-0.18,3.33,3.33,0,0,0,.66-0.31,4.11,4.11,0,0,0,.62-0.47,0.88,0.88,0,0,1,.2-0.13A0.47,0.47,0,0,1,267,40.17Z" transform="translate(-256.99 30.16)"/><path class="cls-2" d="M272,34.8a5,5,0,0,1,1.23-.85,3.57,3.57,0,0,1,1.58-.33,3.44,3.44,0,0,1,1.39.27,2.76,2.76,0,0,1,1,.75,3.28,3.28,0,0,1,.62,1.15,4.9,4.9,0,0,1,.21,1.47v6.08h-2.3V37.25a2.06,2.06,0,0,0-.4-1.36,1.5,1.5,0,0,0-1.22-.48,2.4,2.4,0,0,0-1.12.27,4,4,0,0,0-1,.74v6.92h-2.3V29.49H272v5.32h0Z" transform="translate(-256.99 30.16)"/><path class="cls-2" d="M280,35.11a5.68,5.68,0,0,1,4-1.51,3.89,3.89,0,0,1,1.5.28,3.17,3.17,0,0,1,1.12.77,3.27,3.27,0,0,1,.7,1.17,4.51,4.51,0,0,1,.24,1.49v6h-1a1.06,1.06,0,0,1-.5-0.1,0.68,0.68,0,0,1-.28-0.4l-0.2-.69a8.2,8.2,0,0,1-.71.57,4.15,4.15,0,0,1-.72.42,3.89,3.89,0,0,1-.8.26,4.58,4.58,0,0,1-.94.09,3.69,3.69,0,0,1-1.12-.16,2.47,2.47,0,0,1-.89-0.49A2.2,2.2,0,0,1,279.8,42a2.88,2.88,0,0,1-.2-1.13,2.25,2.25,0,0,1,.12-0.72,2.12,2.12,0,0,1,.4-0.69,3.29,3.29,0,0,1,.71-0.62,4.62,4.62,0,0,1,1.08-.5A9.35,9.35,0,0,1,283.4,38a14.83,14.83,0,0,1,1.94-.16V37.34a2.1,2.1,0,0,0-.41-1.42,1.5,1.5,0,0,0-1.18-.46,2.83,2.83,0,0,0-.93.13,3.83,3.83,0,0,0-.65.29l-0.51.29a1,1,0,0,1-.51.13,0.67,0.67,0,0,1-.41-0.13,1.06,1.06,0,0,1-.27-0.29Zm5.28,4.15a12.79,12.79,0,0,0-1.68.17,4.46,4.46,0,0,0-1.09.32,1.44,1.44,0,0,0-.59.46,1.13,1.13,0,0,0,.18,1.44,1.56,1.56,0,0,0,.94.26,2.74,2.74,0,0,0,1.23-.26,3.63,3.63,0,0,0,1-.78V39.26h0Z" transform="translate(-256.99 30.16)"/><path class="cls-2" d="M292,29.49V43.34h-2.3V29.49H292Z" transform="translate(-256.99 30.16)"/><path class="cls-2" d="M296.63,29.49V43.34h-2.3V29.49h2.3Z" transform="translate(-256.99 30.16)"/><path class="cls-2" d="M300.71,38.85a4.51,4.51,0,0,0,.26,1.27,2.6,2.6,0,0,0,.54.89,2.11,2.11,0,0,0,.8.52,2.9,2.9,0,0,0,1,.17,3.18,3.18,0,0,0,1-.13,4.67,4.67,0,0,0,.71-0.29l0.53-.29a0.88,0.88,0,0,1,.44-0.13,0.48,0.48,0,0,1,.43.21l0.66,0.84a3.83,3.83,0,0,1-.86.75,4.74,4.74,0,0,1-1,.49,5.33,5.33,0,0,1-1,.26,7.48,7.48,0,0,1-1,.08,5.11,5.11,0,0,1-1.86-.33,4.15,4.15,0,0,1-1.49-1,4.6,4.6,0,0,1-1-1.6,6.21,6.21,0,0,1-.36-2.22,5.31,5.31,0,0,1,.32-1.84,4.44,4.44,0,0,1,.91-1.5,4.27,4.27,0,0,1,1.45-1,4.75,4.75,0,0,1,1.93-.37,4.69,4.69,0,0,1,1.67.29,3.63,3.63,0,0,1,1.32.84,3.92,3.92,0,0,1,.86,1.36,5.08,5.08,0,0,1,.31,1.84,1.5,1.5,0,0,1-.11.7,0.46,0.46,0,0,1-.43.18h-6Zm4.39-1.39a2.77,2.77,0,0,0-.13-0.84,2,2,0,0,0-.38-0.69,1.77,1.77,0,0,0-.64-0.47,2.2,2.2,0,0,0-.9-0.17,2.14,2.14,0,0,0-1.57.57,2.78,2.78,0,0,0-.73,1.61h4.35Z" transform="translate(-256.99 30.16)"/><path class="cls-2" d="M311,34.95a6.26,6.26,0,0,1,.61-0.54,3.9,3.9,0,0,1,.68-0.42,3.79,3.79,0,0,1,.77-0.27,3.88,3.88,0,0,1,.9-0.1,3.44,3.44,0,0,1,1.39.27,2.76,2.76,0,0,1,1,.75,3.28,3.28,0,0,1,.62,1.15,4.9,4.9,0,0,1,.21,1.47v6.08h-2.3V37.25a2.06,2.06,0,0,0-.4-1.36,1.5,1.5,0,0,0-1.22-.48,2.4,2.4,0,0,0-1.12.27,4,4,0,0,0-1,.74v6.92h-2.3V33.77h1.41a0.57,0.57,0,0,1,.59.42Z" transform="translate(-256.99 30.16)"/><path class="cls-2" d="M327.77,34.11V35a0.5,0.5,0,0,1-.49.5l-0.86.16a2.92,2.92,0,0,1,.2,1.08A2.88,2.88,0,0,1,325.55,39a3.71,3.71,0,0,1-1.19.62,4.84,4.84,0,0,1-1.48.22h-0.54l-0.51-.07a0.75,0.75,0,0,0-.45.61,0.45,0.45,0,0,0,.27.42,2.19,2.19,0,0,0,.7.19c0.29,0,.63.06,1,0.07a9.05,9.05,0,0,1,1.15.06,9.19,9.19,0,0,1,1.15.16,3.35,3.35,0,0,1,1,.37,2,2,0,0,1,.7.69,2.11,2.11,0,0,1,.27,1.11,2.63,2.63,0,0,1-.31,1.23,3.3,3.3,0,0,1-.91,1.06,4.7,4.7,0,0,1-1.45.75,6.25,6.25,0,0,1-2,.28,7.49,7.49,0,0,1-1.88-.21,4.49,4.49,0,0,1-1.33-.56,2.41,2.41,0,0,1-.79-0.81,1.89,1.89,0,0,1-.26-1,1.62,1.62,0,0,1,.41-1.12,2.81,2.81,0,0,1,1.11-.72,1.6,1.6,0,0,1-.61-0.52,1.49,1.49,0,0,1-.22-0.86,1.36,1.36,0,0,1,.08-0.44,1.91,1.91,0,0,1,.23-0.45,2.21,2.21,0,0,1,.39-0.42,2.64,2.64,0,0,1,.55-0.36,3,3,0,0,1-1.14-1,2.79,2.79,0,0,1-.42-1.53,2.88,2.88,0,0,1,1.07-2.28,3.62,3.62,0,0,1,1.2-.62,5.44,5.44,0,0,1,2.68-.08,4,4,0,0,1,1,.37h2.75v0Zm-2.29,9.67a0.64,0.64,0,0,0-.17-0.46,1.11,1.11,0,0,0-.46-0.27,3.3,3.3,0,0,0-.68-0.14l-0.82-.07h-0.9a5.72,5.72,0,0,1-.9-0.07,2.17,2.17,0,0,0-.62.5,1,1,0,0,0-.24.67,0.93,0.93,0,0,0,.13.47,1.05,1.05,0,0,0,.4.38,2.41,2.41,0,0,0,.71.25,6.3,6.3,0,0,0,2.18,0,2.7,2.7,0,0,0,.77-0.27,1.16,1.16,0,0,0,.44-0.41,1,1,0,0,0,.2-0.57h0Zm-2.6-5.45a2.14,2.14,0,0,0,.75-0.12,1.46,1.46,0,0,0,.53-0.32,1.32,1.32,0,0,0,.32-0.49,1.81,1.81,0,0,0,.11-0.64,1.5,1.5,0,0,0-.42-1.12,2.17,2.17,0,0,0-2.54,0,1.5,1.5,0,0,0-.42,1.12,1.79,1.79,0,0,0,.11.63,1.38,1.38,0,0,0,.32.5,1.43,1.43,0,0,0,.53.33,2.15,2.15,0,0,0,.75.12h0Z" transform="translate(-256.99 30.16)"/><path class="cls-2" d="M330.88,38.85a4.51,4.51,0,0,0,.26,1.27,2.6,2.6,0,0,0,.54.89,2.11,2.11,0,0,0,.8.52,2.9,2.9,0,0,0,1,.17,3.18,3.18,0,0,0,1-.13,4.67,4.67,0,0,0,.71-0.29l0.53-.29a0.88,0.88,0,0,1,.44-0.13,0.48,0.48,0,0,1,.43.21l0.66,0.84a3.83,3.83,0,0,1-.86.75,4.74,4.74,0,0,1-1,.49,5.33,5.33,0,0,1-1.05.26,7.48,7.48,0,0,1-1,.08,5.11,5.11,0,0,1-1.86-.33,4.15,4.15,0,0,1-1.49-1,4.6,4.6,0,0,1-1-1.6,6.21,6.21,0,0,1-.36-2.22,5.31,5.31,0,0,1,.32-1.84,4.44,4.44,0,0,1,.91-1.5,4.27,4.27,0,0,1,1.45-1,4.75,4.75,0,0,1,1.93-.37,4.69,4.69,0,0,1,1.67.29,3.63,3.63,0,0,1,1.32.84,3.92,3.92,0,0,1,.86,1.36A5.08,5.08,0,0,1,337.4,38a1.5,1.5,0,0,1-.11.7,0.46,0.46,0,0,1-.43.18h-6Zm4.39-1.39a2.77,2.77,0,0,0-.13-0.84,2,2,0,0,0-.38-0.69,1.77,1.77,0,0,0-.64-0.47,2.2,2.2,0,0,0-.9-0.17,2.14,2.14,0,0,0-1.57.57,2.78,2.78,0,0,0-.73,1.61h4.35Z" transform="translate(-256.99 30.16)"/><path class="cls-2" d="M339.11,42.08a1.43,1.43,0,0,1,.11-0.55,1.33,1.33,0,0,1,.3-0.45,1.48,1.48,0,0,1,.45-0.3,1.42,1.42,0,0,1,.56-0.11,1.39,1.39,0,0,1,.55.11,1.49,1.49,0,0,1,.45.3,1.38,1.38,0,0,1-.45,2.28,1.43,1.43,0,0,1-.55.11,1.45,1.45,0,0,1-.56-0.11,1.38,1.38,0,0,1-.45-0.29,1.32,1.32,0,0,1-.3-0.44A1.42,1.42,0,0,1,339.11,42.08Zm2.53-12.22V35.2a16.12,16.12,0,0,1-.08,1.66q-0.08.82-.21,1.73h-1.58q-0.13-.91-0.21-1.73a16.29,16.29,0,0,1-.08-1.66V29.86h2.16Z" transform="translate(-256.99 30.16)"/></svg>