<svg width="33" height="33" viewBox="0 0 33 33" version="1.1" xmlns="http://www.w3.org/2000/svg" xmlns:xlink="http://www.w3.org/1999/xlink" xmlns:figma="http://www.figma.com/figma/ns">
<title>Group</title>
<desc>Created using Figma</desc>
<g id="Canvas" transform="translate(589 -1845)" figma:type="canvas">
<g id="Group" figma:type="frame">
<g id="Vector" figma:type="vector">
<use xlink:href="#path0_stroke" transform="translate(-571.536 1846)" fill="#F2F2F2"/>
</g>
<g id="Vector" figma:type="vector">
<use xlink:href="#path1_stroke" transform="translate(-571.536 1862.18)" fill="#F2F2F2"/>
</g>
<g id="Vector" figma:type="vector">
<use xlink:href="#path2_stroke" transform="translate(-588 1862)" fill="#F2F2F2"/>
</g>
</g>
</g>
<defs>
<path id="path0_stroke" d="M 1.41811 0.5L 13.1175 0.5L 13.1175 -0.5L 1.41811 -0.5L 1.41811 0.5ZM 13.1175 0.5C 13.6276 0.5 14.0356 0.910018 14.0356 1.4091L 15.0356 1.4091C 15.0356 0.351729 14.1739 -0.5 13.1175 -0.5L 13.1175 0.5ZM 14.0356 1.4091L 14.0356 13.0834L 15.0356 13.0834L 15.0356 1.4091L 14.0356 1.4091ZM 14.0356 13.0834C 14.0356 13.5825 13.6276 13.9925 13.1175 13.9925L 13.1175 14.9925C 14.1739 14.9925 15.0356 14.1408 15.0356 13.0834L 14.0356 13.0834ZM 13.1175 13.9925L 1.41811 13.9925L 1.41811 14.9925L 13.1175 14.9925L 13.1175 13.9925ZM 1.41811 13.9925C 0.908041 13.9925 0.5 13.5825 0.5 13.0834L -0.5 13.0834C -0.5 14.1408 0.361779 14.9925 1.41811 14.9925L 1.41811 13.9925ZM 0.5 13.0834L 0.5 1.4091L -0.5 1.4091L -0.5 13.0834L 0.5 13.0834ZM 0.5 1.4091C 0.5 0.910018 0.908041 0.5 1.41811 0.5L 1.41811 -0.5C 0.361779 -0.5 -0.5 0.351729 -0.5 1.4091L 0.5 1.4091Z"/>
<path id="path1_stroke" d="M 1.41811 0.499999L 13.1175 0.499999L 13.1175 -0.500001L 1.41811 -0.500001L 1.41811 0.499999ZM 13.1175 0.499999C 13.6276 0.499999 14.0356 0.910017 14.0356 1.40909L 15.0356 1.40909C 15.0356 0.351728 14.1739 -0.500001 13.1175 -0.500001L 13.1175 0.499999ZM 14.0356 1.40909L 14.0356 13.4146L 15.0356 13.4146L 15.0356 1.40909L 14.0356 1.40909ZM 14.0356 13.4146C 14.0356 13.9137 13.6276 14.3237 13.1175 14.3237L 13.1175 15.3237C 14.1739 15.3237 15.0356 14.4719 15.0356 13.4146L 14.0356 13.4146ZM 13.1175 14.3237L 1.41811 14.3237L 1.41811 15.3237L 13.1175 15.3237L 13.1175 14.3237ZM 1.41811 14.3237C 0.908041 14.3237 0.5 13.9137 0.5 13.4146L -0.5 13.4146C -0.5 14.4719 0.36178 15.3237 1.41811 15.3237L 1.41811 14.3237ZM 0.5 13.4146L 0.5 1.40909L -0.5 1.40909L -0.5 13.4146L 0.5 13.4146ZM 0.5 1.40909C 0.5 0.910017 0.908041 0.499999 1.41811 0.499999L 1.41811 -0.500001C 0.36178 -0.500001 -0.5 0.351728 -0.5 1.40909L 0.5 1.40909Z"/>
<path id="path2_stroke" d="M 1.41811 0.499999L 13.1175 0.499999L 13.1175 -0.500001L 1.41811 -0.500001L 1.41811 0.499999ZM 13.1175 0.499999C 13.6276 0.499999 14.0356 0.910017 14.0356 1.40909L 15.0356 1.40909C 15.0356 0.351728 14.1739 -0.500001 13.1175 -0.500001L 13.1175 0.499999ZM 14.0356 1.40909L 14.0356 13.4146L 15.0356 13.4146L 15.0356 1.40909L 14.0356 1.40909ZM 14.0356 13.4146C 14.0356 13.9137 13.6276 14.3237 13.1175 14.3237L 13.1175 15.3237C 14.1739 15.3237 15.0356 14.4719 15.0356 13.4146L 14.0356 13.4146ZM 13.1175 14.3237L 1.41811 14.3237L 1.41811 15.3237L 13.1175 15.3237L 13.1175 14.3237ZM 1.41811 14.3237C 0.908041 14.3237 0.5 13.9137 0.5 13.4146L -0.5 13.4146C -0.5 14.4719 0.361779 15.3237 1.41811 15.3237L 1.41811 14.3237ZM 0.5 13.4146L 0.5 1.40909L -0.5 1.40909L -0.5 13.4146L 0.5 13.4146ZM 0.5 1.40909C 0.5 0.910017 0.908041 0.499999 1.41811 0.499999L 1.41811 -0.500001C 0.361779 -0.500001 -0.5 0.351728 -0.5 1.40909L 0.5 1.40909Z"/>
</defs>
</svg>
