<svg id="Layer_1" data-name="Layer 1" xmlns="http://www.w3.org/2000/svg" viewBox="0 0 21.11 32.78"><defs><style>.cls-1{fill:none;}.cls-2{fill:#f2f2f2;}</style></defs><title>ljosaperu</title><polygon class="cls-1" points="4.22 18.03 3.89 18.41 4.22 18.03 4.22 18.03"/><polygon class="cls-1" points="11.12 0.5 11.15 0 11.12 0.5 11.12 0.5"/><polygon class="cls-1" points="20.61 10.37 20.78 10.37 20.11 10.37 20.61 10.37"/><polygon class="cls-1" points="15.76 19.54 15.31 19.32 15.76 19.54 15.76 19.54"/><path class="cls-1" d="M-869.11,643h-1a9.45,9.45,0,0,0-6.43,2.91,9.28,9.28,0,0,0-2.62,6.45c0,2.68,1.61,5.28,3.58,7.32h0a5.42,5.42,0,0,1,1.23,1.64v0.05a6.36,6.36,0,0,1,.33,2.31h0v2.37h8.81v-2.37h0a6.36,6.36,0,0,1,.33-2.31v-0.05a5.4,5.4,0,0,1,1.23-1.64h0c2-2,3.58-4.64,3.58-7.32h0a9.28,9.28,0,0,0-2.61-6.44A9.45,9.45,0,0,0-869.11,643Z" transform="translate(880.21 -641.99)"/><rect class="cls-2" x="5.67" y="27.92" width="9.8" height="1"/><path class="cls-2" d="M-859.1,652.36h0a10.28,10.28,0,0,0-2.89-7.13,10.86,10.86,0,0,0-7.07-3.23l0,0.5h0l0-.5h-1.13a10.86,10.86,0,0,0-7.11,3.22,10.28,10.28,0,0,0-2.91,7.15h0c0,3.06,1.82,5.9,3.86,8h0L-876,660h0l-0.33.37a4,4,0,0,1,1,1.32,4.93,4.93,0,0,1,.27,1.93h0v3.37h10.81v-3.37h0a4.93,4.93,0,0,1,.27-1.93,4,4,0,0,1,1-1.32h0c2-2.11,3.86-5,3.86-8h0Zm-0.5,0h-0.5c0,2.68-1.61,5.28-3.58,7.32h0a5.4,5.4,0,0,0-1.23,1.64l0.45,0.21h0l-0.45-.21v0.05a6.36,6.36,0,0,0-.33,2.31h0v2.37h-8.81v-2.37h0a6.36,6.36,0,0,0-.33-2.31v-0.05a5.42,5.42,0,0,0-1.23-1.64h0c-2-2-3.58-4.64-3.58-7.32a9.28,9.28,0,0,1,2.62-6.45,9.45,9.45,0,0,1,6.43-2.91h1a9.45,9.45,0,0,1,6.4,2.93,9.28,9.28,0,0,1,2.61,6.44h0.5Z" transform="translate(880.21 -641.99)"/><rect class="cls-2" x="5.67" y="31.78" width="9.8" height="1"/></svg>