<svg width="22" height="34" viewBox="0 0 22 34" version="1.1" xmlns="http://www.w3.org/2000/svg" xmlns:xlink="http://www.w3.org/1999/xlink" xmlns:figma="http://www.figma.com/figma/ns">
<title>Vector</title>
<desc>Created using Figma</desc>
<g id="Canvas" transform="translate(579 -2032)" figma:type="canvas">
<g id="Vector" figma:type="vector">
<use xlink:href="#path0_stroke" transform="translate(-578.481 2033.14)" fill="#F1F2F2"/>
</g>
</g>
<defs>
<path id="path0_stroke" d="M 10.6211 -2.10076e-05L 10.6493 -0.499229L 10.6352 -0.500021L 10.6211 -0.500021L 10.6211 -2.10076e-05ZM 9.54002 -2.10076e-05L 9.54002 -0.500021L 9.52718 -0.500021L 9.51437 -0.499363L 9.54002 -2.10076e-05ZM -5.19034e-15 9.8667L -0.5 9.86666L -0.5 9.8667L -5.19034e-15 9.8667ZM 3.71812 17.5321L 3.35848 17.8795L 3.37197 17.8934L 3.38649 17.9063L 3.71812 17.5321ZM 4.85036 19.0379L 5.32307 18.875L 5.31406 18.8488L 5.30223 18.8239L 4.85036 19.0379ZM 5.14985 21.1891L 4.65063 21.1613L 4.64985 21.1752L 4.64985 21.1891L 5.14985 21.1891ZM 5.14985 24.0573L 4.64985 24.0573L 4.64985 24.5573L 5.14985 24.5573L 5.14985 24.0573ZM 14.9601 24.0573L 14.9601 24.5573L 15.4601 24.5573L 15.4601 24.0573L 14.9601 24.0573ZM 14.9601 21.1891L 15.4601 21.1891L 15.4601 21.1752L 15.4594 21.1613L 14.9601 21.1891ZM 15.2596 19.0379L 14.8076 18.8243L 14.7959 18.8491L 14.7869 18.875L 15.2596 19.0379ZM 16.3919 17.5321L 16.7232 17.9066L 16.7379 17.8936L 16.7515 17.8795L 16.3919 17.5321ZM 20.11 9.8667L 19.61 9.8666L 19.61 9.8667L 20.11 9.8667ZM 17.3636 3.08179L 17.0032 3.42837L 17.3636 3.08179ZM 5.17177 28.4223L 14.9675 28.4223L 14.9675 27.4223L 5.17177 27.4223L 5.17177 28.4223ZM 5.17177 32.28L 14.9675 32.28L 14.9675 31.28L 5.17177 31.28L 5.17177 32.28ZM 10.6211 -0.500021L 10.066 -0.500021L 10.066 0.499979L 10.6211 0.499979L 10.6211 -0.500021ZM 10.066 -0.500021L 9.54002 -0.500021L 9.54002 0.499979L 10.066 0.499979L 10.066 -0.500021ZM 9.51437 -0.499363C 6.84715 -0.353667 4.25213 0.820598 2.40551 2.71769L 3.12442 3.4128C 4.82791 1.63821 7.083 0.618122 9.56566 0.499321L 9.51437 -0.499363ZM 2.40551 2.71769C 0.541213 4.64583 -0.499768 7.2046 -0.5 9.86666L 0.5 9.86674C 0.500209 7.46661 1.43861 5.15634 3.12442 3.4128L 2.40551 2.71769ZM -0.5 9.8667C -0.5 12.9263 1.32169 15.7706 3.35848 17.8795L 4.07777 17.1847C 2.11154 15.149 0.5 12.5436 0.5 9.8667L -0.5 9.8667ZM 3.38649 17.9063C 3.82714 18.2934 4.15174 18.7251 4.39849 19.2519L 5.30223 18.8239C 5.00762 18.2079 4.5621 17.6153 4.04975 17.1579L 3.38649 17.9063ZM 4.37764 19.2008C 4.60253 19.8462 4.69086 20.4805 4.65063 21.1613L 5.64908 21.2169C 5.69 20.4392 5.57502 19.6132 5.32307 18.875L 4.37764 19.2008ZM 4.64985 21.1891L 4.64985 24.0573L 5.64985 24.0573L 5.64985 21.1891L 4.64985 21.1891ZM 5.14985 24.5573L 14.9601 24.5573L 14.9601 23.5573L 5.14985 23.5573L 5.14985 24.5573ZM 15.4601 24.0573L 15.4601 21.1891L 14.4601 21.1891L 14.4601 24.0573L 15.4601 24.0573ZM 15.4594 21.1613C 15.4191 20.4805 15.5075 19.8462 15.7324 19.2008L 14.7869 18.875C 14.535 19.6132 14.42 20.4392 14.4609 21.2169L 15.4594 21.1613ZM 15.7117 19.2515C 15.9579 18.7246 16.2823 18.2932 16.7232 17.9066L 16.0606 17.1576C 15.5476 17.6148 15.1017 18.2078 14.8076 18.8243L 15.7117 19.2515ZM 16.7515 17.8795C 18.7883 15.7706 20.61 12.9263 20.61 9.8667L 19.61 9.8667C 19.61 12.5436 17.9985 15.149 16.0322 17.1847L 16.7515 17.8795ZM 20.61 9.8668C 20.6105 7.21337 19.577 4.66199 17.724 2.7352L 17.0032 3.42837C 18.6788 5.17067 19.6105 7.47426 19.61 9.8666L 20.61 9.8668ZM 17.724 2.7352C 15.8885 0.839386 13.3071 -0.340753 10.6493 -0.499229L 10.593 0.499187C 13.0669 0.629983 15.3101 1.65511 17.0032 3.42837L 17.724 2.7352Z"/>
</defs>
</svg>
