<?xml version="1.0" encoding="utf-8"?>
<!-- Generator: Adobe Illustrator 19.2.1, SVG Export Plug-In . SVG Version: 6.00 Build 0)  -->
<svg version="1.1" id="Layer_1" xmlns:figma="http://www.figma.com/figma/ns"
	 xmlns="http://www.w3.org/2000/svg" xmlns:xlink="http://www.w3.org/1999/xlink" x="0px" y="0px" viewBox="0 0 23 31"
	 style="enable-background:new 0 0 23 31;" xml:space="preserve">
<style type="text/css">
	.st0{fill:#F2F2F2;}
</style>
<title>Group</title>
<desc>Created using Figma</desc>
<g id="Canvas" transform="translate(335 -3246)" figma:type="canvas">
	<g id="Group" figma:type="frame">
		<g id="Vector" figma:type="vector">
			<g transform="matrix(0.95719 -0.289462 0.289462 0.95719 -334.587 3250.34)">
				<path id="path0_fill" class="st0" d="M-323.8,3247.6c-4.1,0.1-7.4,3.6-7.3,7.9l0.2,11.5c0.1,4.3,3.5,7.7,7.7,7.6
					c4.1-0.1,7.4-3.6,7.3-7.9l-0.2-11.5C-316.2,3250.9-319.6,3247.5-323.8,3247.6z M-317.2,3255.2l0,1.9c-1.8,0.6-3.8,1-5.9,1.1
					l-0.2-9.5C-319.9,3248.9-317.3,3251.8-317.2,3255.2z M-324.3,3248.7l0.2,9.5c-2.1,0-4.1-0.3-5.9-0.9l0-1.9
					C-330.1,3252-327.6,3249.1-324.3,3248.7z M-323.3,3273.5c-3.5,0.1-6.5-2.9-6.6-6.5l-0.2-8.4c2,0.6,4.2,0.9,6.4,0.8
					c2.2,0,4.4-0.4,6.4-1.1l0.2,8.4C-316.9,3270.4-319.7,3273.4-323.3,3273.5z"/>
			</g>
		</g>
		<g id="Rectangle_6" figma:type="vector">
			<g transform="matrix(0.95719 -0.289462 0.289462 0.95719 -333.742 3250.35)">
				<path id="path1_fill" class="st0" d="M-329.9,3252.7c0-0.9,5.9-7.6,5.9-3.6c0.1,4,0.2,9.5,0.2,9.5l-6.5-0.4
					C-330.3,3258.3-329.9,3253.6-329.9,3252.7z"/>
			</g>
		</g>
	</g>
</g>
</svg>
