<svg width="32" height="32" viewBox="0 0 32 32" version="1.1" xmlns="http://www.w3.org/2000/svg" xmlns:xlink="http://www.w3.org/1999/xlink" xmlns:figma="http://www.figma.com/figma/ns">
<title>Vector</title>
<desc>Created using Figma</desc>
<g id="Canvas" transform="translate(582 -2124)" figma:type="canvas">
<g id="Vector" figma:type="vector">
<use xlink:href="#path0_fill" transform="translate(-581.258 2124.11)" fill="#F1F2F2"/>
</g>
</g>
<defs>
<path id="path0_fill" d="M 12.6584 4.52702e-05C 12.5817 0.00235747 12.5076 0.0288239 12.4469 0.07577C 12.3862 0.122716 12.342 0.187672 12.3206 0.261275L 11.4424 4.23106C 11.1046 4.34906 10.7753 4.50077 10.4459 4.65249L 6.97521 2.48641C 6.90576 2.4465 6.82502 2.43067 6.74559 2.44135C 6.66616 2.45202 6.59251 2.48854 6.5361 2.54536L 2.54182 6.53213C 2.48755 6.59042 2.45401 6.66486 2.44638 6.74407C 2.43875 6.82329 2.45745 6.90277 2.49959 6.97032L 4.6614 10.4261C 4.5094 10.7548 4.37429 11.075 4.25606 11.4206L 0.278674 12.3309C 0.19904 12.3499 0.128178 12.3952 0.0775915 12.4594C 0.0270049 12.5237 -0.000336798 12.6031 3.78803e-06 12.6849L 3.78803e-06 18.3151C 0.00336778 18.394 0.0323993 18.4694 0.0826925 18.5303C 0.132986 18.5911 0.201794 18.634 0.278674 18.6523L 4.25606 19.5625C 4.38273 19.8997 4.5094 20.2368 4.6614 20.5655L 2.49959 24.0213C 2.45949 24.0879 2.44194 24.1657 2.44954 24.2431C 2.45715 24.3205 2.4895 24.3934 2.54182 24.451L 6.5361 28.4378C 6.59251 28.4946 6.66616 28.5311 6.74559 28.5418C 6.82502 28.5525 6.90576 28.5366 6.97521 28.4967L 10.4459 26.3307C 10.7668 26.4824 11.1046 26.6256 11.4424 26.7521L 12.3544 30.7219C 12.3727 30.7986 12.4156 30.8673 12.4766 30.9175C 12.5375 30.9677 12.6132 30.9966 12.6922 31L 18.3332 31C 18.4121 30.9966 18.4878 30.9677 18.5488 30.9175C 18.6097 30.8673 18.6526 30.7986 18.6709 30.7219L 19.5829 26.7521C 19.9207 26.6341 20.2501 26.4824 20.5794 26.3307L 24.0248 28.5052C 24.0942 28.5451 24.175 28.5609 24.2544 28.5502C 24.3338 28.5396 24.4075 28.503 24.4639 28.4462L 28.4582 24.4594C 28.5105 24.4018 28.5429 24.3289 28.5505 24.2515C 28.5581 24.1741 28.5405 24.0963 28.5004 24.0296L 26.3386 20.5739C 26.4906 20.2452 26.6257 19.9081 26.7439 19.571L 30.7213 18.6606C 30.7982 18.6424 30.867 18.5996 30.9173 18.5387C 30.9676 18.4779 30.9966 18.4024 31 18.3236L 31 12.6933C 31.0003 12.6116 30.973 12.5321 30.9224 12.4679C 30.8718 12.4036 30.801 12.3583 30.7213 12.3393L 26.7439 11.429C 26.6173 11.0919 26.4906 10.7632 26.3386 10.4345L 28.5004 6.97876C 28.5426 6.91121 28.5613 6.83172 28.5536 6.75251C 28.546 6.6733 28.5125 6.59876 28.4582 6.54046L 24.4639 2.5538C 24.4075 2.49698 24.3338 2.46045 24.2544 2.44978C 24.175 2.43911 24.0942 2.45493 24.0248 2.49485L 20.5541 4.66092C 20.2332 4.50921 19.8954 4.36593 19.5576 4.2395L 18.6456 0.269712C 18.6242 0.196109 18.58 0.131153 18.5193 0.0842067C 18.4586 0.0372606 18.3846 0.0106913 18.3078 0.00837911L 12.6584 0.00837911L 12.6584 4.52702e-05ZM 12.9371 0.70801L 18.0038 0.70801L 18.8989 4.5851C 18.9133 4.64265 18.9416 4.69575 18.9814 4.73984C 19.0211 4.78392 19.0711 4.81768 19.1269 4.83799C 19.5683 4.98791 19.9998 5.16526 20.419 5.36899C 20.471 5.39631 20.529 5.41056 20.5879 5.41056C 20.6467 5.41056 20.7047 5.39631 20.7567 5.36899L 24.1346 3.25343L 27.7404 6.85241L 25.6208 10.2238C 25.5934 10.2758 25.5791 10.3336 25.5791 10.3923C 25.5791 10.4511 25.5934 10.5089 25.6208 10.5609C 25.8277 10.9791 26.0082 11.4098 26.1613 11.8505C 26.1816 11.9062 26.2153 11.9561 26.2595 11.9957C 26.3037 12.0354 26.3569 12.0637 26.4146 12.078L 30.2991 12.9714L 30.2991 18.0285L 26.4146 18.922C 26.3569 18.9363 26.3037 18.9646 26.2595 19.0043C 26.2153 19.044 26.1816 19.0938 26.1613 19.1496C 26.0081 19.5929 25.8276 20.0264 25.6208 20.4475C 25.5934 20.4995 25.5791 20.5574 25.5791 20.6161C 25.5791 20.6748 25.5934 20.7326 25.6208 20.7846L 27.7235 24.156L 24.1261 27.7466L 20.7483 25.631C 20.6962 25.6037 20.6382 25.5895 20.5794 25.5895C 20.5206 25.5895 20.4626 25.6037 20.4105 25.631C 19.9914 25.8348 19.5598 26.0121 19.1185 26.162C 19.0627 26.1823 19.0127 26.216 18.9729 26.2601C 18.9332 26.3042 18.9049 26.3574 18.8905 26.4149L 17.9954 30.3004L 12.9286 30.3004L 12.0335 26.4149C 12.0191 26.3574 11.9908 26.3042 11.9511 26.2601C 11.9113 26.216 11.8613 26.1823 11.8055 26.162C 11.3642 26.0121 10.9326 25.8348 10.5135 25.631C 10.4614 25.6037 10.4034 25.5895 10.3446 25.5895C 10.2858 25.5895 10.2278 25.6037 10.1757 25.631L 6.79788 27.7466L 3.20049 24.156L 5.30319 20.7846C 5.33056 20.7326 5.34486 20.6748 5.34486 20.6161C 5.34486 20.5574 5.33056 20.4995 5.30319 20.4475C 5.09639 20.0264 4.9159 19.5929 4.76274 19.1496C 4.74239 19.0938 4.70865 19.044 4.66448 19.0043C 4.62031 18.9646 4.56706 18.9363 4.5094 18.922L 0.624901 18.0285L 0.624901 12.9714L 4.5094 12.078C 4.56706 12.0637 4.62031 12.0354 4.66448 11.9957C 4.70865 11.9561 4.74239 11.9062 4.76274 11.8505C 4.91581 11.4098 5.09632 10.9791 5.30319 10.5609C 5.33056 10.5089 5.34486 10.4511 5.34486 10.3923C 5.34486 10.3336 5.33056 10.2758 5.30319 10.2238L 3.1836 6.85241L 6.78943 3.25343L 10.1673 5.36899C 10.2193 5.39631 10.2773 5.41056 10.3361 5.41056C 10.395 5.41056 10.453 5.39631 10.505 5.36899C 10.9242 5.16526 11.3557 4.98791 11.7971 4.83799C 11.8529 4.81768 11.9029 4.78392 11.9426 4.73984C 11.9824 4.69575 12.0107 4.64265 12.0251 4.5851L 12.9202 0.70801L 12.9371 0.70801ZM 15.4704 8.09982C 14.0057 8.09982 12.5738 8.53335 11.356 9.34557C 10.1381 10.1578 9.18883 11.3122 8.6283 12.6628C 8.06777 14.0135 7.92111 15.4998 8.20686 16.9337C 8.49262 18.3676 9.19796 19.6846 10.2337 20.7184C 11.2694 21.7521 12.589 22.4561 14.0256 22.7413C 15.4622 23.0266 16.9513 22.8802 18.3046 22.3207C 19.6578 21.7613 20.8144 20.8138 21.6282 19.5982C 22.442 18.3827 22.8763 16.9536 22.8763 15.4916C 22.8741 13.5333 22.0943 11.6557 20.7077 10.2702C 19.3212 8.88471 17.4409 8.10427 15.4789 8.09982L 15.4704 8.09982ZM 15.4704 8.80778C 16.7966 8.80778 18.0929 9.20028 19.1955 9.93563C 20.2982 10.671 21.1576 11.7162 21.665 12.939C 22.1725 14.1618 22.3053 15.5074 22.0466 16.8056C 21.7879 18.1038 21.1493 19.2962 20.2116 20.2321C 19.2739 21.1681 18.0792 21.8054 16.7785 22.0636C 15.4779 22.3218 14.1297 22.1894 12.9046 21.6828C 11.6794 21.1763 10.6322 20.3185 9.89546 19.218C 9.1587 18.1174 8.76546 16.8236 8.76546 15.5C 8.76323 14.6194 8.93536 13.7471 9.27195 12.9331C 9.60855 12.1192 10.103 11.3796 10.7268 10.757C 11.3507 10.1343 12.0916 9.64078 12.9071 9.30483C 13.7227 8.96887 14.5966 8.79712 15.4789 8.79934L 15.4704 8.80778Z"/>
</defs>
</svg>
