<?xml version="1.0" encoding="UTF-8"?>
<svg width="229px" height="403px" viewBox="0 0 229 403" version="1.1" xmlns="http://www.w3.org/2000/svg" xmlns:xlink="http://www.w3.org/1999/xlink">
    <!-- Generator: Sketch 43.2 (39069) - http://www.bohemiancoding.com/sketch -->
    <title>Group 2</title>
    <desc>Created with Sketch.</desc>
    <defs></defs>
    <g id="Page-1" stroke="none" stroke-width="1" fill="none" fill-rule="evenodd">
        <g id="Desktop-HD" transform="translate(-613.000000, -180.000000)">
            <g id="carpenter" transform="translate(137.000000, -39.000000)">
                <g id="Group-2" transform="translate(476.000000, 219.000000)">
                    <path d="M212.972436,320.582922 L212.972436,402.318488 L16.6105278,402.318488 L16.6105278,320.582922 C16.6105278,307.869741 20.87125,296.146646 28.0500167,286.773827 C38.2285833,273.475237 54.2707528,264.895274 72.3214361,264.895274 L157.270175,264.895274 C188.030703,264.895274 212.972436,289.826594 212.972436,320.582922 Z" id="Shape" fill="#5D9EBA" fill-rule="nonzero"></path>
                    <rect id="Rectangle-path" fill="#71C5F4" fill-rule="nonzero" x="71.2193083" y="253.993322" width="87.1467056" height="81.6813468"></rect>
                    <path d="M71.2224528,264.913347 L71.2224528,277.590382 C58.8372722,287.809489 50.9376417,303.277625 50.9376417,320.582922 L50.9376417,402.318488 L16.6105278,402.318488 L16.6105278,320.582922 C16.6105278,290.195126 40.957175,265.489326 71.2224528,264.913347 Z" id="Shape" fill="#508DA3" fill-rule="nonzero"></path>
                    <path d="M153.988161,216.228596 L153.988161,266.249178 C153.988161,287.88571 136.437444,305.429885 114.791089,305.429885 C93.1384444,305.429885 75.5940167,287.886496 75.5940167,266.249178 L75.5940167,216.228596 L153.988161,216.228596 Z" id="Shape" fill="#E0B394" fill-rule="nonzero"></path>
                    <path d="M114.791089,309.931635 C90.694425,309.931635 71.0903861,290.335781 71.0903861,266.249178 L71.0903861,216.228596 C71.0903861,213.742378 73.1067611,211.726845 75.5940167,211.726845 L153.988161,211.726845 C156.476203,211.726845 158.491792,213.742378 158.491792,216.228596 L158.491792,266.249178 C158.492578,290.335781 138.887753,309.931635 114.791089,309.931635 Z M80.0984333,220.731132 L80.0984333,266.249963 C80.0984333,285.37199 95.6618611,300.928134 114.791089,300.928134 C133.920317,300.928134 149.485317,285.371205 149.485317,266.249963 L149.485317,220.731132 L80.0984333,220.731132 L80.0984333,220.731132 Z" id="Shape" fill="#5D9EBA" fill-rule="nonzero"></path>
                    <path d="M54.7479222,332.926786 L54.7479222,402.317702 L16.6105278,402.317702 L16.6105278,320.582922 C16.6105278,307.869741 20.87125,296.146646 28.0500167,286.773827 C44.7226472,297.209024 54.7479222,314.451458 54.7479222,332.926786 Z" id="Shape" fill="#6ABFE5" fill-rule="nonzero"></path>
                    <path d="M174.835042,332.926786 L174.835042,402.317702 L212.972436,402.317702 L212.972436,320.582922 C212.972436,307.869741 208.711714,296.146646 201.532947,286.773827 C184.860317,297.209024 174.835042,314.451458 174.835042,332.926786 Z" id="Shape" fill="#71C5F4" fill-rule="nonzero"></path>
                    <rect id="Rectangle-path" fill="#CCCCCC" fill-rule="nonzero" x="79.6597833" y="374.840446" width="70.2578944" height="27.478828"></rect>
                    <g id="Group" transform="translate(0.000000, 146.155620)" fill-rule="nonzero" fill="#E0B394">
                        <path d="M20.7344667,42.6381518 C9.5654,42.1431085 0.675269444,32.9321614 0.675269444,21.6506763 C0.675269444,10.0540922 10.0787306,0.645127762 21.6895917,0.645127762 C22.7343333,0.645127762 23.7609944,0.717419789 24.7703611,0.869861671 L20.7344667,42.6381518 Z" id="Shape"></path>
                        <path d="M208.828058,42.6381518 C219.997125,42.1431085 228.896689,32.9321614 228.896689,21.6506763 C228.896689,10.0540922 219.483794,0.645127762 207.873719,0.645127762 C206.828978,0.645127762 205.792883,0.726063401 204.79295,0.869861671 L208.828058,42.6381518 Z" id="Shape"></path>
                    </g>
                    <path d="M84.3858833,279.590986 L47.4111472,252.738427 C27.8723556,238.548759 17.3023056,215.082924 19.6252639,191.053683 L26.0383583,124.716319 C30.4555167,79.0269721 68.8656917,44.1641422 114.787158,44.1641422 L114.787158,44.1641422 C160.707839,44.1641422 199.118014,79.0269721 203.535172,124.716319 L209.948267,191.053683 C212.271225,215.08371 201.701961,238.547973 182.162383,252.738427 L145.187647,279.590986 C127.059139,292.755992 102.512819,292.755992 84.3858833,279.590986 Z" id="Shape" fill="#F7CBA4" fill-rule="nonzero"></path>
                    <path d="M42.6347361,204.126753 C42.0129222,214.634242 45.4364361,224.97043 52.2095694,233.028634 L90.8540056,280.496207 C92.8719528,282.899917 95.1595361,284.917022 97.6365722,286.528663 C92.9890833,284.908378 88.5208278,282.584818 84.3866694,279.587057 L47.4111472,252.738427 C27.8739278,238.548759 17.3085944,215.085281 19.6323389,191.054469 L26.0367861,124.715533 C30.4146389,79.4717253 68.1196722,44.8438444 113.453914,44.1869299 C85.5312472,44.8619174 53.9122861,71.1707147 52.2638111,99.1901614 L42.6347361,204.126753 Z" id="Shape" fill="#E8BA97" fill-rule="nonzero"></path>
                    <path d="M206.483089,100.840305 L203.510017,100.840305 C203.510017,76.3505956 193.583792,54.1836599 177.523542,38.1301153 C165.615531,26.2270759 150.339033,17.691902 133.252122,14.0812296 L133.249764,14.0812296 L133.249764,6.02695485 C133.249764,2.69837848 130.550258,1.13686838e-13 127.220292,1.13686838e-13 L102.350094,1.13686838e-13 C99.0201278,1.13686838e-13 96.3206222,2.69837848 96.3206222,6.02695485 L96.3206222,14.0812296 C56.1841472,22.5723996 26.0650861,58.190367 26.0650861,100.83952 L23.0865111,100.83952 C20.213275,100.83952 17.7385972,102.866054 17.1741694,105.6823 L14.1743694,120.638106 C13.4259917,124.368217 16.2803611,127.850021 20.0867111,127.850021 L73.8527806,127.850021 L81.6211306,150.359558 L147.950828,150.359558 L155.719178,127.850021 L209.484461,127.850021 C213.290811,127.850021 216.144394,124.368217 215.396803,120.638106 L212.397003,105.6823 C211.831003,102.866054 209.356325,100.840305 206.483089,100.840305 Z" id="Shape" fill="#EA8249" fill-rule="nonzero"></path>
                    <path d="M55.0356389,100.840305 C55.0356389,58.1911527 75.3196639,22.5731854 102.349308,14.0820154 L102.349308,1.13686838e-13 L102.349308,1.13686838e-13 C99.0193417,1.13686838e-13 96.3198361,2.69837848 96.3198361,6.02695485 L96.3198361,14.0812296 C56.1833611,22.5723996 26.0643,58.190367 26.0643,100.83952 L23.085725,100.83952 C20.2124889,100.83952 17.7378111,102.866054 17.1733833,105.6823 L14.1735833,120.638106 C13.4259917,124.368217 16.279575,127.850021 20.085925,127.850021 L67.0599944,127.850021 L70.7083361,100.838734 L55.0356389,100.838734 L55.0356389,100.840305 Z" id="Shape" fill="#D36F3D" fill-rule="nonzero"></path>
                    <path d="M150.048172,221.531059 C150.048172,221.531059 149.534842,222.791454 148.453939,224.781057 C148.19295,225.294173 147.886367,225.834792 147.544408,226.419414 C147.138775,226.995393 146.671039,227.580801 146.166356,228.238501 C145.661672,228.895416 145.085453,229.56176 144.473072,230.300396 C144.256892,230.579349 144.022631,230.813512 143.770289,231.056319 C143.679886,231.146684 143.580836,231.236263 143.481786,231.326628 C143.130394,231.650371 142.770356,231.992972 142.400883,232.334788 C141.661939,233.027848 140.860892,233.712265 140.022897,234.432828 C139.140094,235.081099 138.194403,235.693224 137.221197,236.359568 C136.734594,236.69274 136.230697,237.016482 135.716581,237.341011 C135.20325,237.647466 134.653758,237.898916 134.094833,238.178655 C132.99585,238.736561 131.852058,239.27718 130.672106,239.817012 C128.239878,240.645228 125.709386,241.618027 123.006736,242.022705 C120.340247,242.644259 117.557414,242.743268 114.783228,242.878423 C112.009042,242.743268 109.225422,242.653689 106.559719,242.032134 C103.857856,241.626671 101.326578,240.654657 98.89435,239.826442 C97.7143972,239.295253 96.5706056,238.754634 95.4621889,238.196728 C94.9126972,237.917775 94.3632056,237.665539 93.8412278,237.359084 C93.3365444,237.025912 92.8326472,236.710813 92.3460444,236.377641 C91.373625,235.711297 90.4185,235.089743 89.5356972,234.450901 C88.6977028,233.730338 87.9053028,233.037278 87.1577111,232.352861 C86.7882389,232.001616 86.4368472,231.668444 86.0854556,231.335272 C85.9596778,231.21819 85.8331139,231.101109 85.7073361,230.984027 C85.4911556,230.767937 85.2836222,230.56049 85.1036028,230.317683 C84.51795,229.606549 83.9503778,228.948849 83.4551278,228.300578 C82.968525,227.643664 82.4913556,227.066899 82.0951556,226.49092 C81.7351167,225.878795 81.4018056,225.320104 81.1227361,224.806988 C79.997025,222.754523 79.5285028,221.529487 79.5285028,221.529487 C79.5285028,221.529487 80.8617472,221.934951 82.9150694,222.763166 C83.4378333,222.961183 83.9778917,223.20399 84.581625,223.447583 C85.2215194,223.636957 85.8787083,223.879764 86.5814917,224.113927 C87.2929222,224.34809 88.0043528,224.636473 88.7613778,224.905996 C89.5089694,225.194378 90.3556111,225.382966 91.1936056,225.635203 C92.0316,225.87801 92.8688083,226.175821 93.7429639,226.436701 C94.6524944,226.634719 95.5628111,226.868882 96.4990694,227.093616 C96.9675917,227.201268 97.4266806,227.336423 97.8952028,227.462934 C98.3723722,227.570586 98.8676222,227.634234 99.354225,227.733243 C100.336078,227.904544 101.317931,228.102561 102.299783,228.327295 C104.344458,228.516669 106.362406,228.966922 108.469969,229.047858 C110.550806,229.318167 112.67645,229.245875 114.784014,229.3716 C116.901011,229.245875 119.026656,229.326811 121.107492,229.056501 C123.215056,228.984209 125.233003,228.525312 127.277678,228.335939 C128.259531,228.119848 129.241383,227.921831 130.223236,227.75053 C130.709839,227.651522 131.205089,227.588659 131.682258,227.480221 C132.150781,227.345066 132.619303,227.219341 133.078392,227.110903 C134.015436,226.886169 134.924967,226.642576 135.834497,226.453988 C136.7173,226.193109 137.555294,225.896083 138.392503,225.65249 C139.221064,225.400254 140.085786,225.202236 140.80665,224.923283 C141.545594,224.671047 142.238944,224.392094 142.941728,224.176004 C143.635078,223.941841 144.283619,223.707677 144.923514,223.519089 C145.553975,223.24878 146.112114,222.9879 146.644311,222.780453 C148.741656,221.90902 150.048172,221.531059 150.048172,221.531059 Z" id="Shape" fill="#F2F2F2" fill-rule="nonzero"></path>
                    <g id="Group" transform="translate(85.686111, 230.234390)" fill-rule="nonzero" fill="#4D4D4D">
                        <path d="M58.0833917,0.821928915 C57.9929889,0.912293948 57.8939389,1.0018732 57.7948889,1.09223823 C57.4434972,1.41598079 57.0834583,1.75858213 56.7139861,2.10039769 C55.9750417,2.79345821 55.1739944,3.47787512 54.336,4.19843804 C53.4531972,4.84670893 52.5075056,5.45883381 51.5343,6.12517771 C51.0476972,6.45834966 50.5438,6.78209222 50.0296833,7.10662056 C49.5163528,7.41307589 48.9668611,7.66452642 48.4079361,7.94426513 C47.3089528,8.50217099 46.1651611,9.04278963 44.9852083,9.58262248 C42.5529806,10.4108377 40.0224889,11.3836369 37.3198389,11.7883151 C34.65335,12.4098694 31.8705167,12.508878 29.0963306,12.6440327 C26.3221444,12.508878 23.538525,12.4192988 20.8728222,11.7977445 C18.1709583,11.3922805 15.6396806,10.4202671 13.2074528,9.59205187 C12.0275,9.06086263 10.8837083,8.520244 9.77529167,7.96233814 C9.2258,7.68338521 8.67630833,7.4311489 8.15433056,7.12469356 C7.64964722,6.79152161 7.14575,6.47642267 6.65914722,6.14325072 C5.68672778,5.47690682 4.73160278,4.85535255 3.8488,4.21651105 C3.01080556,3.49594813 2.21840556,2.80288761 1.47081389,2.1184707 C1.10134167,1.76722574 0.74995,1.43405379 0.398558333,1.10088184 C0.272780556,0.983800192 0.146216667,0.86671854 0.0204388889,0.749636888 C0.308941667,0.848645533 0.596658333,0.947654179 0.893808333,1.04666282 C1.60523889,1.28082613 2.31666944,1.55977906 3.07369444,1.83008838 C3.82128611,2.12711431 4.66792778,2.31648799 5.50592222,2.5687243 C6.34391667,2.81153122 7.181125,3.09991354 8.05528056,3.37022286 C8.96481111,3.55959654 9.87512778,3.80240346 10.8113861,4.02713737 C11.2799083,4.13478963 11.7389972,4.26130067 12.2075194,4.38702594 C12.6846889,4.49546398 13.1799389,4.55832661 13.6665417,4.65733525 C14.6483944,4.82863593 15.6302472,5.03529683 16.6121,5.25138713 C18.656775,5.44940442 20.6747222,5.89965802 22.7822861,5.97195005 C24.8631222,6.25090298 26.9887667,6.16996734 29.0963306,6.305122 C31.2133278,6.17939673 33.3389722,6.26033237 35.4198083,5.98137944 C37.5273722,5.90908742 39.5453194,5.45883381 41.5899944,5.27024592 C42.5718472,5.05415562 43.5537,4.84670893 44.5355528,4.67619404 C45.0221556,4.5771854 45.5174056,4.51432277 45.994575,4.40588473 C46.4630972,4.28015946 46.9316194,4.15364841 47.3907083,4.04599616 C48.3277528,3.82126225 49.2372833,3.57766955 50.1468139,3.38908165 C51.0296167,3.11877233 51.8676111,2.8217464 52.7048194,2.58758309 C53.5333806,2.33534678 54.3981028,2.12868588 55.1189667,1.85837656 C55.8579111,1.59749664 56.5512611,1.32718732 57.2540444,1.10245341 C57.5346861,1.01130259 57.8137556,0.912293948 58.0833917,0.821928915 Z" id="Shape"></path>
                    </g>
                    <g id="Augu" transform="translate(67.605556, 166.585975)" fill-rule="nonzero" fill="#4D4D4D">
                        <path d="M7.08286111,24.7843785 C3.35197778,24.7843785 0.327022222,21.7606859 0.327022222,18.0313602 L0.327022222,7.23077426 C0.327022222,3.50144861 3.35197778,0.477756004 7.08286111,0.477756004 C10.8137444,0.477756004 13.8387,3.50144861 13.8387,7.23077426 L13.8387,18.0313602 C13.8379139,21.7606859 10.8137444,24.7843785 7.08286111,24.7843785 Z" id="Shape"></path>
                        <path d="M87.2787722,24.7843785 C83.5478889,24.7843785 80.5229333,21.7606859 80.5229333,18.0313602 L80.5229333,7.23077426 C80.5229333,3.50144861 83.5478889,0.477756004 87.2787722,0.477756004 C91.0096556,0.477756004 94.0346111,3.50144861 94.0346111,7.23077426 L94.0346111,18.0313602 C94.033825,21.7606859 91.0104417,24.7843785 87.2787722,24.7843785 Z" id="Shape"></path>
                    </g>
                    <g id="Group" transform="translate(103.766667, 163.442843)" fill-rule="nonzero" fill="#E0B394">
                        <path d="M21.3775056,0.469898175 L21.3775056,32.4331892 C21.3775056,38.1513314 16.73945,42.7874505 11.0189194,42.7874505 L11.0189194,42.7874505 C5.29838889,42.7874505 0.660333333,38.1513314 0.660333333,32.4331892 L0.660333333,0.469898175" id="Shape"></path>
                        <ellipse id="Oval" cx="11.0220639" cy="89.7316926" rx="4.95407222" ry="4.95200384"></ellipse>
                    </g>
                    <g id="Group" transform="translate(13.363889, 0.000000)"></g>
                </g>
            </g>
        </g>
    </g>
</svg>