<svg width="31" height="30" viewBox="0 0 31 30" version="1.1" xmlns="http://www.w3.org/2000/svg" xmlns:xlink="http://www.w3.org/1999/xlink" xmlns:figma="http://www.figma.com/figma/ns">
<title>Group</title>
<desc>Created using Figma</desc>
<g id="Canvas" transform="translate(585 -2578)" figma:type="canvas">
<g id="Group" figma:type="frame">
<g id="Rectangle 4" figma:type="rounded-rectangle">
<mask id="mask0_outline_ins">
<use xlink:href="#path0_fill" fill="white" transform="translate(-584.73 2578.42)"/>
</mask>
<g mask="url(#mask0_outline_ins)">
<use xlink:href="#path1_stroke_2x" transform="translate(-584.73 2578.42)" fill="#F2F2F2"/>
</g>
</g>
<g id="Rectangle 4" figma:type="rounded-rectangle">
<mask id="mask1_outline_ins">
<use xlink:href="#path2_fill" fill="white" transform="translate(-559.735 2586.06)"/>
</mask>
<g mask="url(#mask1_outline_ins)">
<use xlink:href="#path3_stroke_2x" transform="translate(-559.735 2586.06)" fill="#F2F2F2"/>
</g>
</g>
<g id="Rectangle 4" figma:type="rounded-rectangle">
<mask id="mask2_outline_ins">
<use xlink:href="#path2_fill" fill="white" transform="translate(-576.398 2586.06)"/>
</mask>
<g mask="url(#mask2_outline_ins)">
<use xlink:href="#path3_stroke_2x" transform="translate(-576.398 2586.06)" fill="#F2F2F2"/>
</g>
</g>
<g id="Rectangle 4" figma:type="rounded-rectangle">
<mask id="mask3_outline_ins">
<use xlink:href="#path4_fill" fill="white" transform="translate(-568.067 2594.39)"/>
</mask>
<g mask="url(#mask3_outline_ins)">
<use xlink:href="#path5_stroke_2x" transform="translate(-568.067 2594.39)" fill="#F2F2F2"/>
</g>
</g>
</g>
</g>
<defs>
<path id="path0_fill" d="M 0 2.43009C 0 1.08799 1.08799 0 2.43009 0C 3.77219 0 4.86017 1.08799 4.86017 2.43009L 4.86017 26.7366C 4.86017 28.0787 3.77219 29.1667 2.43009 29.1667C 1.08799 29.1667 0 28.0787 0 26.7366L 0 2.43009Z"/>
<path id="path1_stroke_2x" d="M 3.86017 2.43009L 3.86017 26.7366L 5.86017 26.7366L 5.86017 2.43009L 3.86017 2.43009ZM 1 26.7366L 1 2.43009L -1 2.43009L -1 26.7366L 1 26.7366ZM 2.43009 -1C 0.535702 -1 -1 0.535702 -1 2.43009L 1 2.43009C 1 1.64027 1.64027 1 2.43009 1L 2.43009 -1ZM 2.43009 1C 3.2199 1 3.86017 1.64027 3.86017 2.43009L 5.86017 2.43009C 5.86017 0.535702 4.32447 -1 2.43009 -1L 2.43009 1ZM 3.86017 26.7366C 3.86017 27.5264 3.2199 28.1667 2.43009 28.1667L 2.43009 30.1667C 4.32447 30.1667 5.86017 28.631 5.86017 26.7366L 3.86017 26.7366ZM 2.43009 28.1667C 1.64027 28.1667 1 27.5264 1 26.7366L -1 26.7366C -1 28.631 0.535702 30.1667 2.43009 30.1667L 2.43009 28.1667Z"/>
<path id="path2_fill" d="M 0 2.43009C 0 1.08799 1.08799 0 2.43009 0C 3.77219 0 4.86017 1.08799 4.86017 2.43009L 4.86017 19.0977C 4.86017 20.4398 3.77219 21.5278 2.43009 21.5278C 1.08799 21.5278 0 20.4398 0 19.0977L 0 2.43009Z"/>
<path id="path3_stroke_2x" d="M 3.86017 2.43009L 3.86017 19.0977L 5.86017 19.0977L 5.86017 2.43009L 3.86017 2.43009ZM 1 19.0977L 1 2.43009L -1 2.43009L -1 19.0977L 1 19.0977ZM 2.43009 -1C 0.535702 -1 -1 0.535702 -1 2.43009L 1 2.43009C 1 1.64027 1.64027 1 2.43009 1L 2.43009 -1ZM 2.43009 1C 3.2199 1 3.86017 1.64027 3.86017 2.43009L 5.86017 2.43009C 5.86017 0.535702 4.32447 -1 2.43009 -1L 2.43009 1ZM 3.86017 19.0977C 3.86017 19.8875 3.2199 20.5278 2.43009 20.5278L 2.43009 22.5278C 4.32447 22.5278 5.86017 20.9921 5.86017 19.0977L 3.86017 19.0977ZM 2.43009 20.5278C 1.64027 20.5278 1 19.8875 1 19.0977L -1 19.0977C -1 20.9921 0.535702 22.5278 2.43009 22.5278L 2.43009 20.5278Z"/>
<path id="path4_fill" d="M 0 2.43009C 0 1.08799 1.08799 0 2.43009 0C 3.77219 0 4.86017 1.08799 4.86017 2.43009L 4.86017 10.7644C 4.86017 12.1065 3.77219 13.1944 2.43009 13.1944C 1.08799 13.1944 0 12.1065 0 10.7644L 0 2.43009Z"/>
<path id="path5_stroke_2x" d="M 3.86017 2.43009L 3.86017 10.7644L 5.86017 10.7644L 5.86017 2.43009L 3.86017 2.43009ZM 1 10.7644L 1 2.43009L -1 2.43009L -1 10.7644L 1 10.7644ZM 2.43009 -1C 0.535702 -1 -1 0.535702 -1 2.43009L 1 2.43009C 1 1.64027 1.64027 1 2.43009 1L 2.43009 -1ZM 2.43009 1C 3.2199 1 3.86017 1.64027 3.86017 2.43009L 5.86017 2.43009C 5.86017 0.535702 4.32447 -1 2.43009 -1L 2.43009 1ZM 3.86017 10.7644C 3.86017 11.5542 3.2199 12.1944 2.43009 12.1944L 2.43009 14.1944C 4.32447 14.1944 5.86017 12.6587 5.86017 10.7644L 3.86017 10.7644ZM 2.43009 12.1944C 1.64027 12.1944 1 11.5542 1 10.7644L -1 10.7644C -1 12.6587 0.535702 14.1944 2.43009 14.1944L 2.43009 12.1944Z"/>
</defs>
</svg>
