<?xml version="1.0" encoding="UTF-8"?>
<?xml-stylesheet type="text/css" href="css/main.css" ?>
<svg width="500px" height="529px" viewBox="0 0 500 529" version="1.1" xmlns="http://www.w3.org/2000/svg" xmlns:xlink="http://www.w3.org/1999/xlink">
    <!-- Generator: Sketch 41.2 (35397) - http://www.bohemiancoding.com/sketch -->
    <title>students</title>
    <desc>Created with Sketch.</desc>

    <defs>
    </defs>
    <g id="Page-1" stroke="none" stroke-width="1" fill="none" fill-rule="evenodd">
        <g id="Desktop-HD" transform="translate(-69.000000, -248.000000)">
            <g id="students" transform="translate(58.000000, 243.000000)">
                <g id="student-accessories" opacity="0.450520833">
                    <g id="notebook" transform="translate(424.056926, 67.359925) rotate(-52.000000) translate(-424.056926, -67.359925) translate(388.556926, 18.859925)">
                        <g id="Capa_1" transform="translate(0.000000, 0.000000)">
                            <path d="M65.288158,88.1656583 L0.507959665,88.1656583 L0.507959665,0 L65.2864535,0 C68.1075046,0 70.3950277,2.27548346 70.3950277,5.08168698 L70.3950277,83.0839714 C70.3950277,85.8901749 68.1092092,88.1656583 65.288158,88.1656583 Z" id="Shape" fill="#424A60"></path>
                            <rect id="Rectangle-path" fill="#7383BF" x="51.6448387" y="0" width="8.52281317" height="88.1656583"></rect>
                            <g id="Group" transform="translate(-0.000000, 28.825051)" fill="#25AE88">
                                <rect id="Rectangle-path" x="0.507959665" y="0.0118691388" width="51.136879" height="30.5206425"></rect>
                                <rect id="Rectangle-path" x="60.1676519" y="0.0118691388" width="10.2273758" height="30.5206425"></rect>
                            </g>
                            <polygon id="Shape" fill="#CC4B4C" points="17.553586 96.6436146 12.4398981 93.2524321 7.3262102 96.6436146 7.3262102 88.1656583 17.553586 88.1656583"></polygon>
                        </g>
                    </g>
                    <g id="pencil" transform="translate(155.394164, 482.643882) rotate(-25.000000) translate(-155.394164, -482.643882) translate(144.894164, 426.143882)">
                        <g id="Capa_1">
                            <g id="XMLID_13_">
                                <path d="M10.5,0 C4.70085,0 0,4.7063186 0,10.5116279 L0,13.1395349 L21,13.1395349 L21,10.5116279 C21,4.7063186 16.29915,0 10.5,0 Z" id="XMLID_958_" fill="#FFE98F"></path>
                                <rect id="XMLID_959_" fill="#00D7DF" x="10.5" y="21.0232558" width="10.5" height="70.9534884"></rect>
                                <rect id="XMLID_960_" fill="#CCF7F9" x="0" y="21.0232558" width="10.5" height="70.9534884"></rect>
                                <polygon id="XMLID_961_" fill="#565659" points="0 21.0232558 10.5 21.0232558 21 21.0232558 21 13.1395349 0 13.1395349"></polygon>
                                <polygon id="XMLID_962_" fill="#FFE98F" points="0 91.9767442 5.24475 102.478123 15.75525 102.478123 21 91.9767442 10.5 91.9767442"></polygon>
                                <polygon id="XMLID_963_" fill="#565659" points="10.5 113 15.75525 102.478123 5.24475 102.478123"></polygon>
                            </g>
                        </g>
                    </g>
                    <g id="laptop" transform="translate(82.500000, 71.500000) rotate(-24.000000) translate(-82.500000, -71.500000) translate(13.000000, 25.000000)">
                        <g id="Layer_1" transform="translate(0.000000, -0.000000)">
                            <path d="M136.970675,81.334969 L2.02932493,81.334969 C0.943348335,81.334969 0.242718272,82.4886122 0.768190819,83.4325021 L2.90511251,87.4178151 C4.58662466,90.5641148 7.84455446,92.4868535 11.4177678,92.4868535 L127.582232,92.4868535 C131.155446,92.4868535 134.413375,90.5291559 136.094887,87.4178151 L138.231809,83.4325021 C138.72225,82.4886122 138.056652,81.334969 136.970675,81.334969 Z" id="Shape" fill="#324A5E"></path>
                            <path d="M127.196886,81.334969 L12.7139334,81.334969 C12.2234923,81.334969 11.8031143,80.9504212 11.8031143,80.4260379 L11.8031143,0.964490686 C11.8031143,0.475066286 12.1884608,0.0555596577 12.7139334,0.0555596577 L127.196886,0.0555596577 C127.687327,0.0555596577 128.107705,0.440107401 128.107705,0.964490686 L128.107705,80.4260379 C128.072673,80.9154623 127.687327,81.334969 127.196886,81.334969 Z" id="Shape" fill="#2B3B4E"></path>
                            <rect id="Rectangle-path" fill="#FFFFFF" x="17.1979658" y="8.7603222" width="105.514887" height="65.4080752"></rect>
                            <ellipse id="Oval" fill="#324A5E" cx="69.9554095" cy="4.32054372" rx="1.99679568" ry="1.99265649"></ellipse>
                            <rect id="Rectangle-path" fill="#FFD05B" x="29.4940234" y="14.4935795" width="8.8980018" height="8.87955697"></rect>
                            <g id="Group" transform="translate(43.401530, 14.423662)" fill="#E6E9EE">
                                <rect id="Rectangle-path" x="0.315283528" y="0.0699177714" width="21.0889649" height="3.00646417"></rect>
                                <rect id="Rectangle-path" x="0.315283528" y="5.94301057" width="11.5954275" height="3.00646417"></rect>
                            </g>
                            <rect id="Rectangle-path" fill="#54C0EB" x="75.1050405" y="14.4935795" width="8.8980018" height="8.87955697"></rect>
                            <g id="Group" transform="translate(31.841134, 14.423662)" fill="#E6E9EE">
                                <rect id="Rectangle-path" x="57.4516652" y="0.0699177714" width="21.0889649" height="3.00646417"></rect>
                                <rect id="Rectangle-path" x="57.4516652" y="5.94301057" width="11.5954275" height="3.00646417"></rect>
                                <rect id="Rectangle-path" x="0.280252025" y="22.6183991" width="9.17825383" height="27.8622319"></rect>
                                <rect id="Rectangle-path" x="16.8851845" y="22.6183991" width="9.17825383" height="27.8622319"></rect>
                                <rect id="Rectangle-path" x="33.5251485" y="22.6183991" width="9.17825383" height="27.8622319"></rect>
                                <rect id="Rectangle-path" x="50.130081" y="22.6183991" width="9.17825383" height="27.8622319"></rect>
                                <rect id="Rectangle-path" x="66.770045" y="22.6183991" width="9.17825383" height="27.8622319"></rect>
                            </g>
                            <g id="Group" transform="translate(31.841134, 42.041181)" fill="#4CDBC4">
                                <rect id="Rectangle-path" x="0.280252025" y="6.53731163" width="9.17825383" height="16.3257996"></rect>
                                <rect id="Rectangle-path" x="16.8851845" y="12.6551166" width="9.17825383" height="10.2079946"></rect>
                                <rect id="Rectangle-path" x="33.5251485" y="0.314629971" width="9.17825383" height="22.5484813"></rect>
                                <rect id="Rectangle-path" x="50.130081" y="8.00558483" width="9.17825383" height="14.8924853"></rect>
                                <rect id="Rectangle-path" x="66.770045" y="2.65687531" width="9.17825383" height="20.2062359"></rect>
                            </g>
                            <polygon id="Shape" fill="#ACB3BA" points="84.6336094 83.8520087 54.3663906 83.8520087 51.8090909 81.334969 87.1909091 81.334969"></polygon>
                        </g>
                    </g>
                </g>
                <g id="Layer_1" transform="translate(39.000000, 106.000000)">
                    <g id="student" transform="translate(307.000000, 67.000000)">
                        <g id="Layer_1">
                            <g id="Group">
                                <rect id="Rectangle-path" fill="#FCB47E" x="62.3820645" y="139.294495" width="39.7419355" height="46.4249513"></rect>
                                <path d="M93.6859355,186.587682 C86.8602581,192.047524 82.3307419,192.861747 82.3307419,192.861747 C82.3307419,192.861747 77.8022903,192.047971 70.9780323,186.589914 C70.9780323,186.589914 66.8768065,173.518166 68.0594839,175.005996 C69.2421613,176.493827 82.3307419,175.005996 82.3307419,175.005996 L93.607871,178.577146 L93.6859355,186.587682 Z" id="Shape" fill="#4296D9"></path>
                                <path d="M116.317548,157.150246 L145.862839,163.410025 C157.758806,167.603002 164.653323,182.291142 164.653323,196.050337 L164.653323,219.192283 C164.653323,224.373129 160.840581,228.573248 156.137194,228.573248 L8.52429032,228.573248 C3.82090323,228.573248 0.00816129032,224.373129 0.00816129032,219.192283 L0.00816129032,196.050337 C0.00816129032,182.291142 6.90267742,167.603002 18.7986452,163.410025 L48.1885161,157.150246 L82.3307419,175.005996 L116.317548,157.150246 Z" id="Shape" fill="#996459"></path>
                                <path d="M34.9870968,159.96208 C35.0310968,160.076357 35.0307419,160.207596 35.0846774,160.316517 C56.6659677,204.097924 77.6763226,209.887205 79.9994516,210.399665 L81.8375161,210.807669 C82.0010968,210.846058 82.1646774,210.863468 82.3310968,210.863468 C82.4975161,210.863468 82.6610968,210.846058 82.8246774,210.807669 L84.6627419,210.399665 C86.985871,209.887205 107.996226,204.097924 129.577516,160.316517 C129.628968,160.212507 129.626839,160.087517 129.669065,159.978596 L116.318258,157.149799 L82.3314516,175.00555 L48.1892258,157.149799 L34.9870968,159.96208 Z" id="Shape" fill="#7E5C62"></path>
                                <path d="M56.7827097,139.294495 L46.0672903,157.150246 L63.3713548,189.282561 C64.3712903,191.139113 66.4680323,191.390433 67.7287742,189.804842 L82.3310968,175.005996 L56.7827097,139.294495 Z" id="Shape" fill="#4BB9EC"></path>
                                <path d="M107.879129,139.294495 L118.594548,157.150246 L101.290484,189.282561 C100.290548,191.139113 98.1938065,191.390433 96.9330645,189.804842 L82.3307419,175.005996 L107.879129,139.294495 Z" id="Shape" fill="#4BB9EC"></path>
                                <path d="M122.139742,77.9242807 L116.395613,60.729193 C116.395613,60.729193 91.5569032,43.4684854 51.1052903,50.0157427 L51.0275806,50.0157427 C43.766871,61.5447544 39.6727419,75.7057037 39.6727419,92.8695439 C39.6727419,128.370793 58.7368065,157.150246 82.2533871,157.150246 C105.769968,157.150246 124.834032,128.370793 124.834032,92.8695439 C124.834032,87.108386 124.284742,81.5525692 123.343,76.240037 C122.608129,77.2729922 122.139742,77.9242807 122.139742,77.9242807 Z" id="Shape" fill="#FFDCAD"></path>
                                <path d="M127.508806,9.29302534 C126.998548,7.82840741 125.787129,6.9775809 124.509355,7.19720663 C117.395903,8.49085575 108.771548,6.2972768 99.6482903,3.99567057 C84.345871,0.13168616 68.5307097,-3.86487719 56.1667097,7.23202534 C55.9864516,7.18649318 55.7980323,7.16238791 55.6039355,7.16238791 C42.9266129,7.16238791 34.0723226,20.3796608 34.0723226,39.3027388 C34.0723226,54.7135906 39.503129,84.1862924 39.7359032,85.4348558 C40.026871,87.0008051 41.1165806,88.1306277 42.3943548,88.1899981 C42.4305484,88.1935692 42.4663871,88.1935692 42.4997419,88.1935692 C43.736,88.1935692 44.8367097,87.1820409 45.2082258,85.6897466 L53.2669677,53.2806667 C87.1679032,48.3529259 109.650129,60.5765263 114.182839,63.3245263 L119.522097,79.3107797 C119.982323,80.6847797 121.074516,81.6333665 122.263935,81.4940916 C123.453355,81.4280253 124.481677,80.4374776 124.844677,79.0108031 C133.352645,45.4683294 130.236806,17.0906316 127.508806,9.29302534 Z" id="Shape" fill="#7E5C62"></path>
                                <path d="M28.3952581,228.573248 L28.3952581,204.694752 C28.3952581,196.108815 25.7368065,188.038908 20.913129,181.970632 L10.4244516,168.775678 C8.91993548,170.256366 7.56054839,171.931682 6.36509677,173.768593 L16.8991935,187.020684 C20.6526774,191.742637 22.7178387,198.020273 22.7178387,204.695199 L22.7178387,228.573694 L28.3952581,228.573248 L28.3952581,228.573248 Z" id="Shape" fill="#7E5C62"></path>
                                <path d="M154.237032,168.775232 L143.748355,181.970185 C138.921839,188.038462 136.266226,196.108368 136.266226,204.694306 L136.266226,228.572801 L141.943645,228.572801 L141.943645,204.694306 C141.943645,198.01938 144.008806,191.741745 147.76229,187.019791 L158.296742,173.767253 C157.10129,171.931236 155.741548,170.256366 154.237032,168.775232 Z" id="Shape" fill="#7E5C62"></path>
                            </g>
                        </g>
                    </g>
                    <g id="student-(1)" transform="translate(0.000000, 54.000000)">
                        <g id="Layer_1">
                            <path d="M107.494354,148.37411 C97.7741818,166.60222 73.7684545,166.60222 64.0487172,148.37411 L64.0487172,116.963067 L107.494354,116.963067 L107.494354,148.37411 Z" id="Shape" fill="#F0BA7A"></path>
                            <path d="M165.520465,166.283337 C164.194848,160.100003 159.776707,155.222008 153.885707,153.112167 L113.238111,139.644893 L103.223455,149.90857 L68.3196162,150.106572 L57.1265859,139.701619 L17.8046061,153.249738 C11.9136061,155.37149 7.64270707,160.420986 6.16984848,166.444433 L0,240.27758 C25.8,240.27758 51.243404,240.312568 85.8527576,240.27758 C100.043986,240.263233 114.375621,243.482133 126.85,237.69395 C144.797947,229.366 159.715293,209.369994 171.705515,193.131099 L165.520465,166.283337 Z" id="Shape" fill="#F1F3F7"></path>
                            <ellipse id="Oval" fill="#393D47" cx="85.2559697" cy="60.6510895" rx="54.4914242" ry="60.2181383"></ellipse>
                            <path d="M104.696313,37.5405184 C89.2323838,73.1831552 52.1194747,68.7888444 40.9264444,66.5103306 L40.9264444,85.2265909 C40.9264444,112.243323 60.8085152,134.214877 85.2559697,134.214877 C109.703424,134.214877 129.585495,112.243323 129.585495,85.2265909 L129.585495,62.9296033 C109.114455,61.1392396 104.696313,37.5405184 104.696313,37.5405184 Z" id="Shape" fill="#F7CFA2"></path>
                            <g id="Group" transform="translate(25.626263, 143.037098)" fill="#886C60">
                                <path d="M0.425656566,97.671087 C2.82501129,97.671087 5.03752998,97.5057714 7.20630076,97.4916331 C10.2512839,97.4717827 11.3537374,97.4916331 16.4785556,97.671087 L16.4785556,2.07678097 L0.425656566,6.88967972 L0.425656566,97.671087 Z" id="Shape"></path>
                                <path d="M104.106475,85.0854738 C109.70299,82.4815266 115.004586,79.2262326 120.159374,75.6459853 L120.159374,0.454550778 L104.106475,0.454550778 L104.106475,85.0854738 Z" id="Shape"></path>
                            </g>
                            <path d="M89.6745455,150.164473 L81.8689596,150.164473 L71.4125758,164.460876 L79.9543737,178.58912 L71.7070606,240.148324 C76.2724444,240.820956 80.9855051,241.157272 85.8453737,241.157272 C90.7052424,241.157272 95.418303,240.820956 99.9836869,240.148324 L91.5891313,178.58912 L100.130929,164.460876 L89.6745455,150.164473 Z" id="Shape" fill="#4B5AA7"></path>
                            <g id="Group" transform="translate(56.898990, 130.077361)" fill="#FCFCFD">
                                <polygon id="Shape" points="7.2969697 0.0686386074 28.3569798 20.0871125 11.4206263 47.5919944 0.22759596 9.5081271"></polygon>
                                <polygon id="Shape" points="50.0063939 0.0686386074 28.9463838 20.0871125 45.8827374 47.5919944 57.0757677 9.5081271"></polygon>
                            </g>
                        </g>
                    </g>
                    <path d="M173.584593,144.966189 C182.205887,130.475522 195.79157,113.655648 181.995276,88.0827673 C161.684448,-0.720805031 255.282485,-18.7258868 269.433939,17.9233208 C292.463081,26.6063396 291.84891,74.4097107 280.006323,99.424 C279.478488,109.71673 268.776599,118.694088 288.116788,145.251371 L289.508648,144.94722 L289.50734,144.948528 C264.417224,152.220679 200.10843,148.873057 173.584593,144.966189 Z" id="Shape" fill="#666666"></path>
                    <path d="M216.61061,126.250113 C215.748547,142.154264 210.103924,148.158138 202.277326,152.339069 C198.295349,155.856755 168.331105,156.79995 159.569186,170.944604 C157.741715,173.895195 156.806395,204.943447 151.75436,219.305912 C188.379651,243.293283 278.619041,243.293283 315.244985,219.305912 C310.191642,204.943447 310.624637,173.897811 308.797166,170.94722 C299.547311,156.007849 268.057122,155.834516 264.394331,152.781887 C256.739753,148.496956 251.240988,142.196126 250.388735,126.250113 C250.388735,126.250113 238.948401,135.125434 231.836047,133.759698 C224.721076,132.39527 216.61061,126.250113 216.61061,126.250113 Z" id="Shape" fill="#FED198"></path>
                    <path d="M216.228634,130.591296 C220.397674,133.071597 227.350436,140.834969 233.857122,140.92327 C240.340916,141.010918 249.472384,131.42395 250.775945,130.716881 C250.663445,129.812931 250.569913,128.871044 250.494695,127.891874 L250.388081,127.975597 L250.382195,127.980176 L250.377616,127.981484 C250.028343,128.255547 238.836555,136.999396 231.83343,135.629082 C224.934302,134.279044 217.097892,128.349082 216.632195,127.991296 L216.499419,127.890566 C216.427471,128.824604 216.335247,129.725937 216.228634,130.591296 Z" id="Shape" fill="#F0B97D"></path>
                    <path d="M198.177616,100.167044 C205.235029,115.281057 207.845422,121.182239 216.61061,127.976252 C216.61061,127.976252 224.721076,134.237836 231.835392,135.631044 C238.947747,137.020981 250.388081,127.976252 250.388081,127.976252 C259.154578,121.182239 261.762355,115.281057 268.819767,100.167044 C270.550436,101.088654 272.358939,102.338616 273.761919,100.728252 C275.16686,99.1172327 281.850799,78.2086541 280.647965,75.3882264 C279.445131,72.5658365 278.271076,74.3658868 276.480233,75.6433208 C276.573765,75.0350189 275.064172,83.1986918 275.085756,81.9585409 C275.254506,72.0883522 268.318096,70.5205031 266.143314,44.4060377 C234.155378,76.1436981 204.273547,61.5778113 193.862718,63.7049057 C190.847456,64.3190943 189.960538,72.0451824 190.517151,75.6446289 C179.225291,67.5856101 192.94702,100.400553 193.234157,100.728252 C194.640407,102.33927 196.446948,101.088654 198.176308,100.167044 L198.177616,100.167044 L198.177616,100.167044 Z" id="Shape" fill="#FED198"></path>
                    <path d="M202.272747,152.333182 C191.521802,158.077384 171.83561,151.136201 159.568532,170.94395 C157.74564,173.891925 150.751672,204.942792 145.69702,219.305258 C182.321003,247.545509 284.674419,247.71034 321.301017,219.305258 C316.247674,204.942792 310.62202,173.893233 308.796512,170.945258 C296.500654,151.082566 275.398401,158.068226 264.633067,152.289358 L234.621076,213.638893 L202.271439,152.332528 L202.272747,152.332528 L202.272747,152.333182 Z" id="Shape" fill="#0E7886"></path>
                    <g id="Group" transform="translate(139.313953, 171.371069)" fill="#FFFFFF">
                        <path d="M77.1220203,7.76010063 C86.4595203,11.0887547 102.344913,11.1090314 112.197166,7.74701887 L95.3084302,42.2710943 L77.1220203,7.76010063 Z" id="Shape"></path>
                        <path d="M0.213880814,2.60130818 C58.1638081,-4.97433962 81.2282703,9.56669182 94.1867006,21.0165031 C74.9269622,9.92774843 37.959593,10.660327 1.84186047,17.1142138 L0.213880814,2.60130818 Z" id="Shape"></path>
                        <path d="M188.15952,2.60130818 C130.209593,-4.97433962 107.147093,9.56538365 94.1867006,21.0145409 C117.166788,7.78299371 160.349782,12.5303648 186.499491,17.3182893 L188.15952,2.60130818 Z" id="Shape"></path>
                    </g>
                    <path d="M125.237718,190.76805 C166.103343,181.455799 211.899346,178.515673 234.12202,191.310289 C256.345349,178.515673 300.895349,181.455799 341.762282,190.76805 C339.42202,271.165937 341.374419,204.063044 338.256468,311.371421 C335.862573,310.920101 271.275799,301.313509 240.055087,310.682013 C234.856541,310.679396 233.651744,310.679396 228.431613,310.682013 C194.155087,300.712403 130.990262,310.948881 128.740916,311.371421 C125.521584,200.574792 127.653198,274.064201 125.237718,190.76805 Z" id="Shape" fill="#15BDB1"></path>
                    <g id="Group" transform="translate(130.156977, 177.911950)" fill="#DFE1E3">
                        <path d="M0.240697674,5.66701887 L0.862063953,12.0554969 C40.3384448,3.67532075 83.2231831,1.50047799 104.500073,13.7515472 L104.501381,13.750239 C104.426163,13.6926792 72.9058866,-10.0082013 0.242005814,5.66571069 L0.240697674,5.66701887 Z" id="Shape"></path>
                        <path d="M206.446657,6.02153459 L205.825291,12.4100126 C166.34891,4.02983648 123.462863,1.85499371 102.187282,14.1060629 L102.185974,14.1047547 C102.261192,14.0485031 133.781468,-9.65368553 206.447311,6.02022642 L206.447311,6.02153459 L206.446657,6.02153459 Z" id="Shape"></path>
                    </g>
                    <path d="M147.459738,223.541132 L136.076962,224.149434 L124.74782,224.951346 C120.05814,225.286239 120.841061,233.685384 125.513735,233.131371 L137.863881,231.66883 L147.241933,230.88 C151.931613,230.483623 150.609084,223.371069 147.459738,223.541132 Z M145.894549,249.670642 L145.894549,249.670642 L128.239898,251.734289 C124.452834,252.173836 125.365916,260.610918 129.005814,259.913006 L146.713445,256.506516 C150.414172,255.79356 149.63125,249.233057 145.894549,249.670642 Z M148.138663,240.511447 L148.138663,240.511447 C152.822456,240.073208 153.778706,247.310038 149.11061,247.906566 L126.759084,250.762314 C122.092297,251.359497 121.310683,243.022491 125.993169,242.583597 L148.138663,240.511447 Z M151.25923,231.369258 L151.25923,231.369258 C156.743605,230.855799 157.50952,239.034516 152.025145,239.547975 L126.049419,241.981182 C120.566352,242.494642 119.802398,234.315925 125.283503,233.802465 L151.25923,231.369258 Z" id="Shape" fill="#FED198"></path>
                    <g id="Group" transform="translate(144.546512, 224.352201)" fill="#FFFFFF">
                        <path d="M1.43895349,1.04784906 L1.83859012,5.32231447 L4.68837209,5.05413836 C5.1684593,3.45358491 4.9650436,1.94198742 4.2599564,0.482716981 L1.43764535,1.04654088 L1.43895349,1.04784906 Z" id="Shape"></path>
                        <path d="M6.33531977,8.99436478 L6.78793605,13.8490063 L9.45,13.5997987 C10.3918605,11.7650818 10.35,10.0232453 8.96402616,8.40830189 L6.33335756,8.99371069 L6.33531977,8.99436478 Z" id="Shape"></path>
                        <path d="M2.78175872,18.0685283 L3.18139535,22.3416855 L6.44520349,22.0362264 C6.78401163,20.4683774 6.65450581,18.9443522 6.01678779,17.4661132 L2.78175872,18.0685283 Z" id="Shape"></path>
                        <path d="M0.106613372,27.5129057 L0.625944767,30.8945409 L3.89825581,30.3333333 C4.19520349,29.045434 4.02383721,27.8366792 3.34295058,26.7149182 L0.106613372,27.5109434 L0.106613372,27.5129057 L0.106613372,27.5129057 Z" id="Shape"></path>
                    </g>
                    <path d="M319.540916,223.541132 L330.923692,224.149434 L342.252834,224.951346 C346.942515,225.286239 346.159593,233.685384 341.486919,233.131371 L329.136773,231.66883 L319.758721,230.88 C315.068387,230.483623 316.390916,223.371069 319.540916,223.541132 Z M321.105451,249.670642 L321.105451,249.670642 L338.760102,251.734289 C342.547166,252.173836 341.634084,260.610918 337.994186,259.913006 L320.286555,256.506516 C316.587137,255.79356 317.36875,249.233057 321.105451,249.670642 Z M318.861337,240.511447 L318.861337,240.511447 C314.177544,240.073208 313.221294,247.310038 317.88939,247.906566 L340.240916,250.762314 C344.907703,251.359497 345.689317,243.022491 341.006831,242.583597 L318.861337,240.511447 Z M315.74077,231.369258 L315.74077,231.369258 C310.256395,230.855799 309.49048,239.034516 314.974855,239.547975 L340.950581,241.981182 C346.433648,242.494642 347.197602,234.315925 341.716497,233.802465 L315.74077,231.369258 Z" id="Shape" fill="#FED198"></path>
                    <g id="Group" transform="translate(311.988372, 224.352201)" fill="#FFFFFF">
                        <path d="M9.02616279,1.04784906 L8.62652616,5.32231447 L5.77543605,5.05413836 C5.29534884,3.45358491 5.49876453,1.94198742 6.20385174,0.482716981 L9.02616279,1.04654088 L9.02616279,1.04784906 Z" id="Shape"></path>
                        <path d="M4.12848837,8.99436478 L3.67587209,13.8490063 L1.01380814,13.5997987 C0.0719476744,11.7650818 0.11380814,10.0232453 1.49978198,8.40830189 L4.13045058,8.99371069 L4.12848837,8.99436478 Z" id="Shape"></path>
                        <path d="M7.68335756,18.0685283 L7.28372093,22.3416855 L4.01991279,22.0362264 C3.68110465,20.4683774 3.81061047,18.9443522 4.44832849,17.4661132 L7.68335756,18.0685283 Z" id="Shape"></path>
                        <path d="M10.3585029,27.5129057 L9.83917151,30.8945409 L6.56686047,30.3333333 C6.26991279,29.045434 6.44127907,27.8366792 7.1221657,26.7149182 L10.3585029,27.5109434 L10.3585029,27.5129057 Z" id="Shape"></path>
                    </g>
                    <polygon id="Shape" fill="#20D0C2" points="228.561773 188.633761 240.055741 188.633761 240.055741 310.679396 228.561773 310.679396"></polygon>
                </g>
            </g>
        </g>
    </g>
</svg>
