<svg width="24" height="25" viewBox="0 0 24 25" version="1.1" xmlns="http://www.w3.org/2000/svg" xmlns:xlink="http://www.w3.org/1999/xlink" xmlns:figma="http://www.figma.com/figma/ns">
<title>noun_690495_cc</title>
<desc>Created using Figma</desc>
<g id="Canvas" transform="translate(581 -2650)" figma:type="canvas">
<g id="noun_690495_cc" figma:type="frame">
<g id="Vector" figma:type="vector">
<use xlink:href="#path0_fill" transform="translate(-580.564 2650.64)" fill="#F2F2F2"/>
</g>
<g id="Vector" figma:type="vector">
<use xlink:href="#path1_fill" transform="translate(-570.219 2661.75)" fill="#F2F2F2"/>
</g>
<g id="Vector" figma:type="vector">
<use xlink:href="#path2_fill" transform="translate(-568.032 2656.44)" fill="#F2F2F2"/>
</g>
</g>
</g>
<defs>
<path id="path0_fill" d="M 12.6365 0.833333C 12.4976 0.347222 12.081 1.32455e-07 11.5256 1.32455e-07C 10.9007 1.32455e-07 10.3452 0.555556 10.3452 1.18056C 10.3452 1.80556 10.9007 2.36111 11.5256 2.36111C 12.0116 2.36111 12.4282 2.01389 12.6365 1.59722C 18.1215 2.15278 22.3568 6.80556 22.3568 12.3611C 22.3568 18.3333 17.4966 23.1944 11.5256 23.1944C 5.55448 23.1944 0.69431 18.3333 0.69431 12.3611C 0.69431 12.1528 0.555448 12.0139 0.347155 12.0139C 0.138862 12.0139 -2.64858e-07 12.1528 -2.64858e-07 12.3611C -2.64858e-07 18.6806 5.1379 23.8889 11.5256 23.8889C 17.9132 23.8889 23.0511 18.75 23.0511 12.3611C 23.0511 6.38889 18.4687 1.38889 12.6365 0.833333ZM 11.5256 1.66667C 11.2478 1.66667 11.0395 1.45833 11.0395 1.18056C 11.0395 0.902778 11.2478 0.694445 11.5256 0.694445C 11.8033 0.694445 12.0116 0.902778 12.0116 1.18056C 12.0116 1.45833 11.8033 1.66667 11.5256 1.66667Z"/>
<path id="path1_fill" d="M 1.18033 -5.29819e-07C 0.555448 -5.29819e-07 -5.29717e-07 0.555556 -5.29717e-07 1.18056C -5.29717e-07 1.80556 0.555448 2.36111 1.18033 2.36111C 1.80521 2.36111 2.36066 1.80556 2.36066 1.18056C 2.36066 0.555556 1.80521 -5.29819e-07 1.18033 -5.29819e-07ZM 1.18033 1.66667C 0.902604 1.66667 0.69431 1.45833 0.69431 1.18056C 0.69431 0.902778 0.902604 0.694444 1.18033 0.694444C 1.45805 0.694444 1.66635 0.902778 1.66635 1.18056C 1.66635 1.45833 1.45805 1.66667 1.18033 1.66667Z"/>
<path id="path2_fill" d="M 0.590163 5.38194L 5.38091 0.590278C 5.51977 0.451389 5.51977 0.243055 5.38091 0.104166C 5.24204 -0.0347228 5.03375 -0.0347228 4.89489 0.104166L 0.104147 4.89583C -0.0347153 5.03472 -0.0347153 5.24306 0.104147 5.38194C 0.173578 5.45139 0.243009 5.45139 0.381871 5.45139C 0.520733 5.45139 0.520732 5.45139 0.590163 5.38194Z"/>
</defs>
</svg>
